<svg id="Layer_1" data-name="Layer 1" xmlns="http://www.w3.org/2000/svg" viewBox="0 0 1061.12 925.93"><defs><style>.cls-1{fill:#fff;}.cls-2{fill:#ed3024;}</style></defs><title>crh_logo_top</title><path class="cls-1" d="M1061.67,710.27c-.77-.09-2.09-.36-2.88-.36a3.2,3.2,0,0,0-2.2,1.15c-.88,1.31-.88,4.3-.88,4.73s.18,3.06.26,3.6-.08,2.46-.08,2.9a7.38,7.38,0,0,0,.35,2.53,2.91,2.91,0,0,0,2.45,1.49c.09,0,2.27-.43,2.72-.52,1.48-.34,3.15-.34,4.55-1a7.5,7.5,0,0,0,1.66-1.33c1.59-1.66,1.94-3.15,1.94-5.78a6.77,6.77,0,0,0-1.41-4.39C1066.59,710.88,1063.69,710.54,1061.67,710.27Z" transform="translate(-400.34 -73.01)"/><path class="cls-1" d="M984.65,73.16c0,4.49-1.22,8.85-1.41,13.17-.2,4.59-.74,9-1.09,13.42s.16,9-.32,13.27c-.5,4.57.84,9.29.25,13.69-.63,4.65-1.69,9.17-2.36,13.63s-1.07,8.75-1.58,12.62c-.62,4.74-3.74,8.75-4.16,12.9-.47,4.57,1.75,9.16,1.46,13.69-.27,4.22-1.09,8.51-1.28,13.3-.17,4.08-1.9,8.41-2,13.27-.11,3.57,1.11,7.51,1,11.6-.15,3.87-2.31,7.82-2.49,11.94s.95,8.14.75,12.2c-.21,4.22-1,8.39-1.2,12.48-.23,4.3-1.08,8.43-1.32,12.36-.26,4.41,1.28,8.64,1,12.3-.38,5.11.17,9.44-.16,12.31-.59,5.18-1.36,10-1.54,14.2-.32,7-.88,13.68-4.18,15.23-5.29,2.49-9.1,4.8-14.64,3-1.57-.52-3.46-3.54-5.39-8.79-1.16-3.19-1.83-7.23-3.06-11.63-1-3.53-2.27-7.29-3.26-11.36-1-3.91-2.51-7.89-3.45-12.11-.88-3.93-.7-8.17-1.54-12.23s-3.39-7.86-4.19-11.94.94-8.78.19-12.78c-.78-4.14-2.38-8-3.06-11.76-.8-4.39-3-8.21-3.66-11.86-.87-5-.15-9.46-.63-12.43-.78-5-1.13-9.54-1.85-13.61-.93-5.23-2.87-9.55-3.67-13.35a93.76,93.76,0,0,0-3.93-13.37c-1.07-3.13-.18-5-.88-9.45-.38-2.37-2.6-5.2-3.64-9.85-.85-3.8-.39-7.73-1.76-11.39s-2.59-7.58-4.34-11.84c-1.47-3.57-5.07-6.71-6.71-11.19-1.34-3.69-.21-8.61-1.63-13.19-1.2-3.87-2.6-8.09-3.86-12.65-1.14-4.12-3.71-8.05-4.86-12.47-.13-.49-.27-1-.41-1.47H771.14c.29.91.55,1.82.76,2.75.9,4.08-.13,8.64.75,12.82s1.9,8.57,2.78,12.87,4.22,8.37,5.08,12.72c.88,4.51,1.37,9,2.18,13.34.85,4.5.83,9,1.58,13.18.83,4.58.72,9,1.4,13,.85,4.93,2.75,9.15,3.34,12.89.66,4.17,1.38,8.1,2.08,11.92.75,4.11.93,8.18,1.74,12.13s.24,8.28,1.14,12.39c.84,3.87,4,7.36,5,11.56.87,3.91,1.86,8,2.82,12.34.88,4,1,8.42,2,13,.83,3.9,2.24,7.91,3.15,12.31.82,4,2.26,8,3.15,12.47.85,4.27.39,8.69,1.22,12.75.92,4.51,1.59,8.93,2.46,13.15.94,4.56,1.14,9.08,2,13.28,1,4.73,3.45,8.91,4.31,13.13,1,4.81.63,9.53,1.45,13.61,1,5,1.1,9.61,1.75,13.45,1.11,6.53,4.79,11,4.62,13.52-.56,8.73-10.45,7.44-15,4.45-2-1.3-3.51-5.46-6.53-9.4-2.15-2.8-5.29-5.69-7.53-9.78-1.84-3.38-2-7.87-3.69-12.1-1.16-2.93-3.78-6-5.51-9.93-1.5-3.42-2.77-7.35-4.59-11.3-1.61-3.49-3-7.31-4.78-11.07-1.69-3.57-4.4-6.79-6.18-10.48s-3.1-7.83-4.95-11.59-4.67-7.27-6.54-11-4-7.55-5.85-11.11c-1.69-3.26-2.15-7.74-4.43-11.58-2.09-3.49-5.14-6.75-7.6-10.61-2.32-3.64-5.49-7-8-10.86-2.32-3.55-3.89-7.73-6.31-11.42s-3.76-7.84-6.13-11.47-6.72-6.3-9.1-10-3.37-8.64-5.67-12.43c-2.39-3.95-6.65-6.69-8.77-10.47-2-3.63-1.92-8.32-3.77-11.85-2-3.72-3.65-7.44-5.44-11.07-1.91-3.87-3.57-7.7-5.3-11.45-1.85-4-3.86-7.78-5.52-11.62s-5.88-6.73-7.42-10.51c-1.65-4-1.49-8.66-3-12.5-1.58-4.1-4.68-7.49-6.12-11.34-1.18-3.17-2.14-6.79-3.73-10.51a11.67,11.67,0,0,1-.52-1.55H544.05c1.34,2.64,2.77,5.3,4,8.08,1.71,3.82,1.84,8.19,3.46,11.77,1.73,3.82,2.89,7.77,4.55,11.4,1.78,3.88,3.76,7.57,5.5,11.33s3.55,7.58,5.33,11.36,4.42,7.24,6.27,11.13c1.77,3.71,3.77,7.38,5.63,11.24s3.55,7.86,5.52,11.93c1.77,3.65,2,8.21,3.88,12.14,1.77,3.65,6.18,6.19,8.1,10.14,1.78,3.65,1.89,8.28,3.81,12.22,1.73,3.55,4.21,6.56,5.78,9.83,1.82,3.81,1.82,8.26,3.44,11.75,1.78,3.83,4.12,7.15,5.68,10.65,1.72,3.84,4,7.2,5.48,10.7,1.66,3.83,2.39,7.83,3.86,11.34,1.61,3.84,2.58,7.73,4,11.31,1.58,3.88,4,7.26,5.54,11s3.92,7.34,5.5,11.2c1.49,3.65,3.34,7.2,4.95,11,1.3,3.06,1.73,7.3,3.74,11.42,1.72,3.54,3.38,7.57,5.49,11.7,1.87,3.63,4.79,7,6.87,10.92,2,3.74,4.35,7.42,6.44,11.36,2,3.77,4.84,7.19,6.9,11s1.88,9.15,4,13.08,4.79,7.79,6.86,11.71c2.16,4.08,4.29,8,6.28,11.89,2.18,4.2,4.11,8.28,6,12.05,2.24,4.5,5.56,8,7.23,11.64a96,96,0,0,1,5.07,12.44c1.61,6,1.23,11.23,1.26,15.3.08,8.51-3.34,12.39-4.71,14.67-2.67,4.48-6.57,7.77-11.91,7.42-4.92-.34-10.31-3-14.5-5.14a49.4,49.4,0,0,1-9.33-7.05c-2.72-2.49-4.46-7-7.86-10.3-2.82-2.76-6-5.48-9.14-8.6-2.84-2.87-6.47-5.13-9.41-8.16s-6.88-5.15-9.79-8.17-5.9-6.16-8.7-9.1c-3.07-3.22-4.79-7.44-7.47-10.27-3.41-3.59-5.76-7.42-8.22-10s-6.57-4.07-9.27-7-5.58-6-8.45-9.2-5.7-6.19-8.54-9.43-3.9-7.83-6.65-11.13-5.49-6.42-8.11-9.72-5.85-6-8.29-9.34c-2.56-3.46-5.9-6.32-8.21-9.76-2.17-3.22-3.51-7.39-5.91-11.15-2.29-3.56-4.45-7.48-6.9-11.38-2.26-3.59-4.51-7.34-6.84-11.11s-3.93-8.28-6.34-12.21-4.82-7.7-7.16-11.56-6.69-6.34-9-10.06c-2.46-4.06-4.36-8.33-6.68-12.13-2.45-4-5.38-7.49-7.6-11.09a87.27,87.27,0,0,0-6.84-9.27,77.28,77.28,0,0,0-8.16-8.31c-3.06-2.8-5.22-6.47-8.57-8.58-3.58-2.26-7.12-4.7-10.94-6.07a47.8,47.8,0,0,0-12.12-2.59c-4.09-.32-8.13,1.36-12.25,2.3a42.91,42.91,0,0,0-11.49,4.63c-3.47,1.93-7.47,2.67-10.11,5-3.17,2.75-5.31,6.33-7.41,9.53-2.29,3.48-4.57,7.05-5.74,11s-.59,8-.81,12.09c-.22,3.91-1.1,8-.61,12.06a98.75,98.75,0,0,0,2.29,12.4c1,3.9,3.92,7.29,5.32,11.19s2.7,7.73,4.38,11.53,3.77,7.27,5.62,10.91c1.93,3.8,2,8.56,4,12.14,2.14,3.76,4.52,7.3,6.65,10.73,2.35,3.78,4.91,7.19,7.09,10.47,2.6,3.92,5.32,7.23,7.43,10.25a122.91,122.91,0,0,1,6.48,10.84c2.88,4.62,6,7.87,8.12,11,3.51,5.21,5.4,9.35,8.43,12.16.24.95,3.41,4,6.73,9.53,1.84,3.05,4.29,6.44,6.65,10.27,2,3.32,4.24,6.85,6.46,10.44s2.8,8.06,5,11.57c2.32,3.74,6.79,6,8.87,9.44,2.52,4.15,3.63,8.59,5.39,11.67S510.07,442,512,445c2,3.19,4.4,6.07,6.7,9.21,2.15,2.92,4.1,6.05,6.58,9s5.4,5.48,8.23,8.58c2.58,2.83,4.09,6.89,7.11,10,2.72,2.78,6.79,4.46,9.94,7.47,2.73,2.62,3.76,7.07,6.47,9.83s6.17,4.71,8.78,7.49c2.75,3,6.2,5.24,8.82,8.18s4.05,6.93,6.51,9.81c2.73,3.24,6.11,5.8,8.54,8.85,2.73,3.44,4.39,7.36,6.62,10.42,2.76,3.8,5.38,7,7.2,10,2.46,4,5.59,6.93,7.36,10.41,1.91,3.72,3.88,7.39,5.64,11.57,1.54,3.62,2.44,7.94,4.36,12.68,1.43,3.52,3.72,7.18,5.59,11.71,1.48,3.54.22,8.49,1.9,12.5s4.87,7.33,6.72,11.68c1.67,3.92,4.73,7.49,6.63,11.84,1.71,3.94,2.92,8.33,4.83,12.66,1.74,3.9,4.05,7.77,6,12,1.74,3.85,3.68,7.81,5.57,12,1.82,4,2.08,8.88,4.05,13.18,1.8,3.91,3.81,7.86,5.75,12s4.89,7.61,6.89,11.87c1.69,3.58,3.82,7,5.51,10.53s2.62,7.63,4.35,11.23c1.82,3.76,2.76,7.95,4.58,11.7s5,6.78,6.82,10.49c1.91,3.87,1.7,8.76,3.58,12.55s4.86,7.07,6.72,10.8,4.6,7,6.44,10.66c1.94,3.83,4.16,7.43,6,11.1,2,3.88,3.56,7.86,5.46,11.53,2,3.89,2.36,8.51,4.25,12.13,2.09,4,6.33,6.66,8.26,10.3,2.14,4,3.08,8.36,5,11.87,2.06,3.81,4.72,6.73,6.38,9.8,2.09,3.88,3.34,7.61,5.16,10.83,2,3.6,2.19,8.08,4.42,11.64,1.95,3.1,5.9,5.2,8.41,8.85,2.07,3,4.14,6.46,6.83,10.19,2.25,3.12,4.31,6.86,7.13,10.65,2.32,3.14,4.26,7,7,10.68,2.42,3.24,5.55,6.3,8.38,10,2.39,3.17,5.77,5.45,8.41,8.31s4.86,6.37,7.77,9c3.08,2.81,6.68,4.87,9.91,7.31s5.77,6,9.13,8.1c3.57,2.22,7.57,3.6,11.15,5.37,3.82,1.91,7.23,4.6,11,6,4,1.48,8.62.25,12.39,1.13,4.22,1,7.83,4.59,11.57,4.8,4.2.23,8.53-.81,12.77-1.07s8.87-.38,13.28-1,8.91-.84,13.3-1.63,8.66-2.11,13-2.86,8.63-2.09,13-2.63c4.56-.55,9.1-.79,13.64-.91s9.13-.75,13.63-.21A73.13,73.13,0,0,1,983,969.9l-.09.29c3.6,1.11,6.55,4.06,10.08,5.24,3.81,1.26,8.4.14,12.13,1.43,3.94,1.36,7.09,4.92,11,6.27s8.37,1,12.24,2.24,7.31,4,11.17,5.12,7.94,1.77,11.8,2.72c4.08,1,8,2.87,12.11,3.58s8.38,1.22,12.51,1.58a124.49,124.49,0,0,0,12.67.55,112.11,112.11,0,0,0,12.86-1.23,102.51,102.51,0,0,0,12.41-2.85,106.64,106.64,0,0,0,12.08-3.91c3.8-1.48,7.53-3.71,11.42-5.71,3.64-1.9,7.9-3.24,11.64-5.66,3.42-2.18,6.14-5.28,9.31-7.5,3.62-2.53,6.9-5.32,10.19-7.83,3.55-2.72,7-5.37,10.21-8.08s6.56-5.48,9.53-8.24c3.33-3.12,5.26-7.36,8.2-10.42,3.15-3.28,6.36-6.22,9.09-9.42,3-3.46,7-5.82,9.5-9.13,2.81-3.74,4.77-7.83,7.1-11.36,2.51-3.83,5.95-6.84,8-10.36,2.37-4.08,2.42-9.08,4.28-12.7,2.22-4.33,4.53-8.1,6.25-11.59,2.3-4.71,5.06-8.13,7-11s2.74-6.84,4.71-10.28c1.82-3.19,5.81-5.37,7.63-8.83s3.55-7.27,5.37-10.92,3.15-7.41,4.88-10.92c1.8-3.71,3.66-7.27,5.35-10.73,1.88-3.83,2-8.31,3.67-11.57,1.44-2.8,2.29-6.68,4-10.86,1.46-3.47,4.73-6.62,6.3-10.7,1.47-3.82,1.44-8.37,2.94-12.41,1.43-3.88,2.83-7.83,4.24-11.69s2.72-8,4.07-11.71c1.54-4.33,3.27-8.33,4.58-11.94,1.8-5,3.55-9.12,4.63-11.86a76.72,76.72,0,0,1,6.24-11.89c2.28-3.69,5.5-7.13,8.21-11.41,2.31-3.62,5.11-7.36,7.52-11.84,2.16-3.94,2.8-9,4.91-13.84,1.53-3.54,3.47-6.7,4.57-10.22s2.51-7.11,3.34-10.82c.87-3.88,2.38-7.68,3.09-11.73.66-3.81,1.49-7.7,2.17-11.75.61-3.76-.2-7.91.56-11.94.68-3.73,3.17-7.25,4-11.26s1.74-7.9,2.86-12.11,2.4-8.26,3.79-12.07c1.57-4.33,2.73-8.52,4.52-12.34,2-4.34,3-9,5.18-12.8,2.28-4,4.86-7.61,7.16-11.16,2.59-4,5.26-7.73,7.67-11.44,2.61-4,5.84-7.41,8-11.32,2-3.56,4.85-6.14,7-9.17,2.39-3.44,4.73-6.68,7-9.92s2.78-7.73,4.6-11.42c1.72-3.49,4-6.93,5-11.26.8-3.58-.66-7.65-.55-12.12s2.91-8.78,3.48-12.84c.67-4.73.07-9.42,1.2-13.7s4.51-8,6-12.27,1.53-9.19,3.19-13.7c1.51-4.1,4.38-7.91,5.88-12.47,1.31-4,3.15-7.82,4.5-11.78,1.47-4.36,2.74-8.74,4.19-13,1.54-4.49,1.11-9.58,2.58-13.86,1.57-4.57,4.51-8.52,6-12.76,1.62-4.73,3-9.32,4.34-13.53a86.69,86.69,0,0,0,3.09-10.24c.75-4-1-7.7-1.39-11.08a21.67,21.67,0,0,0-3.31-10.15c-1.91-2.91-4.86-4.76-8.39-7.36a45,45,0,0,0-10.73-6.06c-4.07-1.55-7.69-4-12-4.42s-8.61.22-13,.86c-4.19.61-8.09,2.5-12.35,3.91s-9.24,1-13.44,3c-3.93,1.9-6.89,5.84-10.79,8.22s-8.87,3-12.64,5.66-6.68,6.38-10.29,9.28c-3.07,2.48-5,6.24-7.89,9.11s-7.53,4.08-10.16,7.21-4.92,7.09-7.44,10.56-4,7.6-6.28,11.18-4.05,7.38-6.1,11c-2.15,3.77-4,7.58-5.88,11.25-2.08,4.07-4.09,7.93-5.84,11.72-2,4.2-4.4,7.85-5.93,11.51-1.92,4.57-4.25,8.35-5.47,11.68-1.57,4.2-1.87,8.24-3.05,11.46-1.8,4.92-2.27,9.17-3.53,12.42a80.56,80.56,0,0,1-5.67,11.94c-2,3.37-3.12,8.52-4.57,14s-3.62,11-4.56,15.13c-.55,2.46-3.94,5.63-6.45,10.09-1.86,3.29-4.08,6.84-6.43,10.47s-3.15,8.22-5.46,11.46c-3,4.21-7.38,6.55-9.4,9-2.28,2.71-4.17,7.89-8.41,11.1-3.77,2.83-8,5.73-11.82,8.09-5.61,3.44-11.43,3.69-13.53,4s-5.89,1.5-10.51.92c-3.44-.45-7.09-1.72-10.56-2.54a34.66,34.66,0,0,1-9.69-4.14c-1.67-1-5.07-3.78-9.55-8.08-2.74-2.63-6-5.59-9.24-9-3-3.19-7.37-5.57-10.55-9.13s-5-8.11-8-11.7c-3.11-3.81-6.59-7.18-9.17-10.81a85.22,85.22,0,0,1-7-12.22c-1.62-3.27-2.4-7.34-4-11.6-1.41-3.83-5-7.23-6.3-11.62-1.26-4.15-1.81-8.72-3-13.18-1.14-4.29-1.66-8.83-2.67-13.25s-3.77-8.68-4.69-13.15c-1-4.63-2.08-9.16-2.87-13.54-.87-4.78-.57-9.57-1.22-13.82-.84-5.4-.75-9.59-1.2-12.88-.84-6-.52-9.43-.72-13.7-.18-3.43-2.53-7.3-2.75-13.55-.13-3.72-.47-8.23-.73-13.94-.18-3.74,2.27-7.68,2.18-11.61s-2.31-7.7-2.33-11.62c0-4.08.12-8.19.14-12.28s1-8.12,1.11-12.11c.07-4.21.1-8.34.21-12.35.09-4.26,1-8.35,1.11-12.27.12-4.38-1.54-8.56-1.44-12.35.11-4.64.72-8.76.74-12.23,0-3.22-.34-7.28-.3-11.88,0-4,.16-8.31.2-12.91,0-4.28,1.29-8.76,1.29-13.3,0-4.35.08-8.78.07-13.12s-.08-8.89-.14-13.1c-.06-4.63-1.82-9-1.94-12.94-.17-5.43,1.81-10.21,1.47-13.61-.33-3.64-3.28-7.25-3.56-11.18s1.25-7.92,1-11.88c-.25-4.12.24-8.3,0-12.4s-2.57-8.07-2.72-12c-.16-4.38,2.2-8.69,2.1-12.67a67.42,67.42,0,0,0-.92-7.91H984.65S984.65,73.11,984.65,73.16ZM816.88,633.59c.44-1.49,1.23-2.81,1.76-4.21.53-1.22.87-2.55,1.49-3.76a16.09,16.09,0,0,1,1.83-3.08c1.59-2.11,2-2.45,6.06-5.43,3.77-2.9,4-3.06,10-4.48a31.13,31.13,0,0,1,8.16-1.06c3.07,0,8.33,0,10.87,1,.43.18,2.28.88,2.72,2a27.17,27.17,0,0,1,.08,2.88c0,.79-.35,4.93-.35,5.88V624c.08,1,.61,5.77.61,6.83,0,4.73-2.1,5-3.78,5-.43,0-2.88-.27-3.42-.27s-2.53.27-3.07.27l-1.66-.09h-.79a8.38,8.38,0,0,0-4.64,1.42,6.56,6.56,0,0,0-3,5.85,6,6,0,0,0,.35,2.11,14,14,0,0,0,1.67,3.51c1.66,2.11,6.22,2.54,7.09,2.54,1.14,0,4-.72,5.7-.79h.61c4,0,5.26,1.49,5.26,5.95,0,.71-.09,4-.09,4.84,0,1.58.09,3.06.17,4.64a19.13,19.13,0,0,1,.18,2.81,4.11,4.11,0,0,1-.7,2.72A7.25,7.25,0,0,1,855.8,674c-.61.07-3.5.17-4.21.25a29.24,29.24,0,0,1-4.64.27,32,32,0,0,1-4.82-.7c-1.67-.36-3.51-.36-5.26-.72a25,25,0,0,1-4.21-1.22,16.88,16.88,0,0,1-8-5.87c-.7-.88-1.41-1.84-2.1-2.72a16.89,16.89,0,0,0-1.49-1.92c-1.23-1.57-3.41-4.39-4.21-11.76-.09-.95-.17-2-.35-3a39.13,39.13,0,0,1-.52-4.91A49.3,49.3,0,0,1,816.88,633.59Zm47.21,137a12.68,12.68,0,0,1-.17,1.75v2.36c0,.88,0,1.76.08,2.63.09,1.4.27,2.72.27,4a17.66,17.66,0,0,1-.09,2c-.26,2.72-.35,5-.35,7.45,0,1.13.17,6.57.17,7.79V802c0,.79.27,4.74.27,5.63s-.35,4.64-.35,5.52c0,.61.43,3.94.43,4.73,0,3.87-2.28,5.35-4.47,5.35-.17,0-.88-.09-1.49-.09a10.84,10.84,0,0,0-1.49-.09,10.64,10.64,0,0,0-1.66.09c-.61,0-1.14.09-1.66.09-.27,0-1.23-.09-2.1-.18s-1.84-.09-2.2-.09c-.61,0-3.76.18-4.46.18-4,0-4.38-2.09-4.38-4.91,0-1,.17-1.84.17-2.81,0-.43-.35-2.72-.35-3.24,0-1,.08-2.45.08-3.33a5.18,5.18,0,0,0-.17-1.31c-.27-1.4-.7-2.63-2.1-3.15a28.2,28.2,0,0,0-3.94-.27,15.69,15.69,0,0,0-3.24.36c-.35.09-2,.16-2.37.25-1.75.45-1.93,2.45-1.93,2.9,0,.78.18,4.55.18,5.42,0,.43-.18,2.45-.18,3,0,.34.27,2,.27,2.44,0,1.23,0,4.74-4.3,4.74-.35,0-1.32-.09-2.28-.18s-2.1-.18-2.36-.18-2,.09-2.46.09-2.54-.09-3.06-.09c-.71,0-4.12.18-4.91.18-3.15,0-4.64-.88-5-3-.09-.61,0-3.78,0-4.47V814.4a15.12,15.12,0,0,1,.17-1.68,17.83,17.83,0,0,0,.09-2.09c0-1.15-.27-6.4-.27-7.54,0-.27.09-1.57.09-1.83v-.2c-.09-.52-.09-3.06-.09-3.58a8.12,8.12,0,0,1,.09-1.4,46.19,46.19,0,0,0,.26-4.82c0-.36-.09-3.08-.09-3.35V783.8c0-.34-.09-1.74-.09-2.1s.09-2.45.09-2.9.17-3.33.17-3.94a36.43,36.43,0,0,0-.17-3.94c-.09-1.24-.35-2.54-.35-3.78,0-.34.18-3,.26-3.15a3.56,3.56,0,0,1,3.24-3,12.25,12.25,0,0,1,1.49.18c.18,0,.79.11,1.93.11a15.62,15.62,0,0,0,2.89-.18,6,6,0,0,1,1.4-.18c.09,0,1.49.07,2.9.18s2.89.18,3.15.18.88-.11,1.58-.18,1.41-.11,1.66-.11a3.81,3.81,0,0,1,3.78,2.2,5.76,5.76,0,0,1,.35,2.54c0,.54-.52,3.06-.52,3.67s.26,2.9.26,3.53c0,.43-.08,2.45-.08,2.88a3.43,3.43,0,0,0,2.54,3.42c.44.07,5.62.43,5.88.43a13.11,13.11,0,0,0,3.33-.7,3.47,3.47,0,0,0,2.37-3.59c0-.62-.17-4-.17-4.74,0-.34.08-2.36.08-2.81,0-.25-.08-1.92-.08-2.27a5,5,0,0,1,1.14-3.42c.87-1,1.58-1,3.69-1,.35,0,2.28.25,2.71.25l2.55-.07c.34,0,1.93-.18,2.28-.18s2.54.25,3,.25,3.07-.25,3.68-.25c4.21,0,4.73,2.09,4.73,3.94,0,.52-.35,3.33-.35,3.94C864,769.26,864.09,770.31,864.09,770.57Zm.39-100.16c0-1.68.26-2.29,1.22-4.74.53-1.22,1.06-3.42,2.28-8.6a14.52,14.52,0,0,1,.79-2.7c.53-1.76,1.23-3.33,1.67-5.09.61-2.45.88-5.08,1.58-7.54.62-1.92,1.41-3.85,2.1-5.79.17-.61.44-1.31.62-2,.17-1,.44-2.09.69-3.15.27-.87,2.63-7,2.81-7.54a31.29,31.29,0,0,0,.78-3.06c.35-1,.7-2,1.05-3.06.52-1.4,1-2.81,2.36-3.78a7.67,7.67,0,0,1,4.82-1.22c.89,0,5.35.18,6.31.18,1.23,0,4.48-.1,5.62-.18.17,0,2.27-.18,2.45-.18.79,0,4.83.36,5.7.36.45,0,2.46-.1,2.89-.1a12.86,12.86,0,0,1,4.38.8,10.17,10.17,0,0,1,2.45,2.62,30.48,30.48,0,0,1,1.58,5,11.78,11.78,0,0,0,.44,1.66c.26,1.05.43,2.11.7,3.08.35,1.21,1.14,3.85,1.84,5.69a19.64,19.64,0,0,1,1.49,6.05c.26,2.27.53,3.06,1.66,7,.35,1.41.7,2.9,1.14,4.3.26,1,.52,1.84.79,2.63a13.63,13.63,0,0,1,.87,2.37c.27.88.7,2.11,1,3s.45,2,.71,3.06c.18.79.53,1.66.7,2.45.09.27.62,1.58.7,1.83s1,3.69,1,3.78a6.12,6.12,0,0,1,.18,1.32c0,3.06-1.49,4.64-4.12,5.18-.88.07-1.14.07-3.95.07-.79,0-4.64.27-5.52.27-.26,0-1.14-.09-1.93-.18s-1.67-.09-2-.09-1.58.09-1.84.09c-3.07,0-3.42-.61-4.56-3.06-1.67-3.6-2.36-4.39-4.74-4.39-.44,0-2.71.36-3.24.36a7.25,7.25,0,0,1-1.4.09c-.88,0-4.91-.36-5.88-.36a4.91,4.91,0,0,0-3.95,1.66c-.26.43-1.31,2.9-1.58,3.42a3.68,3.68,0,0,1-3.59,2.19c-.7,0-3.86-.18-4.56-.18s-3.77.1-4.47.1c-.35,0-2.19-.1-2.53-.1s-2.64.18-3.07.18C868.25,674.08,864.48,674,864.48,670.41Zm67.71,152.48a32.84,32.84,0,0,1-3.94.09c-.78,0-4.65.27-5.52.27-.26,0-1.14-.09-1.92-.18s-1.66-.09-2-.09-1.57.09-1.83.09c-3.07,0-3.42-.61-4.56-3.06-1.67-3.6-2.37-4.39-4.73-4.39-.44,0-2.71.34-3.25.34a6,6,0,0,1-1.4.11c-.88,0-4.91-.36-5.88-.36a4.9,4.9,0,0,0-3.95,1.66c-.26.45-1.32,2.9-1.57,3.42A3.72,3.72,0,0,1,888,823c-.7,0-3.86-.16-4.56-.16s-3.77.07-4.47.07l-2.54-.07c-.45,0-2.64.16-3.08.16-.61,0-4.37-.09-4.37-3.67,0-1.66.26-2.27,1.22-4.73.53-1.24,1.05-3.42,2.28-8.6a14,14,0,0,1,.79-2.72c.52-1.76,1.23-3.33,1.67-5.08.61-2.46.88-5.09,1.58-7.54.61-1.93,1.4-3.85,2.1-5.79.17-.61.43-1.33.61-2,.18-1.06.44-2.11.71-3.17.26-.88,2.63-7,2.81-7.54a31.23,31.23,0,0,0,.79-3.06c.35-1,.7-2,1.05-3.06.53-1.42,1-2.81,2.37-3.78a7.55,7.55,0,0,1,4.82-1.24c.88,0,5.34.18,6.31.18,1.22,0,4.47-.07,5.61-.18.17,0,2.28-.16,2.46-.16.78,0,4.82.34,5.69.34.43,0,2.46-.07,2.9-.07a12.89,12.89,0,0,1,4.38.78,9.75,9.75,0,0,1,2.45,2.64,29.71,29.71,0,0,1,1.58,5,13.25,13.25,0,0,0,.44,1.66c.27,1,.45,2.1.71,3.06.35,1.22,1.14,3.85,1.84,5.69a19.92,19.92,0,0,1,1.49,6,35.66,35.66,0,0,0,1.66,7c.35,1.39.71,2.9,1.14,4.3.27,1,.53,1.84.79,2.63a13,13,0,0,1,.88,2.37c.26.88.71,2.11,1,3s.43,2,.71,3.08c.17.79.52,1.67.69,2.45.09.25.62,1.58.7,1.85s1,3.67,1,3.76a6.91,6.91,0,0,1,.17,1.31C936.32,820.8,934.82,822.37,932.19,822.89Zm3.09-84a9.57,9.57,0,0,0-1.85-.45c-1.23,0-1.84,1.31-1.84,2.45a22.29,22.29,0,0,0,.17,2.37,10.34,10.34,0,0,1,.44,1.41,2.55,2.55,0,0,1,.09.88c0,2.27-1.14,3.67-3.59,3.67-.53,0-2.72-.18-3.25-.18-.7,0-4,.18-4.73.18a9.54,9.54,0,0,1-1.66-.09c-.53,0-2.81-.34-3.34-.34s-3.68.34-4.47.34c-3.16,0-4.12-2-4.12-4a11.68,11.68,0,0,1,.17-1.76,30,30,0,0,0,.35-4.12c0-1.13,0-4.73-.09-5.78-.09-.27-.35-2.9-.35-2.9,0-1.21.26-2.45.35-3.58,0-.45-.09-2.36-.09-2.81,0-.7.35-3.94.35-4.73v-9.21c0-.18-.09-1.31-.09-1.67v-1.66c0-.79-.34-4.73-.44-5.6v-4.3c0-.63-.08-3.15-.08-3.78a7.32,7.32,0,0,1,.61-3.15c1-2.11,3.15-2.88,5.6-3a13.36,13.36,0,0,0,2.28-.18c.61-.09,3.34,0,3.94,0,.43,0,2.46.18,3,.18.27,0,1.76.09,2.11.09,1.05,0,6.49-.36,6.83-.36,1.84,0,3.69.36,5.52.45.61,0,3.68-.09,4.3-.09a33,33,0,0,1,7.54,1,18.07,18.07,0,0,1,4.64,1.49,16.48,16.48,0,0,1,4.56,3.08,7.52,7.52,0,0,1,2.1,2.37,10.57,10.57,0,0,1,1,1.33c.35.52.62,1.13,1,1.74.27.45.62.88.88,1.33a22,22,0,0,1,1.32,2.45,21,21,0,0,1,1.57,6.93,13.28,13.28,0,0,1-.43,3c-.78,4.12-.88,4.55-2.19,7.11-2.36,4.19-3.59,5.42-8.15,7.34-.62.27-1.49.63-1.49,1.69a1.58,1.58,0,0,0,1.22,1.31,11.75,11.75,0,0,0,2.54.52c.26,0,1.83-.07,2.28-.16s2-.27,2.45-.27c1.32,0,4.47,0,4.47,4.64,0,.7-.35,4.21-.35,5,0,1.59.27,3.26.27,4.9,0,4.73-2.36,5.27-4.12,5.27-.27,0-1.66-.09-1.93-.09-1.32,0-2.63.09-3.86.09a35.51,35.51,0,0,1-6-.43c-2.54-.7-6.49-3.42-8.68-5-.79-.54-1.66-1.06-2.45-1.66Zm63.8,84.22c-.62,0-3.42-.36-4-.36-.43,0-3,.11-4.82.27a9.48,9.48,0,0,1-1.84.18c-4.82,0-5.26-.52-6.31-1.76-.34-.45-.87-.88-1.22-1.31a27.53,27.53,0,0,1-3.33-3.85c-.87-1.23-1.59-2.56-2.46-3.78-.52-.7-3.25-4-3.77-4.82-.26-.36-.44-.81-.71-1.15-.34-.52-.79-1.05-1.14-1.49a12.5,12.5,0,0,0-1-1.49,2,2,0,0,0-1.48-1.06c-1.59,0-1.59,1.85-1.59,3,0,.36.09,2.47.09,3,0,1-.09,5.61-.09,6.66V816c0,.45.35,2.72.35,3.26a12.66,12.66,0,0,1-.18,1.57,3.32,3.32,0,0,1-3.33,2.19c-.44,0-2.54-.27-3.06-.27s-3.34.18-3.95.18-4.3-.18-5.17-.18c-.71,0-4.21.27-5,.27-1.58,0-4-.95-4-4.37a19.42,19.42,0,0,1,.18-2.36c0-1.05,0-2,.08-3.08.09-1.48.35-2.9.44-4.39a17.57,17.57,0,0,0,.09-2.18c0-1-.17-5.7-.17-6.84,0-.88-.09-5.52-.09-6.57,0-1.67.26-10,.44-12.63.08-1.84.26-3.69.26-5.51a25.14,25.14,0,0,0-.61-5.62,23.67,23.67,0,0,1-.26-3.31,9.42,9.42,0,0,1,1-4c.87-1.21,1.92-1.31,4.46-1.31h1.66c.35,0,.7.09,1,.09h.7c1.66,0,5.62,0,7.11-.09,1.14-.09,2.28-.18,3.33-.18,2.2,0,3.68.18,5.43,2.36a58.06,58.06,0,0,1,3.16,5.08,21.31,21.31,0,0,0,1.4,2.2,12.63,12.63,0,0,1,2,3.06,12.34,12.34,0,0,0,1.22,2.27,6.8,6.8,0,0,1,1,1.21,13.91,13.91,0,0,1,.88,1.32c1.32,1.76,1.67,2.27,2.81,2.27A1.31,1.31,0,0,0,979.7,779c0-.09-.17-3.15-.17-3.76v-4c0-1,0-1.93-.09-3,0-.43-.18-2.54-.18-3.06a3.79,3.79,0,0,1,1.14-2.82c1-1.33,2.1-1.57,4.29-1.57.62,0,3.6.09,3.68.09l2.72.16c1.76,0,3.59-.25,5.34-.25a16,16,0,0,1,4.47.7c2.63,1.15,2.63,4.3,2.63,5.18,0,0-.09,3.42-.09,3.78-.08.79-.44,4.28-.44,5.16s.18,5.69.18,6.75a57.46,57.46,0,0,1-.18,5.78c-.17,3.06-.26,3.33-.26,4.2,0,1.24.53,7.45.53,8.87,0,1.76-.09,10.51-.09,12.45a22,22,0,0,0,.09,2.45c.08,1,.34,1.92.34,3C1003.63,821.92,1001.53,823.07,999.08,823.07Zm74.42-24.19a33.36,33.36,0,0,1-1.39,4.57c-1.58,4.55-1.66,4.63-4.48,7.79a20.28,20.28,0,0,1-1.93,2.38,14.43,14.43,0,0,1-2.88,2.27c-.7.43-4.47,2.19-5.35,2.54a41.69,41.69,0,0,1-3.85,1.93c-2.37.95-4.12,1.22-8,1.74-5.87.79-6.49.88-8.67.88-1.31,0-7.8-.34-9.3-.34-1.14,0-6.66.43-8,.43-2.29,0-4.74-.43-6-2.37-.78-1.13-.78-1.76-.78-3.94a18.36,18.36,0,0,1,.25-3.08,26,26,0,0,0,.28-3.42c0-1.31-.18-2.71-.18-4,0-.7.08-4,.08-4.82,0-1.31-.18-2.88-.25-4.37-.27-2.81-.36-5.62-.36-8.42s.09-4.84.18-6.05c.18-2.29.18-2.54.18-3.26s0-3.85-.09-4.55c0-1-.27-6.3-.27-7.54,0-2.63.61-6.23,5.44-6.23.71,0,4,.28,4.74.28a13.81,13.81,0,0,0,2.81-.28,36,36,0,0,1,3.86-.16c2.46,0,4.91.16,7.36.27h4.46a36.92,36.92,0,0,1,9.65,1.56c.27.1,3.86,1.68,4.12,1.86,1,.43,1.76,1,2.72,1.58s1.75.88,2.63,1.31a17.36,17.36,0,0,1,7.18,6.23c.36.52.62,1,1,1.57.61.86,1.32,1.58,2,2.45,2.9,3.85,3.52,10.25,3.52,12.7A59.88,59.88,0,0,1,1073.5,798.87Zm-.78-52.5c-2.37,1-4.12,1.24-8,1.76-5.87.81-6.49.88-8.67.88-1.31,0-7.8-.36-9.3-.36-1.14,0-6.66.45-8,.45-2.29,0-4.74-.45-6-2.37-.79-1.15-.79-1.76-.79-3.94a18.28,18.28,0,0,1,.25-3.08,26,26,0,0,0,.28-3.4c0-1.33-.18-2.72-.18-4,0-.7.08-4,.08-4.82,0-1.31-.18-2.88-.25-4.39-.27-2.79-.36-5.61-.36-8.42s.09-4.82.18-6c.18-2.27.18-2.54.18-3.24s0-3.87-.09-4.57c0-1.06-.27-6.3-.27-7.54,0-2.63.61-6.21,5.44-6.21.71,0,4,.27,4.74.27a14.72,14.72,0,0,0,2.81-.27,30.35,30.35,0,0,1,3.86-.18c2.45,0,4.91.18,7.36.27h4.46a37.76,37.76,0,0,1,9.65,1.56c.27.1,3.86,1.68,4.12,1.86,1,.43,1.76,1,2.72,1.56s1.76.89,2.63,1.33a17.49,17.49,0,0,1,7.18,6.23c.36.52.61,1,1,1.57.6.88,1.32,1.58,2,2.45,2.9,3.85,3.52,10.27,3.52,12.7a59.88,59.88,0,0,1-.71,8.5,32.71,32.71,0,0,1-1.39,4.57c-1.58,4.55-1.67,4.64-4.48,7.81a23.55,23.55,0,0,1-1.93,2.36,13.24,13.24,0,0,1-2.88,2.27c-.7.43-4.47,2.19-5.35,2.54A37.52,37.52,0,0,1,1072.72,746.37Zm51.37,76.7c-.79,0-4.74-.25-5.61-.25-.52,0-1.67.07-3.33.25a47,47,0,0,1-4.73.27c-.53,0-2-.09-3.51-.18a68,68,0,0,0-11,.09c-.34,0-1.58-.09-2.8-.09a24.72,24.72,0,0,0-5.69.09c-1.49.09-2.46.18-3,.18-4.21,0-4.29-2.48-4.29-4.3,0-.63.26-3.24.26-3.87.09-1.39.18-8.31.26-9.81.09-.79.35-4.55.35-5.43a39.29,39.29,0,0,0-.26-4.57,26.15,26.15,0,0,1-.17-4.19s-.09-1.84-.09-1.93a10.86,10.86,0,0,1-.09-2c0-.79-.26-4.64-.26-5.52,0-1.76.26-3.51.35-5.35a24,24,0,0,0,.09-2.54c0-1.4-.09-2.88-.18-4.3-.09-.86-.18-1.75-.18-2.61,0-4.84,2.63-5.87,5.61-5.87.54,0,3.08.25,3.6.25,1.5,0,3.85-.07,5.35-.07.71,0,4.21-.18,5-.18a15.73,15.73,0,0,1,1.76.07,3,3,0,0,0,1,.18,2.53,2.53,0,0,0,.61-.07h.52a9.85,9.85,0,0,1,1.22.07c.53,0,1.06.09,1.23.09a4.57,4.57,0,0,0,1-.09h1a5.23,5.23,0,0,1,1,.09c.44,0,.88.09,1.06.09a9.47,9.47,0,0,0,1.22-.09c.17-.09,4.29-.34,4.46-.34.36,0,1.93.07,2.28.07h2c.26,0,1.58.11,1.84.11a7.3,7.3,0,0,1,2.45.25c2.1,1.13,2.1,4.39,2.1,5.26,0,1-.08,2.19-.08,3.24,0,.7.35,4.12.35,4.9a6.29,6.29,0,0,1-.71,3.24,2.31,2.31,0,0,1-2.45,1.49c-.36,0-1.93-.07-2.37-.07s-2.81.07-3.33.07-3.59-.36-4.21-.36-3.15.29-3.77.29c-.44,0-2.46-.18-2.89-.18-1.4,0-3.33,0-3.33,2,0,2.55,1.76,2.55,6.13,2.55.53,0,2.71-.27,3.25-.27.25,0,1.66.09,2,.09h1.83c.62,0,3.69-.27,4.39-.27,3.33,0,4.37.45,4.73,3.87a26.85,26.85,0,0,1,0,2.72c0,.79.36,4.64.36,5.51,0,3.15-1.4,3.51-2.63,3.69-.36.07-1.76,0-2.1,0a6.21,6.21,0,0,0-1.41.18l-8.32.16c-.61,0-3.33-.16-3.94-.16-.79,0-3.42,0-3.42,1.92,0,2.72,3.33,2.72,5.35,2.72.53,0,1.32-.09,3-.27a22.79,22.79,0,0,1,3.77-.16c.44,0,2.71-.11,3.24-.11a23.71,23.71,0,0,0,4,0c2.18,0,2.71.54,3.15,1.06a5.84,5.84,0,0,1,1.58,4.47c0,.45-.09,2.46-.09,2.9,0,.68.18,4,.18,4.82C1128.64,821.58,1127.77,823.07,1124.08,823.07Zm67.78-49.42c.36.52.61,1,1,1.57.61.86,1.32,1.58,2,2.45,2.9,3.85,3.52,10.25,3.52,12.7a59.9,59.9,0,0,1-.71,8.5,33.38,33.38,0,0,1-1.39,4.57c-1.58,4.55-1.67,4.63-4.48,7.79a20.31,20.31,0,0,1-1.94,2.38,14.42,14.42,0,0,1-2.88,2.27c-.7.43-4.46,2.19-5.34,2.54a43.13,43.13,0,0,1-3.86,1.93c-2.37.95-4.12,1.22-8,1.74-5.88.79-6.5.88-8.68.88-1.31,0-7.8-.34-9.29-.34-1.14,0-6.67.43-8,.43-2.29,0-4.74-.43-6-2.37-.79-1.13-.79-1.76-.79-3.94a18,18,0,0,1,.25-3.08,26,26,0,0,0,.28-3.42c0-1.31-.18-2.71-.18-4,0-.7.08-4,.08-4.82,0-1.31-.18-2.88-.25-4.37-.27-2.81-.36-5.62-.36-8.42s.09-4.84.18-6.05c.18-2.29.18-2.54.18-3.26s0-3.85-.09-4.55c0-1-.27-6.3-.27-7.54,0-2.63.61-6.23,5.43-6.23.72,0,4,.28,4.75.28a13.74,13.74,0,0,0,2.8-.28,36.3,36.3,0,0,1,3.86-.16c2.45,0,4.91.16,7.36.27h4.47a36.93,36.93,0,0,1,9.64,1.56c.27.1,3.86,1.68,4.12,1.86,1,.43,1.76,1,2.72,1.58s1.76.88,2.63,1.31A17.36,17.36,0,0,1,1191.86,773.65Zm-55.93-160.22c.7-1,1.4-1.39,3.49-1.39.79,0,1.67.09,2.46.09,1.41.07,1.67.07,3.68.25,1,.09,2.9.09,3.33.09,1,0,2,0,3.07-.09,2.71-.18,3-.18,3.86-.18,1.67,0,3.42.1,5.17.18s6.31.09,8.34.09h.87c1.31,0,2.63-.16,3.95-.27.79-.07,1.67-.07,2.46-.07,3.5,0,7.1,0,7.1,5,0,.52-.09,1.05-.09,1.58-.08.7-.17,1.39-.26,2.1v1.66c0,.27,0,2.29.09,3.33,0,.45.17,2.38.17,2.81,0,2.54-1,3.78-3.34,3.78-.52,0-2.88-.27-3.49-.27-5.35,0-6,2.88-6,5.85v3.17c0,.36.17,1.83.17,2.19,0,1.5-.08,3-.17,4.47,0,.52-.27,3.15-.27,3.76,0,.44.09,2.27.09,2.63v9a21.81,21.81,0,0,0,.18,2.53,31.31,31.31,0,0,1,.52,3.78,4.49,4.49,0,0,1-1.58,3.6c-.79.68-1.48,1.22-7.18,1.22-.36,0-1.66-.09-3-.18s-2.54-.07-3.07-.07c-.7,0-3.94.16-4.73.16a7,7,0,0,1-4.47-1.92,7.17,7.17,0,0,1-.7-3.17s.18-1.92.25-2.88a29.58,29.58,0,0,0,.1-3c0-1.15-.26-6.73-.26-8.06,0-1.15.44-6.57.44-7.88,0-.89-.18-5.53-.18-6.57,0-.54.08-3.08.08-3.6,0-1.59-.25-4.3-2.53-4.57a11.39,11.39,0,0,0-1.68-.09c-.61-.07-1.21-.25-1.82-.34a25.35,25.35,0,0,1-2.72-.18c-3-.62-3.33-2.72-3.24-4.83v-2.53c0-.45.16-2.54.16-3,0-.7-.34-4.21-.34-5A4.57,4.57,0,0,1,1135.93,613.42Zm-65.73,1.67a3.53,3.53,0,0,1,3.24-3,7.5,7.5,0,0,1,1.48.18c.18,0,.79.07,1.93.07a15.75,15.75,0,0,0,2.89-.18,6.55,6.55,0,0,1,1.39-.16l2.89.16c1.41.11,2.89.18,3.16.18a13.57,13.57,0,0,0,1.57-.18c.7,0,1.41-.07,1.67-.07a3.8,3.8,0,0,1,3.77,2.18,6,6,0,0,1,.34,2.54c0,.52-.52,3.06-.52,3.69s.27,2.88.27,3.49c0,.45-.09,2.46-.09,2.9a3.44,3.44,0,0,0,2.54,3.42c.44.09,5.6.43,5.87.43a12.28,12.28,0,0,0,3.33-.7,3.47,3.47,0,0,0,2.37-3.6c0-.61-.18-3.94-.18-4.73,0-.34.09-2.36.09-2.79,0-.27-.09-1.93-.09-2.29a5,5,0,0,1,1.15-3.42c.88-.95,1.58-1.06,3.68-1.06.35,0,2.28.27,2.71.27l2.54-.09c.36,0,1.93-.18,2.27-.18s2.55.27,3,.27,3.06-.27,3.68-.27c4.21,0,4.74,2.11,4.74,4,0,.52-.36,3.33-.36,3.94,0,.27.09,1.32.09,1.58a11.83,11.83,0,0,1-.18,1.76v2.36c0,.88,0,1.76.09,2.63.09,1.42.27,2.72.27,4a17.66,17.66,0,0,1-.09,2,73,73,0,0,0-.35,7.45c0,1.15.17,6.57.17,7.81v3.42c0,.79.27,4.73.27,5.61s-.36,4.64-.36,5.52c0,.61.45,3.94.45,4.74,0,3.85-2.28,5.34-4.48,5.34-.17,0-.87-.09-1.49-.09a10.93,10.93,0,0,0-1.49-.09,10.66,10.66,0,0,0-1.67.09c-.61,0-1.14.09-1.67.09-.25,0-1.22-.09-2.09-.18s-1.83-.09-2.19-.09c-.61,0-3.78.18-4.47.18-4,0-4.38-2.11-4.38-4.91,0-1,.17-1.84.17-2.81,0-.43-.35-2.71-.35-3.24,0-.95.09-2.45.09-3.33a5.07,5.07,0,0,0-.18-1.31c-.26-1.41-.71-2.63-2.1-3.15a28.13,28.13,0,0,0-3.94-.27,15.69,15.69,0,0,0-3.24.36c-.35.09-2,.16-2.37.25-1.75.43-1.93,2.45-1.93,2.9,0,.79.18,4.55.18,5.42,0,.45-.18,2.45-.18,3,0,.34.26,2,.26,2.45,0,1.22,0,4.73-4.29,4.73-.36,0-1.32-.09-2.28-.18s-2.1-.16-2.36-.16-2,.07-2.45.07-2.55-.07-3.07-.07c-.7,0-4.12.16-4.91.16-3.15,0-4.64-.87-5-3-.09-.61,0-3.78,0-4.48v-1.24a12.68,12.68,0,0,1,.18-1.65c.08-.79.08-1.59.08-2.11,0-1.13-.26-6.39-.26-7.54,0-.25.09-1.58.09-1.83v-.18c-.09-.54-.09-3.08-.09-3.6a8.88,8.88,0,0,1,.09-1.42,46.78,46.78,0,0,0,.26-4.81c0-.34-.09-3.06-.09-3.31V634.9c0-.34-.08-1.74-.08-2.09s.08-2.46.08-2.9.17-3.33.17-3.94a37.27,37.27,0,0,0-.17-3.94c-.08-1.24-.35-2.55-.35-3.78C1069.92,617.9,1070.1,615.27,1070.19,615.09Zm-67.9,28.14c.1-1.22.35-2.45.53-3.67s.17-2.54.26-3.78.45-2.36.7-3.51a17.43,17.43,0,0,1,4.3-8.31c.79-.89,1.66-1.68,2.45-2.54s1.41-1.6,2.2-2.38a14.34,14.34,0,0,1,5.09-3.42,55.42,55.42,0,0,1,10.42-3.06,85.58,85.58,0,0,1,10.17-.7c.79,0,4.73.09,5.62.09h6c5.44,0,6.93,1.05,7.9,2.71.7,1.23.7,1.5.7,5.78,0,.54-.18,2.82-.18,3.35,0,.79.27,4.55.27,5.42,0,1.31,0,4.39-4.57,4.39-1.05,0-3.06,0-4-.09-1.32-.09-2.55-.27-3.78-.27-.52,0-3.24.09-3.76.09-.7,0-4.12-.25-4.91-.25-2.45,0-3.51.61-5.45,1.76-2.18,1.22-5.42,3.06-5.42,9.27,0,2.46.7,3.78,2.36,6,2.63,3.24,5.35,3.6,8.06,3.6,1.33,0,3.08-.45,3.08-1.93a1.43,1.43,0,0,0-1.59-1.33c-.26,0-1.39.11-1.66.11s-2.8-.18-2.8-2.36c0-.54.27-3,.27-3.53s-.09-3-.09-3.49c0-3.85,2.62-3.85,3.59-3.85.79,0,4.56.34,5.35.34.52,0,1.05-.09,1.58-.09,0,0,1.58.18,1.75.18.53,0,2.64.09,2.72.09.7,0,4.3-.18,5.09-.18,3.24,0,3.76.61,4.64,1.49,1.06,1.23,1.67,1.93,1.67,5.26,0,1-.27,5.61-.27,6.66s.18,6.93.18,8.15c0,.79-.08,4.3-.08,5.09v2.9a10.22,10.22,0,0,1-.88,4.73c-1.13,2-2.88,2.36-4.73,2.36-.35,0-1.58-.09-2.8-.18s-2.46-.07-2.89-.07c-.79,0-4.39.25-5.27.25-.35,0-1.39-.09-2.45-.09s-2-.09-2.45-.09a11.91,11.91,0,0,0-1.58.09c-.61,0-1.32.09-1.58.09a3.38,3.38,0,0,1-.78-.09H1032a41,41,0,0,1-8.5-1.31,19.72,19.72,0,0,1-8-4.14c-.62-.43-3.34-2.45-3.77-2.79a39.56,39.56,0,0,1-6-8.15c-.28-.61-.53-1.31-.79-2s-.79-1.49-1.14-2.27a24.89,24.89,0,0,1-1.58-9.29Zm-4.34,44.09h.53a10,10,0,0,1,1.23.07c.53,0,1.05.09,1.22.09a4.52,4.52,0,0,0,1-.09h1a5.26,5.26,0,0,1,1.05.09c.44,0,.88.09,1,.09a9.47,9.47,0,0,0,1.23-.09c.17-.09,4.29-.34,4.47-.34.35,0,1.92.09,2.28.09h2c.27,0,1.59.09,1.84.09a7.38,7.38,0,0,1,2.46.25c2.1,1.13,2.1,4.39,2.1,5.26,0,1-.09,2.19-.09,3.24,0,.7.35,4.12.35,4.91a6.36,6.36,0,0,1-.7,3.24,2.31,2.31,0,0,1-2.45,1.49c-.35,0-1.92-.07-2.37-.07s-2.8.07-3.33.07-3.59-.34-4.2-.34-3.16.27-3.77.27c-.44,0-2.45-.18-2.89-.18-1.4,0-3.33,0-3.33,2,0,2.54,1.75,2.54,6.13,2.54.53,0,2.71-.27,3.24-.27.26,0,1.66.09,2,.09h1.84c.62,0,3.69-.25,4.39-.25,3.33,0,4.39.43,4.74,3.85.08.36,0,2.27,0,2.72,0,.79.35,4.64.35,5.52,0,3.15-1.4,3.51-2.63,3.67a13.82,13.82,0,0,1-2.09,0,7.45,7.45,0,0,0-1.41.2l-8.33.16c-.61,0-3.33-.16-3.95-.16-.79,0-3.42,0-3.42,1.92,0,2.72,3.33,2.72,5.35,2.72.52,0,1.31-.09,3-.27a22.85,22.85,0,0,1,3.77-.16c.43,0,2.71-.09,3.24-.09a28.21,28.21,0,0,0,3.94,0c2.19,0,2.72.52,3.16,1a5.84,5.84,0,0,1,1.57,4.47c0,.45-.08,2.46-.08,2.9,0,.68.18,4,.18,4.82,0,4.73-.87,6.21-4.56,6.21-.79,0-4.73-.27-5.62-.27-.52,0-1.66.11-3.32.27a47.1,47.1,0,0,1-4.74.27c-.52,0-2-.09-3.5-.18-3.59-.36-5.78-.18-11,.09-.36,0-1.58-.09-2.81-.09a24.74,24.74,0,0,0-5.69.09c-1.49.09-2.45.18-3,.18-4.21,0-4.3-2.47-4.3-4.3,0-.61.27-3.24.27-3.85.08-1.41.17-8.33.26-9.83.09-.79.35-4.55.35-5.43a40.42,40.42,0,0,0-.26-4.57,24.84,24.84,0,0,1-.18-4.19s-.09-1.86-.09-1.93a12.16,12.16,0,0,1-.08-2c0-.79-.27-4.64-.27-5.52,0-1.76.27-3.51.35-5.35a24,24,0,0,0,.09-2.54c0-1.4-.09-2.88-.17-4.28a25.56,25.56,0,0,1-.18-2.63c0-4.84,2.63-5.87,5.61-5.87.52,0,3.06.25,3.59.25,1.49,0,3.86-.07,5.35-.07.7,0,4.21-.18,5-.18a12.43,12.43,0,0,1,1.76.09,3.51,3.51,0,0,0,1,.16A2.48,2.48,0,0,0,997.95,687.31ZM991.52,612a11.89,11.89,0,0,1,3,.43,7.79,7.79,0,0,1,1.66,1.32c.79,1,1,3.94,1,5.18,0,.79-.08,1.58-.08,2.45,0,.25.08,1.65.08,2s0,2.63-.08,3.06c-.1,1-.27,1.93-.35,2.9,0,.44-.44,4.12-.44,4.65s.08,1.13.17,2.71c.09,1.4.18,2.72.18,4.12,0,2.09-.18,4.2-.18,6.41,0,.34.09,2.19.09,2.61,0,.18-.09,5.27-1.14,8.15-.26.72-.53,1.33-.79,2a14.65,14.65,0,0,1-.61,2c-.44.89-1.05,1.77-1.58,2.63a23.75,23.75,0,0,1-1.41,2.65,12.46,12.46,0,0,1-3.59,3.67c-.34.27-.79.52-1.22.79s-1.05.78-1.57,1.13a22.64,22.64,0,0,1-9.38,2.38c-.35,0-2.45-.09-3-.09a7.55,7.55,0,0,0-1.4.09l-2.1.25h-1.06c-.35,0-1.57-.07-2.81-.18s-2.45-.16-2.89-.16-2.36.16-2.8.16c-.27,0-1.59-.16-1.93-.16a27.73,27.73,0,0,1-7-1.76,9.68,9.68,0,0,1-2.46-1.58c-.53-.36-3.5-2.1-4.12-2.45a16.26,16.26,0,0,1-5.17-5.43c-.26-.45-.44-.88-.7-1.33-.45-.79-1-1.48-1.32-2.2-.09-.16-1.31-3.85-1.4-4.37a6.77,6.77,0,0,1-.09-1.67c0-.62-.09-3.87-.09-4.57s.18-4.47.18-5.34c0-.61-.18-3.85-.18-4.57s.09-1.49.09-2.18c0-.27-.09-1.58-.09-1.93,0-.61.18-4,.18-4.82,0-1-.27-5.78-.27-6.93,0-.79.27-4.55.27-5.34,0-.45-.18-2.2-.18-2.54a6.87,6.87,0,0,1,.7-2.63c.88-1.49,2.46-1.49,3.86-1.49.53,0,2.81.18,3.34.18,1,0,5.52-.18,6.57-.18.36,0,2.2.07,2.64.07h1.93c2.1,0,5.43.18,5.43,5,0,.34-.34,2.37-.34,2.8a6.32,6.32,0,0,0-.09,1.33c0,.77.35,4.39.35,5.16,0,.45-.26,2.47-.26,3s-.09,3-.09,3.6a10.25,10.25,0,0,1-.08,1.58c-.09,1.58-.53,3.15-.53,4.73,0,.09.18,2.11.18,2.19.08.79,0,4.39,0,5.26a5.65,5.65,0,0,0,.78,3.33,9.49,9.49,0,0,0,1.22,1.66,12.33,12.33,0,0,0,3,1.33c.61.07,1.22,0,1.84.07.17,0,1.4.18,1.66.18a3.34,3.34,0,0,0,1.32-.18c.89-.18,1-.25,2.28-1.31,1.75-1.22,2.1-1.58,2.1-4.12.1-.52,0-3,0-3.51s.36-3,.36-3.58c0-.88-.26-1.84-.26-2.81,0-.36.26-2.2.26-2.54,0-.88-.61-5-.61-6,0-1.85.35-3.76.35-5.61,0-.36-.1-2.27-.1-2.72s.1-1.93.1-2.27-.35-2.63-.35-3.17a3,3,0,0,1,1.83-3.06,11.3,11.3,0,0,1,2.9-.52c.79,0,1.58.16,2.36.16h2.81c.26,0,.44.1.61.1h5.43C989.41,612.19,990.46,612,991.52,612Z" transform="translate(-400.34 -73.01)"/><path class="cls-1" d="M1042.56,784.25c-.77-.09-2.09-.36-2.88-.36a3.14,3.14,0,0,0-2.2,1.15c-.88,1.31-.88,4.3-.88,4.73s.18,3.08.26,3.6-.08,2.45-.08,2.9a7.38,7.38,0,0,0,.35,2.53,3,3,0,0,0,2.45,1.5c.09,0,2.27-.45,2.72-.54,1.49-.36,3.15-.36,4.55-1a7.5,7.5,0,0,0,1.66-1.33c1.59-1.66,1.94-3.15,1.94-5.78a6.81,6.81,0,0,0-1.41-4.39C1047.48,784.86,1044.58,784.5,1042.56,784.25Z" transform="translate(-400.34 -73.01)"/><path class="cls-1" d="M895.24,647a16,16,0,0,0,2.89.09c.26,0,1.75.07,2.1.07,1.67,0,2.37-.61,2.37-1.83a4.3,4.3,0,0,0-.17-1.05c-.17-.79-.35-1.58-.52-2.27-.17-1-.35-1.85-.53-2.82-.18-.61-.44-1.13-.61-1.76-.35-1-.53-1.82-.88-2.79-.17-.61-.43-1.48-1.66-1.48-.88,0-1.41.43-2.11,2.27a18.14,18.14,0,0,0-1.14,4.12,54.32,54.32,0,0,0-1.32,5.34A2,2,0,0,0,895.24,647Z" transform="translate(-400.34 -73.01)"/><path class="cls-1" d="M906.43,790.91c-.17-1-.35-1.85-.52-2.81-.18-.61-.44-1.15-.62-1.76-.34-.95-.52-1.84-.87-2.81-.17-.61-.44-1.47-1.67-1.47-.87,0-1.4.43-2.1,2.26a19.36,19.36,0,0,0-1.14,4.14,53.15,53.15,0,0,0-1.32,5.34,2,2,0,0,0,1.59,2.11,15.59,15.59,0,0,0,2.89.09c.26,0,1.75.09,2.1.09,1.66,0,2.36-.62,2.36-1.84a4,4,0,0,0-.17-1.05C906.77,792.4,906.6,791.61,906.43,790.91Z" transform="translate(-400.34 -73.01)"/><path class="cls-1" d="M940.8,708.09c-1-.63-1.22-.63-3.25-.79a4,4,0,0,1-1.14-.11,14.77,14.77,0,0,0-1.66-.34c-3.33,0-3.33,1.49-3.33,4,0,.27.17,1.48.17,1.76s-.08,1.4-.08,1.66c0,2.45,1.4,2.88,2.71,2.88a13.92,13.92,0,0,0,4-.79c2.2-.7,2.28-.79,3.42-1.92a2.93,2.93,0,0,0,1.14-2.54C942.82,709.48,942,708.88,940.8,708.09Z" transform="translate(-400.34 -73.01)"/><path class="cls-1" d="M1166.7,784.25c-.79-.09-2.1-.36-2.89-.36a3.17,3.17,0,0,0-2.2,1.15c-.87,1.31-.87,4.3-.87,4.73s.18,3.08.26,3.6-.08,2.45-.08,2.9a7.35,7.35,0,0,0,.35,2.53,3,3,0,0,0,2.45,1.5c.09,0,2.27-.45,2.72-.54,1.49-.36,3.15-.36,4.55-1a7.5,7.5,0,0,0,1.66-1.33c1.59-1.66,1.93-3.15,1.93-5.78a6.77,6.77,0,0,0-1.41-4.39C1171.61,784.86,1168.72,784.5,1166.7,784.25Z" transform="translate(-400.34 -73.01)"/><path class="cls-2" d="M859.62,761.11c-.61,0-3.15.25-3.68.25s-2.54-.25-3-.25-1.93.18-2.28.18l-2.55.07c-.43,0-2.36-.25-2.71-.25-2.1,0-2.82.07-3.69,1a5,5,0,0,0-1.14,3.42c0,.36.08,2,.08,2.27,0,.45-.08,2.47-.08,2.81,0,.79.17,4.12.17,4.74A3.47,3.47,0,0,1,838.4,779a13.11,13.11,0,0,1-3.33.7c-.26,0-5.44-.36-5.88-.43a3.43,3.43,0,0,1-2.54-3.42c0-.43.08-2.45.08-2.88,0-.63-.26-3-.26-3.53s.52-3.14.52-3.67a5.76,5.76,0,0,0-.35-2.54,3.81,3.81,0,0,0-3.78-2.2c-.26,0-1,.11-1.66.11s-1.31.18-1.58.18-1.75-.11-3.15-.18-2.81-.18-2.9-.18a6,6,0,0,0-1.4.18,15.62,15.62,0,0,1-2.89.18c-1.14,0-1.75-.11-1.93-.11a12.25,12.25,0,0,0-1.49-.18,3.56,3.56,0,0,0-3.24,3c-.08.18-.26,2.81-.26,3.15,0,1.23.26,2.54.35,3.78a36.43,36.43,0,0,1,.17,3.94c0,.61-.17,3.42-.17,3.94s-.09,2.45-.09,2.9.09,1.76.09,2.1v4.12c0,.27.09,3,.09,3.35a46.19,46.19,0,0,1-.26,4.82,8.12,8.12,0,0,0-.09,1.4c0,.52,0,3.06.09,3.58v.2c0,.25-.09,1.56-.09,1.83,0,1.15.27,6.4.27,7.54a17.83,17.83,0,0,1-.09,2.09,15.12,15.12,0,0,0-.17,1.68v1.22c0,.7-.09,3.87,0,4.47.35,2.1,1.84,3,5,3,.79,0,4.21-.18,4.91-.18.53,0,2.63.09,3.06.09s2.1-.09,2.46-.09,1.32.09,2.36.18,1.93.18,2.28.18c4.3,0,4.3-3.51,4.3-4.74,0-.43-.27-2.09-.27-2.44,0-.54.18-2.56.18-3,0-.88-.18-4.64-.18-5.42,0-.45.18-2.46,1.93-2.9.35-.09,2-.16,2.37-.25a15.69,15.69,0,0,1,3.24-.36,28.2,28.2,0,0,1,3.94.27c1.4.52,1.84,1.76,2.1,3.15a5.18,5.18,0,0,1,.17,1.31c0,.88-.08,2.37-.08,3.33,0,.52.35,2.81.35,3.24,0,1-.17,1.84-.17,2.81,0,2.81.35,4.91,4.38,4.91.7,0,3.85-.18,4.46-.18.36,0,1.32.09,2.2.09s1.83.18,2.1.18c.52,0,1-.09,1.66-.09a10.64,10.64,0,0,1,1.66-.09,10.84,10.84,0,0,1,1.49.09c.61,0,1.32.09,1.49.09,2.19,0,4.47-1.49,4.47-5.35,0-.79-.43-4.12-.43-4.73,0-.88.35-4.73.35-5.52S864,802.82,864,802v-3.42c0-1.22-.17-6.66-.17-7.79,0-2.46.09-4.73.35-7.45a17.66,17.66,0,0,0,.09-2c0-1.31-.17-2.63-.27-4-.08-.88-.08-1.75-.08-2.63v-2.36a12.68,12.68,0,0,0,.17-1.75c0-.25-.09-1.31-.09-1.58,0-.61.35-3.42.35-3.94C864.35,763.2,863.83,761.11,859.62,761.11Z" transform="translate(-400.34 -73.01)"/><path class="cls-2" d="M935.17,812.65c-.09-.27-.61-1.6-.7-1.85-.17-.78-.52-1.66-.69-2.45-.28-1.05-.44-2.11-.71-3.08s-.7-2.09-1-3a13,13,0,0,0-.88-2.37c-.26-.79-.52-1.66-.79-2.63-.43-1.4-.78-2.9-1.14-4.3a35.66,35.66,0,0,1-1.66-7,19.92,19.92,0,0,0-1.49-6c-.7-1.84-1.49-4.48-1.84-5.69-.26-1-.44-2-.71-3.06a13.25,13.25,0,0,1-.44-1.66,29.71,29.71,0,0,0-1.58-5,9.75,9.75,0,0,0-2.45-2.64,12.89,12.89,0,0,0-4.38-.78c-.44,0-2.46.07-2.9.07-.88,0-4.91-.34-5.69-.34-.18,0-2.28.16-2.46.16-1.14.11-4.38.18-5.61.18-1,0-5.44-.18-6.31-.18a7.55,7.55,0,0,0-4.82,1.24c-1.41,1-1.84,2.36-2.37,3.78-.35,1.05-.7,2.09-1.05,3.06a31.23,31.23,0,0,1-.79,3.06c-.17.52-2.54,6.66-2.81,7.54-.27,1.06-.53,2.11-.71,3.17-.17.68-.44,1.39-.61,2-.7,1.93-1.49,3.85-2.1,5.79-.7,2.45-1,5.08-1.58,7.54-.44,1.75-1.14,3.33-1.67,5.08a14,14,0,0,0-.79,2.72c-1.22,5.18-1.75,7.36-2.28,8.6-1,2.45-1.22,3.06-1.22,4.73,0,3.58,3.76,3.67,4.37,3.67.44,0,2.63-.16,3.08-.16l2.54.07c.7,0,3.86-.07,4.47-.07s3.86.16,4.56.16a3.72,3.72,0,0,0,3.59-2.19c.26-.52,1.32-3,1.57-3.42a4.9,4.9,0,0,1,3.95-1.66c1,0,5,.36,5.88.36a6,6,0,0,0,1.4-.11c.53,0,2.81-.34,3.25-.34,2.36,0,3.07.79,4.73,4.39,1.14,2.45,1.49,3.06,4.56,3.06.26,0,1.57-.09,1.83-.09s1.14.09,2,.09,1.66.18,1.92.18c.88,0,4.74-.27,5.52-.27a32.84,32.84,0,0,0,3.94-.09c2.63-.52,4.12-2.09,4.12-5.18a6.91,6.91,0,0,0-.17-1.31C936.14,816.32,935.17,812.83,935.17,812.65Zm-30.41-16.57c-.35,0-1.84-.09-2.1-.09a15.59,15.59,0,0,1-2.89-.09,2,2,0,0,1-1.59-2.11,53.15,53.15,0,0,1,1.32-5.34,19.36,19.36,0,0,1,1.14-4.14c.71-1.83,1.23-2.26,2.1-2.26,1.23,0,1.5.86,1.67,1.47.35,1,.53,1.86.88,2.81.18.61.44,1.15.62,1.76.17,1,.35,1.85.52,2.81.17.7.35,1.49.52,2.27a4,4,0,0,1,.17,1.05C907.12,795.46,906.43,796.08,904.76,796.08Z" transform="translate(-400.34 -73.01)"/><path class="cls-2" d="M1003.2,813.61c0-1.93.09-10.69.09-12.45,0-1.42-.53-7.63-.53-8.87,0-.87.09-1.15.26-4.2a57.46,57.46,0,0,0,.18-5.78c0-1.06-.18-5.79-.18-6.75s.36-4.37.44-5.16c0-.36.09-3.78.09-3.78,0-.88,0-4-2.63-5.18a16,16,0,0,0-4.47-.7c-1.75,0-3.59.25-5.34.25l-2.72-.16c-.08,0-3.07-.09-3.68-.09-2.19,0-3.24.25-4.29,1.57a3.79,3.79,0,0,0-1.14,2.82c0,.52.18,2.63.18,3.06.09,1.05.09,2,.09,3v4c0,.61.17,3.67.17,3.76a1.31,1.31,0,0,1-1.22,1.48c-1.14,0-1.49-.52-2.81-2.27a13.91,13.91,0,0,0-.88-1.32,6.8,6.8,0,0,0-1-1.21,12.34,12.34,0,0,1-1.22-2.27,12.63,12.63,0,0,0-2-3.06,21.31,21.31,0,0,1-1.4-2.2A58.06,58.06,0,0,0,966,763c-1.76-2.19-3.24-2.36-5.43-2.36-1,0-2.19.09-3.33.18-1.49.09-5.44.09-7.11.09h-.7c-.27,0-.61-.09-1-.09h-1.66c-2.54,0-3.59.09-4.46,1.31a9.42,9.42,0,0,0-1,4,23.67,23.67,0,0,0,.26,3.31,25.14,25.14,0,0,1,.61,5.63c0,1.82-.17,3.67-.26,5.51-.18,2.63-.44,11-.44,12.63,0,1.05.09,5.69.09,6.57,0,1.15.17,5.88.17,6.84a17.57,17.57,0,0,1-.09,2.18c-.09,1.48-.35,2.9-.44,4.39-.08,1.06-.08,2-.08,3.08a19.42,19.42,0,0,0-.18,2.36c0,3.42,2.46,4.37,4,4.37.79,0,4.29-.27,5-.27.88,0,4.47.18,5.17.18s3.42-.18,3.95-.18,2.62.27,3.06.27a3.32,3.32,0,0,0,3.33-2.19,12.66,12.66,0,0,0,.18-1.57c0-.54-.35-2.82-.35-3.26v-.86c0-1.05.09-5.69.09-6.66,0-.52-.09-2.63-.09-3,0-1.13,0-3,1.59-3a2,2,0,0,1,1.48,1.06,12.5,12.5,0,0,1,1,1.49c.35.43.79,1,1.14,1.49.27.34.44.79.71,1.15.52.86,3.24,4.12,3.77,4.82.87,1.22,1.58,2.54,2.46,3.78a27.53,27.53,0,0,0,3.33,3.85c.35.43.88.86,1.22,1.31,1.05,1.24,1.49,1.76,6.31,1.76a9.48,9.48,0,0,0,1.84-.18c1.84-.16,4.39-.27,4.82-.27.62,0,3.42.36,4,.36,2.45,0,4.55-1.15,4.55-4,0-1.06-.26-2-.34-3A22,22,0,0,1,1003.2,813.61Z" transform="translate(-400.34 -73.01)"/><path class="cls-2" d="M1068.69,775.22c-.35-.54-.61-1.05-1-1.57a17.36,17.36,0,0,0-7.18-6.23c-.88-.43-1.75-.79-2.63-1.31s-1.76-1.15-2.72-1.58c-.26-.18-3.85-1.76-4.12-1.86a36.92,36.92,0,0,0-9.65-1.56H1037c-2.45-.1-4.91-.27-7.36-.27a36,36,0,0,0-3.86.16,13.81,13.81,0,0,1-2.81.28c-.7,0-4-.28-4.74-.28-4.83,0-5.44,3.6-5.44,6.23,0,1.24.27,6.5.27,7.54.09.7.09,3.94.09,4.55s0,1-.18,3.26c-.09,1.21-.18,3.15-.18,6.05s.09,5.61.36,8.42c.07,1.48.25,3.06.25,4.37,0,.79-.08,4.12-.08,4.82,0,1.32.18,2.72.18,4a26,26,0,0,1-.28,3.42,18.36,18.36,0,0,0-.25,3.08c0,2.18,0,2.81.78,3.94,1.23,1.93,3.67,2.37,6,2.37,1.31,0,6.83-.43,8-.43,1.5,0,8,.34,9.3.34,2.18,0,2.8-.09,8.67-.87,3.86-.52,5.62-.79,8-1.74a41.69,41.69,0,0,0,3.85-1.93c.89-.36,4.66-2.11,5.35-2.54a14.43,14.43,0,0,0,2.88-2.27,20.28,20.28,0,0,0,1.93-2.38c2.82-3.15,2.9-3.24,4.48-7.79a33.36,33.36,0,0,0,1.39-4.57,59.88,59.88,0,0,0,.71-8.5c0-2.45-.62-8.85-3.52-12.7C1070,776.8,1069.3,776.08,1068.69,775.22Zm-20.17,22.17a7.5,7.5,0,0,1-1.66,1.33c-1.4.68-3.06.68-4.55,1-.45.09-2.63.54-2.72.54a3,3,0,0,1-2.45-1.5,7.38,7.38,0,0,1-.35-2.53c0-.45.08-2.47.08-2.9s-.26-3.06-.26-3.6,0-3.42.88-4.73a3.14,3.14,0,0,1,2.2-1.15c.78,0,2.1.27,2.88.36,2,.25,4.92.61,6.49,3a6.81,6.81,0,0,1,1.41,4.39C1050.46,794.24,1050.11,795.73,1048.52,797.39Z" transform="translate(-400.34 -73.01)"/><path class="cls-2" d="M1128.55,809.14a5.84,5.84,0,0,0-1.58-4.47c-.44-.52-1-1.06-3.15-1.06a23.71,23.71,0,0,1-4,0c-.53,0-2.8.11-3.24.11a22.79,22.79,0,0,0-3.77.16c-1.66.18-2.45.27-3,.27-2,0-5.35,0-5.35-2.72,0-1.92,2.63-1.92,3.42-1.92.61,0,3.33.16,3.94.16l8.32-.16a6.21,6.21,0,0,1,1.41-.18c.35,0,1.75.07,2.1,0,1.23-.18,2.63-.54,2.63-3.69,0-.88-.36-4.73-.36-5.51a26.85,26.85,0,0,0,0-2.72c-.36-3.42-1.39-3.87-4.73-3.87-.7,0-3.77.27-4.39.27h-1.83c-.35,0-1.77-.09-2-.09-.54,0-2.72.27-3.25.27-4.38,0-6.13,0-6.13-2.55,0-2,1.93-2,3.33-2,.44,0,2.45.18,2.89.18.61,0,3.16-.29,3.77-.29s3.59.36,4.21.36,2.88-.07,3.33-.07,2,.07,2.37.07a2.31,2.31,0,0,0,2.45-1.49,6.29,6.29,0,0,0,.71-3.24c0-.79-.35-4.21-.35-4.9,0-1.05.08-2.2.08-3.24,0-.88,0-4.14-2.1-5.26a7.3,7.3,0,0,0-2.45-.25c-.26,0-1.58-.11-1.84-.11h-2c-.35,0-1.93-.07-2.28-.07-.17,0-4.29.25-4.46.34a9.47,9.47,0,0,1-1.22.09c-.18,0-.62-.09-1.06-.09a5.23,5.23,0,0,0-1-.09h-1a4.57,4.57,0,0,1-1,.09c-.17,0-.7-.09-1.23-.09a9.85,9.85,0,0,0-1.22-.07h-.52a2.53,2.53,0,0,1-.61.07,3,3,0,0,1-1-.18,15.73,15.73,0,0,0-1.76-.07c-.79,0-4.29.18-5,.18-1.49,0-3.85.07-5.35.07-.52,0-3.06-.25-3.6-.25-3,0-5.61,1-5.61,5.87,0,.86.09,1.76.18,2.61.09,1.42.18,2.9.18,4.3a24,24,0,0,1-.09,2.54c-.09,1.84-.35,3.6-.35,5.35,0,.88.26,4.73.26,5.52a10.86,10.86,0,0,0,.09,2c0,.09.09,1.93.09,1.93a26.15,26.15,0,0,0,.17,4.19A39.29,39.29,0,0,1,1081,800c0,.88-.26,4.64-.35,5.43-.08,1.5-.17,8.42-.26,9.81,0,.63-.26,3.24-.26,3.87,0,1.83.08,4.3,4.29,4.3.53,0,1.49-.09,3-.18a24.72,24.72,0,0,1,5.69-.09c1.22,0,2.46.09,2.8.09a68,68,0,0,1,11-.09c1.49.09,3,.18,3.51.18a47,47,0,0,0,4.73-.27c1.66-.18,2.81-.25,3.33-.25.88,0,4.82.25,5.61.25,3.68,0,4.56-1.49,4.56-6.21,0-.79-.18-4.14-.18-4.82C1128.46,811.59,1128.55,809.59,1128.55,809.14Z" transform="translate(-400.34 -73.01)"/><path class="cls-2" d="M1179.32,764.53c-.26-.18-3.85-1.76-4.12-1.86a36.93,36.93,0,0,0-9.64-1.56h-4.47c-2.45-.1-4.91-.27-7.36-.27a36.3,36.3,0,0,0-3.86.16,13.74,13.74,0,0,1-2.8.28c-.7,0-4-.28-4.75-.28-4.82,0-5.43,3.6-5.43,6.23,0,1.24.27,6.5.27,7.54.09.7.09,3.94.09,4.55s0,1-.18,3.26c-.09,1.21-.18,3.15-.18,6.05s.09,5.61.36,8.42c.07,1.48.25,3.06.25,4.37,0,.79-.08,4.12-.08,4.82,0,1.32.18,2.72.18,4a26,26,0,0,1-.28,3.42,18,18,0,0,0-.25,3.08c0,2.18,0,2.81.79,3.94,1.23,1.93,3.67,2.37,6,2.37,1.31,0,6.84-.43,8-.43,1.49,0,8,.34,9.29.34,2.18,0,2.8-.09,8.68-.87,3.85-.52,5.61-.79,8-1.74a43.13,43.13,0,0,0,3.86-1.93c.88-.36,4.65-2.11,5.34-2.54a14.42,14.42,0,0,0,2.88-2.27,20.31,20.31,0,0,0,1.94-2.38c2.81-3.15,2.9-3.24,4.48-7.79a33.38,33.38,0,0,0,1.39-4.57,59.9,59.9,0,0,0,.71-8.5c0-2.45-.62-8.85-3.52-12.7-.69-.88-1.39-1.59-2-2.45-.35-.54-.61-1.05-1-1.57a17.36,17.36,0,0,0-7.18-6.23c-.88-.43-1.76-.79-2.63-1.31S1180.29,765,1179.32,764.53Zm-6.66,32.86a7.5,7.5,0,0,1-1.66,1.33c-1.4.68-3.06.68-4.55,1-.45.09-2.64.54-2.72.54a3,3,0,0,1-2.45-1.5,7.35,7.35,0,0,1-.35-2.53c0-.45.08-2.47.08-2.9s-.26-3.06-.26-3.6,0-3.42.87-4.73a3.17,3.17,0,0,1,2.2-1.15c.79,0,2.1.27,2.89.36,2,.25,4.91.61,6.48,3a6.77,6.77,0,0,1,1.41,4.39C1174.59,794.24,1174.25,795.73,1172.66,797.39Z" transform="translate(-400.34 -73.01)"/><path class="cls-2" d="M950.62,748.75a35.51,35.51,0,0,0,6,.43c1.23,0,2.54-.09,3.86-.09.26,0,1.66.09,1.93.09,1.76,0,4.12-.54,4.12-5.27,0-1.65-.27-3.32-.27-4.9,0-.79.35-4.3.35-5,0-4.64-3.16-4.64-4.47-4.64-.44,0-2.1.27-2.45.27s-2,.16-2.28.16a11.75,11.75,0,0,1-2.54-.52,1.58,1.58,0,0,1-1.22-1.31c0-1.06.87-1.42,1.49-1.69,4.56-1.92,5.78-3.15,8.15-7.34,1.31-2.56,1.41-3,2.19-7.11a13.28,13.28,0,0,0,.43-3,21,21,0,0,0-1.57-6.93,22,22,0,0,0-1.32-2.45c-.26-.45-.61-.88-.88-1.33-.34-.61-.61-1.22-1-1.74a10.57,10.57,0,0,0-1-1.33,7.52,7.52,0,0,0-2.1-2.37,16.48,16.48,0,0,0-4.56-3.08,18.07,18.07,0,0,0-4.64-1.49,33,33,0,0,0-7.54-1c-.62,0-3.69.09-4.3.09-1.83-.09-3.68-.45-5.52-.45-.35,0-5.78.36-6.83.36-.34,0-1.84-.09-2.11-.09-.52,0-2.54-.18-3-.18-.6,0-3.33-.09-3.94,0a13.36,13.36,0,0,1-2.28.18c-2.45.09-4.64.86-5.6,3a7.32,7.32,0,0,0-.61,3.15c0,.63.08,3.15.08,3.78v4.3c.1.88.44,4.81.44,5.6v1.66c0,.36.09,1.49.09,1.67v9.21c0,.78-.35,4-.35,4.73,0,.45.09,2.36.09,2.81-.09,1.13-.35,2.37-.35,3.58,0,0,.26,2.64.35,2.9.09,1.06.09,4.66.09,5.78a30,30,0,0,1-.35,4.12,11.68,11.68,0,0,0-.17,1.76c0,2,1,4,4.12,4,.79,0,3.86-.34,4.47-.34s2.81.34,3.34.34a9.54,9.54,0,0,0,1.66.09c.7,0,4-.18,4.73-.18.53,0,2.72.18,3.25.18,2.46,0,3.59-1.4,3.59-3.67a2.55,2.55,0,0,0-.09-.88,10.34,10.34,0,0,0-.44-1.41,22.29,22.29,0,0,1-.17-2.37c0-1.15.61-2.45,1.84-2.45a9.57,9.57,0,0,1,1.85.45l4.21,3.24c.79.6,1.66,1.13,2.45,1.66C944.13,745.33,948.08,748.05,950.62,748.75Zm-12.36-32.36a13.92,13.92,0,0,1-4,.79c-1.32,0-2.71-.43-2.71-2.88,0-.27.08-1.4.08-1.66s-.17-1.48-.17-1.76c0-2.54,0-4,3.33-4a14.77,14.77,0,0,1,1.66.34,4,4,0,0,0,1.14.11c2,.16,2.2.16,3.25.79,1.23.79,2,1.39,2,3.85a2.93,2.93,0,0,1-1.14,2.54C940.54,715.61,940.46,715.7,938.26,716.39Z" transform="translate(-400.34 -73.01)"/><path class="cls-2" d="M994.62,687.13c-.78,0-4.29.18-5,.18-1.49,0-3.86.07-5.35.07-.53,0-3.07-.25-3.59-.25-3,0-5.61,1-5.61,5.87a25.56,25.56,0,0,0,.18,2.63c.08,1.4.17,2.88.17,4.28a24,24,0,0,1-.09,2.54c-.08,1.84-.35,3.6-.35,5.35,0,.88.27,4.73.27,5.52a12.16,12.16,0,0,0,.08,2c0,.07.09,1.93.09,1.93a24.84,24.84,0,0,0,.18,4.19,40.42,40.42,0,0,1,.26,4.57c0,.88-.26,4.64-.35,5.43-.09,1.5-.17,8.42-.26,9.83,0,.61-.27,3.24-.27,3.85,0,1.83.09,4.3,4.3,4.3.53,0,1.49-.09,3-.18a24.74,24.74,0,0,1,5.69-.09c1.23,0,2.45.09,2.81.09,5.26-.27,7.45-.45,11-.09,1.49.09,3,.18,3.5.18a47.1,47.1,0,0,0,4.74-.27c1.66-.16,2.8-.27,3.32-.27.89,0,4.83.27,5.62.27,3.68,0,4.56-1.48,4.56-6.21,0-.79-.18-4.14-.18-4.82,0-.45.08-2.45.08-2.9a5.84,5.84,0,0,0-1.57-4.47c-.44-.52-1-1-3.16-1a28.21,28.21,0,0,1-3.94,0c-.53,0-2.81.09-3.24.09a22.85,22.85,0,0,0-3.77.16c-1.67.18-2.46.27-3,.27-2,0-5.35,0-5.35-2.72,0-1.92,2.63-1.92,3.42-1.92.61,0,3.33.16,3.95.16l8.33-.16a7.45,7.45,0,0,1,1.41-.2,13.82,13.82,0,0,0,2.09,0c1.23-.16,2.63-.52,2.63-3.67,0-.88-.35-4.73-.35-5.52,0-.45.08-2.37,0-2.72-.35-3.42-1.4-3.85-4.74-3.85-.7,0-3.77.25-4.39.25H1010c-.35,0-1.75-.09-2-.09-.53,0-2.71.27-3.24.27-4.38,0-6.13,0-6.13-2.54,0-2,1.92-2,3.33-2,.44,0,2.46.18,2.89.18.61,0,3.15-.27,3.77-.27s3.59.34,4.2.34,2.9-.07,3.33-.07,2,.07,2.37.07a2.31,2.31,0,0,0,2.45-1.49,6.36,6.36,0,0,0,.7-3.24c0-.79-.35-4.21-.35-4.91,0-1.05.09-2.2.09-3.24,0-.88,0-4.14-2.1-5.26a7.38,7.38,0,0,0-2.46-.25c-.25,0-1.57-.09-1.84-.09h-2c-.36,0-1.93-.09-2.28-.09-.18,0-4.3.25-4.47.34a9.47,9.47,0,0,1-1.23.09c-.17,0-.61-.09-1-.09a5.26,5.26,0,0,0-1.05-.09h-1a4.52,4.52,0,0,1-1,.09c-.17,0-.7-.09-1.22-.09a10,10,0,0,0-1.23-.07h-.53a2.48,2.48,0,0,1-.61.07,3.51,3.51,0,0,1-1-.16A12.43,12.43,0,0,0,994.62,687.13Z" transform="translate(-400.34 -73.01)"/><path class="cls-2" d="M1084.8,739.64a23.55,23.55,0,0,0,1.93-2.36c2.81-3.17,2.9-3.26,4.48-7.81a32.71,32.71,0,0,0,1.39-4.57,59.88,59.88,0,0,0,.71-8.5c0-2.43-.62-8.85-3.52-12.7-.69-.87-1.4-1.57-2-2.45-.36-.54-.61-1.06-1-1.57a17.49,17.49,0,0,0-7.18-6.23c-.88-.43-1.75-.79-2.63-1.33s-1.76-1.13-2.72-1.56c-.26-.18-3.85-1.76-4.12-1.86a37.76,37.76,0,0,0-9.65-1.56h-4.46c-2.45-.09-4.91-.27-7.36-.27a30.35,30.35,0,0,0-3.86.18,14.72,14.72,0,0,1-2.81.27c-.7,0-4-.27-4.74-.27-4.83,0-5.44,3.58-5.44,6.21,0,1.24.27,6.48.27,7.54.09.7.09,3.94.09,4.57s0,1-.18,3.24c-.09,1.21-.18,3.15-.18,6s.09,5.63.36,8.42c.07,1.5.25,3.08.25,4.39,0,.79-.08,4.12-.08,4.82,0,1.33.18,2.72.18,4a26,26,0,0,1-.28,3.4,18.28,18.28,0,0,0-.25,3.08c0,2.18,0,2.79.79,3.94,1.23,1.92,3.67,2.37,6,2.37,1.31,0,6.83-.45,8-.45,1.5,0,8,.36,9.3.36,2.18,0,2.8-.07,8.67-.87,3.86-.52,5.62-.79,8-1.76a37.52,37.52,0,0,0,3.85-1.92c.89-.36,4.66-2.11,5.35-2.54A13.24,13.24,0,0,0,1084.8,739.64Zm-17.17-16.22a7.5,7.5,0,0,1-1.66,1.33c-1.4.7-3.06.7-4.55,1-.45.09-2.63.52-2.72.52a2.91,2.91,0,0,1-2.45-1.49,7.38,7.38,0,0,1-.35-2.53c0-.45.08-2.47.08-2.9s-.26-3.06-.26-3.6,0-3.42.88-4.73a3.2,3.2,0,0,1,2.2-1.15c.78,0,2.1.27,2.88.36,2,.27,4.92.61,6.49,3a6.77,6.77,0,0,1,1.41,4.39C1069.57,720.26,1069.22,721.75,1067.63,723.41Z" transform="translate(-400.34 -73.01)"/><path class="cls-2" d="M816.88,649.62c.79,7.38,3,10.19,4.21,11.76a16.89,16.89,0,0,1,1.49,1.92c.7.88,1.4,1.85,2.1,2.72a16.88,16.88,0,0,0,8,5.87,25,25,0,0,0,4.21,1.22c1.75.36,3.6.36,5.26.72a32,32,0,0,0,4.82.7,29.24,29.24,0,0,0,4.64-.27c.71-.09,3.59-.18,4.21-.25a7.25,7.25,0,0,0,4.21-2.72,4.11,4.11,0,0,0,.7-2.72,19.13,19.13,0,0,0-.18-2.81c-.08-1.58-.17-3.06-.17-4.64,0-.79.09-4.12.09-4.84,0-4.46-1.23-5.95-5.26-5.95h-.61c-1.67.07-4.56.79-5.7.79-.87,0-5.43-.43-7.09-2.54a14,14,0,0,1-1.67-3.51,6,6,0,0,1-.35-2.11,6.56,6.56,0,0,1,3-5.85,8.38,8.38,0,0,1,4.64-1.42h.79l1.66.09c.54,0,2.64-.27,3.07-.27s3,.27,3.42.27c1.67,0,3.78-.27,3.78-5,0-1.06-.53-5.79-.61-6.83v-.62c0-.95.35-5.09.35-5.88a27.17,27.17,0,0,0-.08-2.88c-.44-1.15-2.29-1.85-2.72-2-2.54-1-7.8-1-10.87-1a31.13,31.13,0,0,0-8.16,1.06c-6,1.41-6.22,1.57-10,4.48-4,3-4.47,3.31-6.06,5.43a16.09,16.09,0,0,0-1.83,3.08c-.62,1.21-1,2.54-1.49,3.76-.53,1.4-1.32,2.72-1.76,4.21a49.3,49.3,0,0,0-.87,8.15,39.13,39.13,0,0,0,.52,4.91C816.71,647.61,816.79,648.67,816.88,649.62Z" transform="translate(-400.34 -73.01)"/><path class="cls-2" d="M874.47,674c.71,0,3.85-.1,4.47-.1s3.86.18,4.56.18a3.68,3.68,0,0,0,3.59-2.19c.27-.52,1.32-3,1.58-3.42a4.91,4.91,0,0,1,3.95-1.66c1,0,5,.36,5.88.36a7.25,7.25,0,0,0,1.4-.09c.53,0,2.81-.36,3.24-.36,2.37,0,3.07.79,4.74,4.39,1.14,2.45,1.49,3.06,4.56,3.06.26,0,1.57-.09,1.84-.09s1.14.09,2,.09,1.67.18,1.93.18c.88,0,4.73-.27,5.52-.27,2.81,0,3.07,0,3.95-.07,2.63-.54,4.12-2.11,4.12-5.18a6.12,6.12,0,0,0-.18-1.32c0-.09-1-3.58-1-3.78s-.61-1.56-.7-1.83c-.17-.79-.52-1.66-.7-2.45-.26-1.05-.43-2.1-.71-3.06s-.7-2.11-1-3a13.63,13.63,0,0,0-.87-2.37c-.27-.79-.53-1.66-.79-2.63-.45-1.4-.79-2.88-1.14-4.3-1.14-3.94-1.41-4.73-1.66-7a19.64,19.64,0,0,0-1.49-6.05c-.7-1.84-1.49-4.48-1.84-5.69-.26-1-.44-2-.7-3.08a11.78,11.78,0,0,1-.44-1.66,30.48,30.48,0,0,0-1.58-5,10.17,10.17,0,0,0-2.45-2.62,12.86,12.86,0,0,0-4.38-.8c-.44,0-2.45.1-2.89.1-.87,0-4.9-.36-5.7-.36-.17,0-2.28.18-2.45.18-1.14.07-4.38.18-5.62.18-1,0-5.43-.18-6.31-.18a7.67,7.67,0,0,0-4.82,1.22c-1.4,1-1.84,2.38-2.36,3.78-.35,1.05-.7,2.1-1.05,3.06a31.29,31.29,0,0,1-.78,3.06c-.18.54-2.54,6.66-2.81,7.54-.26,1.06-.52,2.11-.69,3.15-.18.72-.44,1.41-.62,2-.7,1.93-1.48,3.87-2.1,5.79-.7,2.45-1,5.08-1.58,7.54-.43,1.76-1.14,3.33-1.67,5.09a14.52,14.52,0,0,0-.79,2.7c-1.22,5.18-1.75,7.38-2.28,8.6-1,2.45-1.22,3.06-1.22,4.74,0,3.6,3.77,3.67,4.38,3.67.43,0,2.63-.18,3.07-.18S874.12,674,874.47,674ZM895,639.55a18.14,18.14,0,0,1,1.14-4.12c.7-1.84,1.23-2.27,2.11-2.27,1.22,0,1.49.88,1.66,1.48.35,1,.53,1.83.88,2.79.18.63.43,1.15.61,1.76.17,1,.35,1.85.53,2.82.17.7.35,1.49.52,2.27a4.3,4.3,0,0,1,.17,1.05c0,1.22-.7,1.83-2.37,1.83-.35,0-1.84-.07-2.1-.07a16,16,0,0,1-2.89-.09,2,2,0,0,1-1.58-2.11A54.32,54.32,0,0,1,895,639.55Z" transform="translate(-400.34 -73.01)"/><path class="cls-2" d="M982.92,612.3c-.18,0-.35-.1-.61-.1H979.5c-.79,0-1.57-.16-2.36-.16a11.3,11.3,0,0,0-2.9.52,3,3,0,0,0-1.83,3.06c0,.54.35,2.72.35,3.17s-.1,1.93-.1,2.27.1,2.37.1,2.72c0,1.84-.35,3.76-.35,5.61,0,1,.61,5.08.61,6,0,.34-.26,2.19-.26,2.54,0,1,.26,1.93.26,2.81,0,.61-.36,3.06-.36,3.58s.1,3,0,3.51c0,2.54-.35,2.9-2.1,4.12-1.31,1.05-1.39,1.13-2.28,1.31a3.34,3.34,0,0,1-1.32.18c-.26,0-1.48-.18-1.66-.18-.62-.07-1.23,0-1.84-.07a12.33,12.33,0,0,1-3-1.33,9.49,9.49,0,0,1-1.22-1.66,5.65,5.65,0,0,1-.78-3.33c0-.87.08-4.47,0-5.26,0-.07-.18-2.09-.18-2.19,0-1.57.44-3.15.53-4.73a10.25,10.25,0,0,0,.08-1.58c0-.62,0-3.17.09-3.6s.26-2.54.26-3c0-.77-.35-4.39-.35-5.16A6.32,6.32,0,0,1,959,620c0-.43.34-2.45.34-2.8,0-4.83-3.33-5-5.43-5H952c-.44,0-2.28-.07-2.64-.07-1,0-5.6.18-6.57.18-.53,0-2.81-.18-3.34-.18-1.4,0-3,0-3.86,1.49a6.87,6.87,0,0,0-.7,2.63c0,.34.18,2.09.18,2.54,0,.79-.27,4.55-.27,5.34,0,1.15.27,6,.27,6.93,0,.79-.18,4.21-.18,4.82,0,.36.09,1.66.09,1.93,0,.7-.09,1.49-.09,2.18s.18,4,.18,4.57c0,.86-.18,4.55-.18,5.34s.09,3.94.09,4.57a6.77,6.77,0,0,0,.09,1.67c.09.52,1.31,4.21,1.4,4.37.35.72.87,1.41,1.32,2.2.26.45.44.88.7,1.33a16.26,16.26,0,0,0,5.17,5.43c.62.36,3.59,2.1,4.12,2.45a9.68,9.68,0,0,0,2.46,1.58,27.73,27.73,0,0,0,7,1.76c.35,0,1.66.16,1.93.16.44,0,2.36-.16,2.8-.16s1.67.09,2.89.16,2.45.18,2.81.18h1.06l2.1-.25a7.55,7.55,0,0,1,1.4-.09c.53,0,2.63.09,3,.09a22.64,22.64,0,0,0,9.38-2.38c.52-.34,1-.79,1.57-1.13s.88-.52,1.22-.79a12.46,12.46,0,0,0,3.59-3.67,23.75,23.75,0,0,0,1.41-2.65c.53-.86,1.14-1.74,1.58-2.63a14.65,14.65,0,0,0,.61-2c.26-.7.53-1.31.79-2,1-2.88,1.14-8,1.14-8.15,0-.43-.09-2.27-.09-2.61,0-2.21.18-4.31.18-6.41,0-1.4-.09-2.72-.18-4.12-.09-1.58-.17-2-.17-2.71s.44-4.21.44-4.65c.08-1,.26-1.93.35-2.9.08-.43.08-2.63.08-3.06s-.08-1.76-.08-2c0-.88.08-1.66.08-2.45,0-1.23-.18-4.21-1-5.18a7.79,7.79,0,0,0-1.66-1.32,11.89,11.89,0,0,0-3-.43c-1.06,0-2.11.16-3.16.27h-5.43Z" transform="translate(-400.34 -73.01)"/><path class="cls-2" d="M1005,655.76c.26.72.52,1.42.79,2a39.56,39.56,0,0,0,6,8.15c.43.34,3.15,2.37,3.77,2.79a19.72,19.72,0,0,0,8,4.14,41,41,0,0,0,8.5,1.31h3.24a3.38,3.38,0,0,0,.78.09c.26,0,1-.09,1.58-.09a11.91,11.91,0,0,1,1.58-.09c.45,0,1.49,0,2.45.09s2.1.09,2.45.09c.88,0,4.48-.25,5.27-.25.44,0,1.66.07,2.89.07s2.45.18,2.8.18c1.84,0,3.6-.36,4.73-2.36a10.22,10.22,0,0,0,.88-4.73v-2.9c0-.79.08-4.3.08-5.09,0-1.21-.18-7-.18-8.15s.27-5.69.27-6.66c0-3.33-.61-4-1.67-5.26-.88-.88-1.39-1.49-4.64-1.49-.79,0-4.39.18-5.09.18-.09,0-2.19-.09-2.72-.09-.17,0-1.75-.18-1.75-.18-.52,0-1.06.09-1.58.09-.79,0-4.56-.34-5.35-.34-1,0-3.59,0-3.59,3.85,0,.52.09,3,.09,3.49s-.27,3-.27,3.53c0,2.19,2.45,2.36,2.8,2.36s1.41-.11,1.66-.11a1.43,1.43,0,0,1,1.59,1.33c0,1.49-1.76,1.93-3.08,1.93-2.7,0-5.43-.36-8.06-3.6-1.66-2.18-2.36-3.51-2.36-6,0-6.21,3.24-8.05,5.42-9.27,1.93-1.15,3-1.76,5.45-1.76.79,0,4.21.25,4.91.25.52,0,3.24-.09,3.76-.09,1.24,0,2.46.18,3.78.27,1,.09,3,.09,4,.09,4.57,0,4.57-3.08,4.57-4.39,0-.87-.27-4.63-.27-5.42,0-.54.18-2.82.18-3.35,0-4.28,0-4.55-.7-5.78-1-1.65-2.46-2.71-7.9-2.71h-6c-.89,0-4.83-.09-5.62-.09a85.58,85.58,0,0,0-10.17.7,55.42,55.42,0,0,0-10.42,3.06,14.34,14.34,0,0,0-5.09,3.42c-.78.78-1.48,1.57-2.2,2.38s-1.66,1.65-2.45,2.54a17.43,17.43,0,0,0-4.3,8.31c-.26,1.15-.52,2.29-.7,3.51s-.17,2.45-.26,3.78-.44,2.45-.53,3.67v1a24.89,24.89,0,0,0,1.58,9.29C1004.22,654.27,1004.66,655.06,1005,655.76Z" transform="translate(-400.34 -73.01)"/><path class="cls-2" d="M1070.44,626c0,.61-.17,3.42-.17,3.94s-.08,2.47-.08,2.9.08,1.75.08,2.09V639c0,.25.09,3,.09,3.31a46.78,46.78,0,0,1-.26,4.81,8.88,8.88,0,0,0-.09,1.42c0,.52,0,3.06.09,3.6v.18c0,.25-.09,1.58-.09,1.83,0,1.15.26,6.41.26,7.54,0,.52,0,1.33-.08,2.11a12.68,12.68,0,0,0-.18,1.65v1.24c0,.7-.09,3.87,0,4.48.35,2.09,1.84,3,5,3,.79,0,4.21-.16,4.91-.16.52,0,2.63.07,3.07.07s2.1-.07,2.45-.07,1.32.07,2.36.16,1.93.18,2.28.18c4.29,0,4.29-3.51,4.29-4.73,0-.45-.26-2.11-.26-2.45,0-.54.18-2.54.18-3,0-.87-.18-4.63-.18-5.42,0-.45.18-2.47,1.93-2.9.36-.09,2-.16,2.38-.25a15.69,15.69,0,0,1,3.24-.36,28.13,28.13,0,0,1,3.94.27c1.4.52,1.85,1.74,2.1,3.15a5.07,5.07,0,0,1,.18,1.31c0,.88-.09,2.38-.09,3.33,0,.54.35,2.81.35,3.24,0,1-.17,1.84-.17,2.81,0,2.8.35,4.91,4.38,4.91.7,0,3.86-.18,4.47-.18.35,0,1.31.09,2.19.09s1.84.18,2.09.18c.54,0,1.07-.09,1.67-.09a10.66,10.66,0,0,1,1.67-.09,10.93,10.93,0,0,1,1.49.09c.61,0,1.32.09,1.49.09,2.2,0,4.48-1.48,4.48-5.34,0-.81-.45-4.14-.45-4.74,0-.88.36-4.73.36-5.52s-.27-4.82-.27-5.61v-3.42c0-1.24-.17-6.66-.17-7.81a73,73,0,0,1,.35-7.45,17.66,17.66,0,0,0,.09-2c0-1.31-.18-2.61-.27-4-.09-.87-.09-1.75-.09-2.63v-2.36a11.83,11.83,0,0,0,.18-1.76c0-.25-.09-1.31-.09-1.58,0-.61.36-3.42.36-3.94,0-1.85-.53-4-4.74-4-.61,0-3.16.27-3.68.27s-2.54-.27-3-.27-1.92.18-2.27.18l-2.54.09c-.43,0-2.36-.27-2.71-.27-2.1,0-2.81.11-3.68,1.06a5,5,0,0,0-1.15,3.42c0,.36.09,2,.09,2.29,0,.43-.09,2.45-.09,2.79,0,.79.18,4.12.18,4.73a3.47,3.47,0,0,1-2.37,3.6,12.28,12.28,0,0,1-3.33.7c-.27,0-5.44-.34-5.87-.43a3.44,3.44,0,0,1-2.54-3.42c0-.45.09-2.45.09-2.9,0-.61-.27-3-.27-3.49s.52-3.17.52-3.69a6,6,0,0,0-.34-2.54,3.8,3.8,0,0,0-3.77-2.18c-.26,0-1,.07-1.67.07a13.57,13.57,0,0,1-1.57.18c-.27,0-1.76-.07-3.16-.18l-2.89-.16a6.55,6.55,0,0,0-1.39.16,15.75,15.75,0,0,1-2.89.18c-1.15,0-1.76-.07-1.93-.07a7.5,7.5,0,0,0-1.48-.18,3.53,3.53,0,0,0-3.24,3c-.09.18-.27,2.82-.27,3.15,0,1.23.27,2.54.35,3.78A37.27,37.27,0,0,1,1070.44,626Z" transform="translate(-400.34 -73.01)"/><path class="cls-2" d="M1135.05,624.56v2.53c-.09,2.11.26,4.21,3.24,4.83a25.35,25.35,0,0,0,2.72.18c.61.09,1.21.27,1.82.34a11.39,11.39,0,0,1,1.68.09c2.28.27,2.53,3,2.53,4.57,0,.52-.08,3.06-.08,3.6,0,1,.18,5.68.18,6.57,0,1.31-.44,6.73-.44,7.88,0,1.33.26,6.91.26,8.06a29.58,29.58,0,0,1-.1,3c-.07,1-.25,2.88-.25,2.88a7.17,7.17,0,0,0,.7,3.17,7,7,0,0,0,4.47,1.92c.79,0,4-.16,4.73-.16.53,0,1.75.07,3.07.07s2.62.18,3,.18c5.69,0,6.39-.54,7.18-1.22a4.49,4.49,0,0,0,1.58-3.6,31.31,31.31,0,0,0-.52-3.78,21.81,21.81,0,0,1-.18-2.53v-9c0-.36-.09-2.19-.09-2.63,0-.61.27-3.24.27-3.76.09-1.49.17-3,.17-4.47,0-.36-.17-1.83-.17-2.19V638c0-3,.61-5.85,6-5.85.6,0,3,.27,3.49.27,2.29,0,3.34-1.23,3.34-3.78,0-.43-.17-2.37-.17-2.81-.09-1-.09-3.06-.09-3.33v-1.66c.09-.7.18-1.4.26-2.1,0-.52.09-1.06.09-1.58,0-5-3.6-5-7.1-5-.79,0-1.67,0-2.46.07-1.32.1-2.63.27-3.95.27h-.87c-2,0-6.49,0-8.34-.09s-3.5-.18-5.17-.18c-.88,0-1.15,0-3.86.18-1.05.09-2.1.09-3.07.09-.43,0-2.37,0-3.33-.09-2-.18-2.27-.18-3.68-.25-.79,0-1.67-.09-2.46-.09-2.09,0-2.79.43-3.49,1.39a4.57,4.57,0,0,0-1.05,3.15c0,.79.34,4.3.34,5C1135.21,622,1135.05,624.11,1135.05,624.56Z" transform="translate(-400.34 -73.01)"/></svg>