<svg id="Layer_1" data-name="Layer 1" xmlns="http://www.w3.org/2000/svg" viewBox="0 0 48.71 44.72"><defs><style>.cls-1{fill:#fff;}</style></defs><title>crh_linkedin</title><rect class="cls-1" x="1.23" y="14.34" width="9.49" height="30.38"/><path class="cls-1" d="M332.66,232.33c-5.44,0-8.85,3-9.48,5.06v-4.77H312.52c.14,2.53,0,30.38,0,30.38h10.66V246.56a7,7,0,0,1,.23-2.48,5.44,5.44,0,0,1,5.14-3.72c3.7,0,5.39,2.81,5.39,6.92V263h10.77V246.11c0-9.41-5.3-13.78-12-13.78" transform="translate(-296 -218.28)"/><path class="cls-1" d="M301.8,218.28c-3.5,0-5.8,2.28-5.8,5.28s2.23,5.26,5.66,5.26h.07c3.57,0,5.79-2.33,5.79-5.27s-2.22-5.27-5.72-5.27" transform="translate(-296 -218.28)"/></svg>