<svg id="Layer_1" data-name="Layer 1" xmlns="http://www.w3.org/2000/svg" viewBox="0 0 231.46 251.53"><defs><style>.cls-1{fill:#fff;fill-rule:evenodd;}.cls-2{fill:#ee3124;}</style></defs><title>crh_logo_bottom</title><path class="cls-1" d="M432.65,417.75a16,16,0,0,0-3-.58,20.42,20.42,0,0,0-3,0c-1,0-2,.08-3,.2s-1.88.41-2.83.57-1.89.46-2.85.62-1.95.22-2.9.36-1.94.16-2.9.22a24.06,24.06,0,0,1-2.78.23c-.82,0-1.6-.82-2.52-1s-1.83.08-2.7-.25-1.56-.89-2.39-1.31-1.65-.69-2.43-1.17-1.28-1.22-2-1.77-1.49-1-2.16-1.59-1.1-1.32-1.69-2-1.31-1.12-1.83-1.81-1.3-1.48-1.83-2.19-1-1.64-1.54-2.33-1.06-1.64-1.56-2.32-1-1.56-1.49-2.22-1.41-1.25-1.84-1.93-.52-1.75-1-2.54-.67-1.52-1.12-2.36c-.36-.67-.94-1.3-1.39-2.14s-.62-1.71-1.08-2.59-1.34-1.37-1.8-2.25-.49-1.8-.93-2.64-.76-1.67-1.19-2.52-.89-1.59-1.32-2.42-1-1.5-1.4-2.32-1.05-1.52-1.47-2.36-.37-1.89-.78-2.74-1.09-1.47-1.49-2.29-.6-1.73-1-2.55-.57-1.66-.95-2.45-.83-1.52-1.2-2.3-1.1-1.71-1.5-2.59-.86-1.77-1.25-2.62-.49-2-.88-2.87-.84-1.77-1.22-2.61-.92-1.77-1.3-2.62-.68-1.9-1.05-2.76-1.08-1.73-1.44-2.58-1.11-1.7-1.47-2.55-.09-2-.41-2.73c-.41-1-.91-1.79-1.22-2.55-.42-1-.62-2-1-2.77s-.81-1.71-1.23-2.52-1.07-1.39-1.61-2.27c-.4-.64-1-1.35-1.57-2.18-.49-.67-.85-1.52-1.45-2.27s-1.27-1.22-1.86-1.93-.84-1.49-1.42-2.14-1.32-1.14-1.92-1.79-1.33-1-1.92-1.63-.81-1.57-1.41-2.14-1.57-1-2.17-1.63-1-1.55-1.55-2.17-1.27-1.23-1.79-1.87-1-1.34-1.44-2-1-1.31-1.46-2-1-1.2-1.45-1.9-.63-1.64-1.18-2.55c-.45-.74-1.43-1.24-1.93-2.06s-.61-1.76-1.08-2.52L322.86,292c-.52-.84-1-1.57-1.45-2.24-.72-1.2-1.42-1.87-1.47-2.08A16.18,16.18,0,0,1,318.1,285c-.46-.68-1.14-1.38-1.77-2.39a27,27,0,0,0-1.41-2.37c-.46-.66-1.05-1.38-1.62-2.23s-1-1.46-1.55-2.28-1-1.52-1.45-2.34-.46-1.82-.88-2.65-.87-1.56-1.23-2.38-.65-1.67-1-2.52-.94-1.59-1.16-2.44a21.39,21.39,0,0,1-.5-2.71,15,15,0,0,1,.13-2.63,11.5,11.5,0,0,1,.18-2.64,14.95,14.95,0,0,1,2.87-4.47,13.38,13.38,0,0,1,2.21-1.08,13.72,13.72,0,0,1,5.18-1.51,10.46,10.46,0,0,1,2.64.56,12.73,12.73,0,0,1,2.39,1.32A15.46,15.46,0,0,1,323,252.1a16.88,16.88,0,0,1,1.78,1.81,19,19,0,0,1,1.49,2c.49.79,1.12,1.54,1.66,2.42s.92,1.76,1.46,2.65,1.45,1.36,2,2.2,1,1.68,1.56,2.52.87,1.83,1.38,2.66,1,1.64,1.49,2.42,1,1.7,1.5,2.48.82,1.73,1.29,2.43,1.23,1.37,1.79,2.13,1.24,1.32,1.81,2,1.18,1.41,1.77,2.12.84,1.73,1.45,2.43,1.25,1.39,1.86,2.06l1.84,2c.59.63,1.48.95,2,1.52s1.05,1.4,1.79,2.18c.59.62,1,1.54,1.63,2.24l1.9,2c.63.66,1.49,1.12,2.14,1.78s1.43,1.15,2.05,1.78,1.38,1.27,2,1.88,1.12,1.7,1.71,2.25a10.81,10.81,0,0,0,2,1.54,8.91,8.91,0,0,0,3.16,1.12,2.82,2.82,0,0,0,2.6-1.62,5,5,0,0,0,1-3.2,12.15,12.15,0,0,0-.28-3.34,20.86,20.86,0,0,0-1.11-2.71c-.36-.79-1.09-1.56-1.58-2.54-.41-.82-.83-1.71-1.31-2.63s-.9-1.7-1.37-2.59-1-1.67-1.5-2.55-.41-2-.87-2.85-1.07-1.59-1.5-2.41-1-1.66-1.4-2.48-1.09-1.59-1.5-2.38-.82-1.78-1.2-2.55-.53-1.82-.82-2.49c-.35-.83-.75-1.6-1.08-2.4s-.86-1.6-1.2-2.44-.86-1.55-1.21-2.4-.53-1.63-.88-2.47-.48-1.64-.84-2.47-.82-1.5-1.19-2.33-.85-1.49-1.24-2.32-.35-1.73-.75-2.56-.88-1.37-1.26-2.14-.44-1.87-.83-2.67-1.38-1.41-1.77-2.21-.46-1.85-.85-2.65-.8-1.77-1.21-2.6-.84-1.64-1.23-2.45-1-1.6-1.37-2.43-.78-1.64-1.16-2.48-.81-1.62-1.2-2.47-.62-1.65-1-2.49-.38-1.73-.75-2.57-.87-1.69-1.25-2.52-.69-1.79-1-2.63-.78-1.72-1.05-2.57a19.39,19.39,0,0,1-1-2.63,9.91,9.91,0,0,1,.24-2.87,8.06,8.06,0,0,1,.46-2.84,10.32,10.32,0,0,1,1.77-2.33,15.66,15.66,0,0,1,2.15-1.81,26,26,0,0,1,2.33-1.31,11.89,11.89,0,0,1,2.86-1.14,8.85,8.85,0,0,1,3,.15,9.25,9.25,0,0,1,2.92.63,11.58,11.58,0,0,1,2.54,1.59,14.86,14.86,0,0,1,2.05,1.93,16.61,16.61,0,0,1,1.78,2.23c.32.61.45,1.62,1,2.61.37.72,1,1.43,1.39,2.28s.54,1.7.95,2.52,1.26,1.37,1.65,2.17.79,1.66,1.16,2.46.28,1.88.61,2.65.56,1.6.81,2.29,1,1.58,1.33,2.47.29,1.85.65,2.73,1.25,1.43,1.62,2.29.8,1.66,1.2,2.53.74,1.65,1.16,2.5.76,1.6,1.19,2.41.38,1.79.82,2.59,1.39,1.42,1.91,2.28.7,1.87,1.24,2.71,1.45,1.37,2,2.19.82,1.72,1.34,2.5.87,1.72,1.38,2.49,1.25,1.57,1.75,2.37,1.2,1.55,1.66,2.31.6,1.81,1,2.53.85,1.58,1.28,2.42,1,1.55,1.43,2.4.68,1.71,1.08,2.53,1,1.51,1.35,2.29.69,1.65,1,2.41.67,1.72,1,2.46.95,1.53,1.2,2.17c.36.92.4,1.9.81,2.64a15.25,15.25,0,0,0,1.64,2.13c.66.86,1,1.77,1.42,2.05,1,.65,3.14.93,3.27-1,0-.54-.77-1.53-1-2.95-.14-.84-.17-1.83-.38-2.93-.18-.89-.1-1.92-.31-3s-.73-1.83-.94-2.86-.23-1.9-.44-2.9-.34-1.89-.54-2.87-.08-1.85-.27-2.78-.51-1.86-.69-2.72-.51-1.83-.69-2.69-.24-2-.43-2.83-.43-1.84-.62-2.69-.9-1.68-1.08-2.52-.07-1.83-.25-2.7-.22-1.75-.38-2.65-.31-1.69-.45-2.6-.54-1.74-.73-2.81c-.15-.87-.13-1.84-.31-2.84s-.16-1.89-.35-2.87-.28-1.93-.48-2.91-.91-1.81-1.11-2.77-.41-1.87-.61-2.81,0-1.91-.16-2.8-.64-1.77-.84-2.65-.1-2-.33-2.87-1-1.68-1.27-2.5-.53-1.76-.78-2.48-.06-1.82-.36-2.67-.55-1.73-.86-2.61-.92-1.57-1.22-2.43-.58-1.64-.87-2.48-.29-1.77-.57-2.61-1-1.57-1.22-2.41-.31-1.78-.56-2.62-.68-1.57-.9-2.37-.4-1.65-.6-2.46c-.24-1-.28-2-.45-2.85a22.49,22.49,0,0,1-.13-2.75,12.45,12.45,0,0,1,0-2.66,8.41,8.41,0,0,1,.41-2.65,8.23,8.23,0,0,1,1.64-2.26,12.72,12.72,0,0,1,2.31-1.5,16.7,16.7,0,0,1,2.07-1.55,10.84,10.84,0,0,1,3-.63,11.48,11.48,0,0,1,3-.06,12.35,12.35,0,0,1,2.8,1.07,13.63,13.63,0,0,1,5,3.28,12,12,0,0,1,1.18,2.56c.37.74,1,1.58,1.43,2.64.35.82,1,1.61,1.4,2.56s.55,1.85.9,2.8.69,1.86,1,2.8.79,1.82,1.11,2.74.34,1.92.64,2.8.44,2,.73,2.91.56,1.92.81,2.73c.34,1.09,1.17,1.81,1.33,2.43.27,1,.18,1.85.37,2.41.33,1,.39,1.53.67,2.36a13.69,13.69,0,0,1,.79,2.11c.17.76.43,1.76.7,2.91.21.91.7,1.86,1,2.93s0,2,.24,3,.62,1.86.87,2.79.81,1.82,1.06,2.72.58,1.92.84,2.76c.31,1,.06,2.07.36,2.88.36,1,1.14,1.66,1.46,2.44.38.93.65,1.79.95,2.58a17.94,17.94,0,0,1,.38,2.48c.23,1,.71,1.63.79,2.15a13.17,13.17,0,0,0,.19,2.06,20.26,20.26,0,0,1,.86,2.92c.17.83.6,1.77.8,2.91.16.89.23,1.89.4,3,.1.65-.05,1.61.14,2.71.14.8.63,1.63.8,2.59s.5,1.66.67,2.57-.22,1.88,0,2.79.73,1.71.91,2.6.15,1.81.34,2.67.54,1.79.75,2.64.5,1.71.71,2.48c.27,1,.41,1.84.67,2.54.42,1.15.83,1.8,1.17,1.92,1.21.4,2-.1,3.19-.65.72-.34.84-1.79.91-3.32,0-.92.21-2,.34-3.1.07-.63,0-1.57,0-2.69.06-.8-.28-1.72-.22-2.68s.24-1.76.29-2.7.21-1.8.26-2.72-.2-1.79-.16-2.66.51-1.76.54-2.61-.23-1.75-.21-2.53c0-1.06.41-2,.45-2.89,0-1,.22-2,.28-2.9s-.42-2-.32-3,.77-1.78.91-2.81c.11-.84.2-1.75.34-2.75s.38-2,.51-3-.16-2-.05-3,0-1.91.07-2.89.19-1.93.24-2.93.3-1.89.31-2.87-.27-1.93-.31-2.93.16-1.82.09-2.76-.35-2-.43-3,0-2-.06-2.93.07-2,0-3-.44-2-.49-3-.36-2-.37-2.95.36-2,.39-3,0-1.81.07-2.74-.12-2.06-.06-3,.17-2.06.27-3A23,23,0,0,1,433,187a13.44,13.44,0,0,1,.59-2.88,10,10,0,0,1,1.94-2.13,10.8,10.8,0,0,1,2.17-1.48,8.06,8.06,0,0,1,2.53-1.31,8.4,8.4,0,0,1,2.89,0,10.75,10.75,0,0,1,2.79.53,12.87,12.87,0,0,1,2.37,1.64,13.43,13.43,0,0,1,2.21,1.82,11.08,11.08,0,0,1,1.46,2.2,21.89,21.89,0,0,1,1,2.6c.26.78.55,1.65.81,2.59s.19,1.83.41,2.79.51,1.75.69,2.69.48,1.78.63,2.72,0,1.85.12,2.77.52,1.74.61,2.64-.21,1.84-.14,2.76,0,1.75,0,2.62.18,1.74.18,2.62.42,1.65.4,2.46a26.5,26.5,0,0,0,0,3.08c0,1-.22,2.06-.19,3.18s.3,2,.33,3-.49,1.81-.46,2.76.55,1.72.59,2.62-.06,1.81,0,2.71-.29,1.76-.22,2.59.7,1.64.78,2.44-.36,1.79-.32,3c0,.87.41,1.81.42,2.82s0,1.88,0,2.86,0,1.91,0,2.86-.28,2-.28,2.9,0,2,0,2.82.07,1.89.07,2.59-.14,1.65-.16,2.67c0,.83.34,1.74.31,2.69s-.22,1.75-.24,2.68,0,1.78,0,2.69-.23,1.75-.24,2.64,0,1.79,0,2.68.49,1.7.51,2.54-.51,1.72-.47,2.53c.06,1.25.13,2.23.16,3a26.62,26.62,0,0,0,.6,3,24.46,24.46,0,0,0,.16,3c.1.72.08,1.63.26,2.81.14.93.08,2,.27,3s.42,1.94.63,3,.8,1.88,1,2.87.33,2,.58,2.89.37,2,.65,2.87,1.07,1.7,1.37,2.54.51,1.82.87,2.53a18.56,18.56,0,0,0,1.52,2.66c.56.79,1.32,1.53,2,2.36s1.05,1.79,1.73,2.55,1.64,1.3,2.3,2,1.42,1.39,2,2a14.89,14.89,0,0,0,2.08,1.76,7.55,7.55,0,0,0,2.11.9c.76.18,1.55.46,2.3.55a7.15,7.15,0,0,0,2.29-.2,6.92,6.92,0,0,0,3-.87c.84-.52,1.76-1.15,2.58-1.77a11.22,11.22,0,0,0,1.83-2.42,19.37,19.37,0,0,0,2.05-2c.5-.71.68-1.72,1.19-2.5s1-1.57,1.4-2.29a17.78,17.78,0,0,0,1.41-2.2c.2-.91.68-2.1,1-3.3a13.41,13.41,0,0,1,1-3.06,17.55,17.55,0,0,0,1.24-2.61c.27-.71.38-1.63.77-2.71.26-.7.32-1.58.67-2.5.27-.72.78-1.55,1.19-2.55.33-.8.87-1.59,1.29-2.51s.82-1.67,1.27-2.56.81-1.63,1.28-2.45.83-1.61,1.33-2.39.83-1.68,1.37-2.44,1-1.59,1.62-2.3,1.6-1,2.22-1.57a26,26,0,0,1,1.72-2c.79-.63,1.44-1.45,2.24-2s1.92-.73,2.76-1.23,1.5-1.38,2.35-1.79a22.13,22.13,0,0,1,2.93-.65,16.62,16.62,0,0,1,2.69-.85,12.24,12.24,0,0,1,2.84-.19,10.16,10.16,0,0,1,2.61,1,9.8,9.8,0,0,1,2.34,1.32,7,7,0,0,1,1.83,1.61,4.72,4.72,0,0,1,.72,2.21,7.62,7.62,0,0,1,.3,2.42,18.87,18.87,0,0,1-.67,2.23c-.3.92-.59,1.92-.95,3s-1,1.79-1.3,2.78-.23,2-.56,3-.59,1.88-.91,2.83-.7,1.7-1,2.57-1,1.83-1.28,2.72-.37,2.05-.7,3-1.06,1.72-1.31,2.68a27.34,27.34,0,0,0-.26,3c-.12.89-.74,1.79-.76,2.8a16.28,16.28,0,0,1,.12,2.64,10.77,10.77,0,0,1-1.09,2.46,18.49,18.49,0,0,1-1,2.49l-1.53,2.16a21.58,21.58,0,0,0-1.52,2c-.47.85-1.17,1.6-1.74,2.47s-1.11,1.62-1.67,2.5-1.06,1.57-1.56,2.43-.69,1.85-1.13,2.79-.64,1.75-1,2.69-.58,1.7-.83,2.63-.44,1.79-.62,2.64-.73,1.64-.88,2.46,0,1.79-.12,2.61-.33,1.73-.47,2.56-.48,1.71-.67,2.56-.48,1.57-.73,2.36a23.71,23.71,0,0,1-1,2.23c-.46,1.06-.6,2.16-1.07,3s-1.14,1.79-1.64,2.58-1.29,1.68-1.79,2.49a16.7,16.7,0,0,0-1.36,2.59c-.24.6-.62,1.49-1,2.59-.29.79-.66,1.66-1,2.61s-.57,1.68-.89,2.55-.61,1.7-.93,2.55-.32,1.87-.64,2.71-1.06,1.58-1.37,2.34c-.38.91-.57,1.76-.88,2.37s-.39,1.69-.8,2.52-.77,1.53-1.17,2.34-.67,1.6-1.06,2.38-.77,1.61-1.17,2.38-1.27,1.23-1.66,1.93-.61,1.61-1,2.24a19.26,19.26,0,0,0-1.52,2.41c-.37.76-.88,1.58-1.36,2.53-.41.79-.42,1.88-.93,2.77s-1.2,1.43-1.74,2.26-.94,1.66-1.55,2.48-1.43,1.24-2.07,2-1.3,1.34-2,2.05-1.06,1.59-1.79,2.27-1.36,1.19-2.08,1.8-1.45,1.17-2.23,1.76-1.43,1.16-2.22,1.71-1.29,1.16-2,1.64-1.75.82-2.54,1.23-1.66.92-2.49,1.25a23.34,23.34,0,0,1-2.63.85,22.4,22.4,0,0,1-2.71.62,24.57,24.57,0,0,1-2.8.27,27.14,27.14,0,0,1-2.76-.12c-.9-.08-1.83-.19-2.73-.34s-1.75-.56-2.64-.78-1.73-.34-2.57-.59-1.59-.84-2.44-1.12-1.82-.19-2.67-.49-1.53-1.07-2.39-1.37-1.82,0-2.65-.31-1.41-.9-2.2-1.14" transform="translate(-305.55 -172.55)"/><path class="cls-2" d="M393.29,380.92c0-.11,0-.67,0-.78a1.81,1.81,0,0,1,0-.3,10.06,10.06,0,0,0,.06-1.05c0-.08,0-.67,0-.73v-.9c0-.07,0-.38,0-.46s0-.54,0-.63,0-.73,0-.86a7.94,7.94,0,0,0,0-.86c0-.27-.08-.55-.08-.82,0-.07,0-.65.06-.69a.78.78,0,0,1,.71-.65,2.71,2.71,0,0,1,.33,0s.17,0,.42,0a3.43,3.43,0,0,0,.63,0,1.3,1.3,0,0,1,.31,0l.63,0,.69,0,.34,0,.36,0a.83.83,0,0,1,.82.48,1.25,1.25,0,0,1,.08.55c0,.12-.11.67-.11.8s.06.63.06.77,0,.54,0,.63a.75.75,0,0,0,.55.75l1.28.09a2.85,2.85,0,0,0,.73-.15.76.76,0,0,0,.52-.78c0-.14,0-.86,0-1s0-.52,0-.61,0-.42,0-.5a1.08,1.08,0,0,1,.25-.75c.19-.21.34-.23.8-.23l.59.05.56,0,.5,0,.65.05.8-.05c.92,0,1,.46,1,.86,0,.11-.08.73-.08.86s0,.29,0,.34a2.69,2.69,0,0,1,0,.38v.52c0,.19,0,.38,0,.57s.06.59.06.88a4,4,0,0,1,0,.44c-.06.59-.08,1.09-.08,1.63,0,.25,0,1.43,0,1.7v.75c0,.17.06,1,.06,1.23s-.08,1-.08,1.2.09.86.09,1c0,.84-.5,1.17-1,1.17l-.33,0a2.28,2.28,0,0,0-.33,0,2.25,2.25,0,0,0-.36,0l-.36,0-.46,0-.48,0-1,0c-.88,0-1-.46-1-1.07,0-.21,0-.4,0-.61s-.08-.59-.08-.71,0-.54,0-.73a1.13,1.13,0,0,0,0-.29.79.79,0,0,0-.46-.69,6.16,6.16,0,0,0-.86-.06,3.42,3.42,0,0,0-.71.08c-.08,0-.44,0-.52.05a.64.64,0,0,0-.42.63c0,.17,0,1,0,1.18s0,.53,0,.65.06.44.06.53a.88.88,0,0,1-.94,1l-.5,0-.52,0-.54,0-.67,0-1.07,0c-.69,0-1-.19-1.09-.65,0-.13,0-.82,0-1v-.27a3.16,3.16,0,0,1,0-.37,4,4,0,0,0,0-.46c0-.25-.06-1.39-.06-1.64,0-.06,0-.34,0-.4v0" transform="translate(-305.55 -172.55)"/><path class="cls-2" d="M408,383.87a15.22,15.22,0,0,0,.5-1.87,3,3,0,0,1,.17-.59c.11-.38.27-.73.36-1.11.13-.54.19-1.11.34-1.64s.31-.84.46-1.26c0-.13.09-.29.13-.44s.1-.46.15-.69.57-1.53.61-1.64a6.64,6.64,0,0,0,.17-.67c.08-.21.15-.44.23-.67a1.51,1.51,0,0,1,.52-.82,1.65,1.65,0,0,1,1.05-.27l1.38,0c.27,0,1,0,1.22,0l.54,0c.17,0,1.05.07,1.24.07l.63,0a2.8,2.8,0,0,1,1,.17,2.15,2.15,0,0,1,.54.57,6.61,6.61,0,0,1,.34,1.09,2.77,2.77,0,0,0,.09.36c.06.23.1.46.15.67s.25.84.4,1.24a4.34,4.34,0,0,1,.32,1.32,7.81,7.81,0,0,0,.36,1.53c.08.3.15.63.25.94s.12.4.17.57a2.83,2.83,0,0,1,.19.52c.06.19.15.46.21.65s.09.44.15.67.11.36.15.54l.15.4s.21.8.21.82a1.54,1.54,0,0,1,0,.29,1,1,0,0,1-.9,1.13,7.4,7.4,0,0,1-.86,0l-1.21.06-.42,0-.44,0-.4,0c-.67,0-.75-.13-1-.67-.36-.79-.52-1-1-1-.1,0-.59.07-.71.07a1.35,1.35,0,0,1-.31,0c-.19,0-1.07-.08-1.28-.08a1.07,1.07,0,0,0-.86.36c-.06.1-.29.63-.34.75a.81.81,0,0,1-.78.48l-1,0-1,0-.55,0-.67,0c-.13,0-1,0-1-.8a2.34,2.34,0,0,1,.27-1Zm6.63-6.6a4.26,4.26,0,0,0-.25.9,11.54,11.54,0,0,0-.29,1.16.43.43,0,0,0,.35.46,3.48,3.48,0,0,0,.63,0l.46,0c.36,0,.51-.14.51-.4a.9.9,0,0,0,0-.23c0-.17-.08-.34-.11-.5s-.08-.4-.11-.61-.1-.25-.13-.38-.11-.4-.19-.61-.1-.32-.36-.32-.3.09-.46.49" transform="translate(-305.55 -172.55)"/><path class="cls-2" d="M431.89,374.4c0-.21,0-.42,0-.65s0-.55,0-.67a.82.82,0,0,1,.25-.61c.23-.29.46-.34.94-.34l.8,0,.59,0c.38,0,.78-.05,1.17-.05a3.47,3.47,0,0,1,1,.15,1.16,1.16,0,0,1,.57,1.13s0,.75,0,.82-.1.93-.1,1.13,0,1.24,0,1.47a12.43,12.43,0,0,1,0,1.26c0,.67-.06.73-.06.92s.12,1.63.12,1.93,0,2.29,0,2.71a5,5,0,0,0,0,.54c0,.21.08.42.08.65,0,.63-.46.88-1,.88-.14,0-.75-.08-.88-.08s-.65,0-1.05.06a2.06,2.06,0,0,1-.4,0c-1.05,0-1.15-.11-1.38-.38-.08-.1-.19-.19-.27-.29a6.07,6.07,0,0,1-.73-.84c-.19-.27-.35-.56-.54-.82s-.71-.86-.82-1.05-.1-.18-.15-.25-.17-.23-.25-.32a2.76,2.76,0,0,0-.21-.32.43.43,0,0,0-.32-.23c-.35,0-.35.4-.35.65,0,.08,0,.54,0,.65s0,1.22,0,1.45v.19c0,.1.08.59.08.71a2.84,2.84,0,0,1,0,.34.72.72,0,0,1-.73.48l-.67-.06-.86,0-1.13,0-1.09.06a.86.86,0,0,1-.88-1,4.34,4.34,0,0,1,0-.52c0-.23,0-.44,0-.67s.08-.63.09-1a3.72,3.72,0,0,0,0-.48c0-.21,0-1.24,0-1.49s0-1.2,0-1.43.06-2.18.1-2.75c0-.4.06-.8.06-1.2a5.51,5.51,0,0,0-.13-1.23,5.21,5.21,0,0,1-.06-.72,2.06,2.06,0,0,1,.21-.86c.19-.27.42-.29,1-.29h.36l.21,0h.15c.36,0,1.23,0,1.55,0s.5,0,.73,0a1.26,1.26,0,0,1,1.18.52,12.64,12.64,0,0,1,.69,1.11,4.52,4.52,0,0,0,.3.48,2.77,2.77,0,0,1,.44.67,2.62,2.62,0,0,0,.27.5,1.46,1.46,0,0,1,.21.27,3,3,0,0,1,.19.29c.29.38.36.5.61.5a.29.29,0,0,0,.27-.32s0-.69,0-.82v-.88" transform="translate(-305.55 -172.55)"/><path class="cls-2" d="M439.2,375.18c0-.23-.06-1.37-.06-1.64,0-.57.13-1.36,1.19-1.36l1,.06a3,3,0,0,0,.61-.06,8,8,0,0,1,.84,0c.54,0,1.07,0,1.61.06h1a8.06,8.06,0,0,1,2.1.34c.06,0,.84.37.9.41.21.09.38.23.59.34s.38.19.57.29a3.78,3.78,0,0,1,1.57,1.36c.08.11.13.23.21.34s.29.34.44.53a5.24,5.24,0,0,1,.77,2.77,13.06,13.06,0,0,1-.15,1.86,7.23,7.23,0,0,1-.3,1,3.39,3.39,0,0,1-1,1.7,4.54,4.54,0,0,1-.42.52,3.24,3.24,0,0,1-.63.5c-.15.09-1,.48-1.17.55a9.07,9.07,0,0,1-.84.42,6.49,6.49,0,0,1-1.74.38,12,12,0,0,1-1.89.19c-.29,0-1.7-.07-2-.07s-1.45.09-1.74.09a1.45,1.45,0,0,1-1.3-.52c-.17-.25-.17-.38-.17-.86a4,4,0,0,1,.05-.67,5.66,5.66,0,0,0,.06-.75c0-.29,0-.59,0-.88s0-.88,0-1.05,0-.63-.05-1c-.06-.61-.08-1.23-.08-1.84s0-1.05,0-1.32c0-.5,0-.55,0-.71s0-.84,0-1Zm5.33,2.24a2.36,2.36,0,0,0-.19,1c0,.12,0,.67.06.79s0,.54,0,.63a1.62,1.62,0,0,0,.08.55.65.65,0,0,0,.54.33l.59-.12a4.75,4.75,0,0,0,1-.23,1.64,1.64,0,0,0,.36-.29,1.56,1.56,0,0,0,.42-1.26,1.48,1.48,0,0,0-.31-1,1.84,1.84,0,0,0-1.42-.65c-.17,0-.46-.08-.63-.08a.68.68,0,0,0-.48.25" transform="translate(-305.55 -172.55)"/><path class="cls-2" d="M461.85,377.15l1-.06c.73,0,1,.1,1,.84,0,.07,0,.5,0,.59s.08,1,.08,1.2c0,.69-.31.77-.57.8a4.5,4.5,0,0,1-.46,0,1.38,1.38,0,0,0-.31,0l-1.82,0-.86,0c-.17,0-.75,0-.75.42,0,.59.73.59,1.17.59.12,0,.29,0,.65-.06a4.93,4.93,0,0,1,.82,0l.71,0a5.29,5.29,0,0,0,.86,0c.48,0,.59.12.69.23a1.27,1.27,0,0,1,.34,1c0,.1,0,.54,0,.63s0,.88,0,1.05c0,1-.19,1.36-1,1.36l-1.22-.05c-.11,0-.36,0-.73.05a10.25,10.25,0,0,1-1,.06l-.77,0a14.74,14.74,0,0,0-2.41,0l-.61,0a5.36,5.36,0,0,0-1.24,0l-.65,0c-.92,0-.94-.54-.94-.94,0-.14.06-.71.06-.84,0-.3,0-1.81.06-2.14,0-.17.08-1,.08-1.18a8.57,8.57,0,0,0-.06-1,5.72,5.72,0,0,1,0-.91s0-.4,0-.42a2.43,2.43,0,0,1,0-.44c0-.17-.06-1-.06-1.2,0-.38.06-.77.08-1.17a5.07,5.07,0,0,0,0-.55c0-.3,0-.63,0-.94a5.63,5.63,0,0,1,0-.57c0-1.05.57-1.28,1.22-1.28l.79.05,1.17,0,1.09,0a3.3,3.3,0,0,1,.38,0,.67.67,0,0,0,.21,0l.13,0h.11l.27,0,.27,0a1,1,0,0,0,.21,0h.21a1.17,1.17,0,0,1,.23,0l.23,0,.27,0s.94-.07,1-.07l.5,0h.44l.4,0a1.6,1.6,0,0,1,.54.05c.46.25.46,1,.46,1.15s0,.48,0,.71.08.9.08,1.07a1.37,1.37,0,0,1-.15.71.5.5,0,0,1-.54.32l-.52,0-.73,0c-.13,0-.78-.08-.92-.08s-.69.06-.82.06l-.63,0c-.3,0-.73,0-.73.44s.38.55,1.34.55l.71-.06.44,0h.4" transform="translate(-305.55 -172.55)"/><path class="cls-2" d="M466.28,375.18c0-.23-.06-1.37-.06-1.64,0-.57.13-1.36,1.18-1.36l1,.06a3,3,0,0,0,.61-.06,8.06,8.06,0,0,1,.84,0c.54,0,1.07,0,1.61.06h1a8.06,8.06,0,0,1,2.1.34c.06,0,.84.37.9.41.21.09.38.23.59.34s.38.19.57.29a3.78,3.78,0,0,1,1.57,1.36c.08.11.13.23.21.34s.29.34.44.53a5.24,5.24,0,0,1,.77,2.77,13.05,13.05,0,0,1-.15,1.86,7.26,7.26,0,0,1-.3,1,3.39,3.39,0,0,1-1,1.7,4.52,4.52,0,0,1-.42.52,3.23,3.23,0,0,1-.63.5c-.15.09-1,.48-1.17.55s-.55.3-.84.42a6.49,6.49,0,0,1-1.74.38,12,12,0,0,1-1.89.19c-.29,0-1.7-.07-2-.07s-1.46.09-1.74.09a1.45,1.45,0,0,1-1.3-.52c-.17-.25-.17-.38-.17-.86a3.94,3.94,0,0,1,.05-.67,5.65,5.65,0,0,0,.06-.75c0-.29,0-.59,0-.88s0-.88,0-1.05,0-.63-.05-1c-.06-.61-.08-1.23-.08-1.84s0-1.05,0-1.32c0-.5,0-.55,0-.71s0-.84,0-1Zm5.33,2.24a2.38,2.38,0,0,0-.19,1c0,.12,0,.67.06.79s0,.54,0,.63a1.61,1.61,0,0,0,.08.55.65.65,0,0,0,.54.33l.59-.12a4.75,4.75,0,0,0,1-.23,1.65,1.65,0,0,0,.36-.29,1.57,1.57,0,0,0,.42-1.26,1.47,1.47,0,0,0-.31-1,1.84,1.84,0,0,0-1.41-.65c-.17,0-.46-.08-.63-.08a.69.69,0,0,0-.48.25" transform="translate(-305.55 -172.55)"/><path class="cls-2" d="M416.14,358.21c0-.14,0-.69,0-.82a1.58,1.58,0,0,1,.13-.69,1.28,1.28,0,0,1,1.22-.65,2.92,2.92,0,0,0,.5,0c.13,0,.73,0,.86,0l.65,0,.46,0c.23,0,1.42-.08,1.49-.08.4,0,.8.08,1.2.1l.94,0a7.18,7.18,0,0,1,1.64.23,3.89,3.89,0,0,1,1,.32,3.59,3.59,0,0,1,1,.67,1.64,1.64,0,0,1,.46.52,2.36,2.36,0,0,1,.21.29c.08.11.13.25.21.38s.14.19.19.29a4.81,4.81,0,0,1,.29.53,4.59,4.59,0,0,1,.34,1.51,2.93,2.93,0,0,1-.09.65,4.16,4.16,0,0,1-.48,1.55,2.9,2.9,0,0,1-1.78,1.6c-.13.06-.32.14-.32.37a.34.34,0,0,0,.27.29,2.57,2.57,0,0,0,.55.11,4.92,4.92,0,0,0,.5,0c.08,0,.44-.06.53-.06.29,0,1,0,1,1,0,.15-.08.92-.08,1.09,0,.35.06.71.06,1.07,0,1-.52,1.15-.9,1.15l-.42,0-.84,0a7.75,7.75,0,0,1-1.32-.09,7.85,7.85,0,0,1-1.89-1.09c-.17-.12-.36-.23-.53-.36l-.92-.71a2.11,2.11,0,0,0-.4-.1c-.27,0-.4.29-.4.54a4.75,4.75,0,0,0,0,.52,2.2,2.2,0,0,1,.1.31.54.54,0,0,1,0,.19.71.71,0,0,1-.78.8l-.71,0-1,0a2.12,2.12,0,0,1-.36,0c-.12,0-.61-.07-.73-.07s-.8.07-1,.07a.81.81,0,0,1-.9-.88,2.48,2.48,0,0,1,0-.38,6.6,6.6,0,0,0,.08-.9c0-.25,0-1,0-1.26,0-.06-.08-.63-.08-.63,0-.27.06-.54.08-.78s0-.52,0-.61.08-.86.08-1v-2s0-.29,0-.36v-.36c0-.17-.08-1-.1-1.22v-.94Zm5.26,3c0,.06,0,.32,0,.38s0,.3,0,.36c0,.54.3.63.59.63a3,3,0,0,0,.88-.17,1.27,1.27,0,0,0,.75-.42.64.64,0,0,0,.25-.55.8.8,0,0,0-.44-.84c-.23-.14-.27-.14-.71-.17a.9.9,0,0,1-.25,0l-.36-.07c-.73,0-.73.32-.73.88" transform="translate(-305.55 -172.55)"/><path class="cls-2" d="M438.93,361l1-.05c.73,0,1,.09,1,.84,0,.08,0,.5,0,.59s.08,1,.08,1.2c0,.69-.31.77-.57.8a3,3,0,0,1-.46,0,1.63,1.63,0,0,0-.31,0l-1.82,0-.86,0c-.17,0-.75,0-.75.42,0,.59.73.59,1.17.59.11,0,.29,0,.65-.06a4.94,4.94,0,0,1,.82,0l.71,0a6.29,6.29,0,0,0,.86,0c.48,0,.59.11.69.23a1.27,1.27,0,0,1,.34,1c0,.1,0,.54,0,.63s0,.88,0,1.05c0,1-.19,1.36-1,1.36l-1.23-.06-.72.06a10.27,10.27,0,0,1-1,.06l-.76,0a14.29,14.29,0,0,0-2.41,0l-.61,0a5.36,5.36,0,0,0-1.24,0l-.65,0c-.92,0-.94-.54-.94-.94,0-.13.06-.71.06-.84,0-.31,0-1.82.06-2.14,0-.17.08-1,.08-1.18a9,9,0,0,0-.06-1,5.43,5.43,0,0,1,0-.91s0-.41,0-.42a2.71,2.71,0,0,1,0-.44c0-.17-.06-1-.06-1.2,0-.38.06-.77.08-1.17a5.07,5.07,0,0,0,0-.55c0-.3,0-.63,0-.93a5.5,5.5,0,0,1,0-.57c0-1.05.57-1.28,1.22-1.28l.78.05,1.17,0,1.09,0a2.62,2.62,0,0,1,.38,0,.8.8,0,0,0,.21,0l.13,0H436l.27,0,.27,0a1,1,0,0,0,.21,0H437a1.18,1.18,0,0,1,.23,0l.23,0,.27,0s.94-.07,1-.07l.5,0h.44l.4,0a1.61,1.61,0,0,1,.54.05c.46.25.46,1,.46,1.15s0,.48,0,.71.08.9.08,1.07a1.4,1.4,0,0,1-.15.71.5.5,0,0,1-.54.32l-.52,0-.73,0c-.13,0-.78-.07-.92-.07l-.82.06-.63,0c-.31,0-.73,0-.73.44s.38.55,1.34.55l.71-.06.44,0h.4" transform="translate(-305.55 -172.55)"/><path class="cls-2" d="M443.37,359c0-.23-.06-1.37-.06-1.64,0-.57.13-1.36,1.19-1.36l1,.06a3.17,3.17,0,0,0,.61-.06,6.78,6.78,0,0,1,.84,0c.53,0,1.07,0,1.61.06h1a8.25,8.25,0,0,1,2.1.34c.06,0,.84.37.9.41.21.09.38.23.59.34s.38.2.57.29a3.81,3.81,0,0,1,1.57,1.36c.08.11.13.23.21.34s.29.34.44.54a5.25,5.25,0,0,1,.77,2.77,13.06,13.06,0,0,1-.15,1.86,7.09,7.09,0,0,1-.3,1,3.42,3.42,0,0,1-1,1.7,5.29,5.29,0,0,1-.42.52,3,3,0,0,1-.63.5c-.15.09-1,.48-1.17.55a8.2,8.2,0,0,1-.84.42,6.32,6.32,0,0,1-1.74.38,11.52,11.52,0,0,1-1.89.19c-.29,0-1.7-.08-2-.08s-1.45.1-1.74.1a1.46,1.46,0,0,1-1.3-.52c-.17-.25-.17-.38-.17-.86a4,4,0,0,1,.05-.67,5.65,5.65,0,0,0,.06-.74c0-.29,0-.59,0-.88s0-.88,0-1.05,0-.63-.05-1c-.06-.61-.08-1.22-.08-1.84s0-1.05,0-1.32c0-.5,0-.55,0-.71s0-.84,0-1Zm5.33,2.24a2.36,2.36,0,0,0-.19,1c0,.12,0,.67.06.79s0,.54,0,.63a1.62,1.62,0,0,0,.08.55.63.63,0,0,0,.54.32l.59-.11a4.31,4.31,0,0,0,1-.23,1.64,1.64,0,0,0,.36-.29,1.56,1.56,0,0,0,.42-1.26,1.47,1.47,0,0,0-.31-1,1.85,1.85,0,0,0-1.41-.65c-.17,0-.46-.08-.63-.08a.7.7,0,0,0-.48.25" transform="translate(-305.55 -172.55)"/><path class="cls-2" d="M396.41,347.88c0-.21,0-.44-.08-.65a8.61,8.61,0,0,1-.11-1.07,10.78,10.78,0,0,1,.19-1.78c.1-.32.27-.61.38-.92s.19-.55.33-.82a3.48,3.48,0,0,1,.4-.67,4.64,4.64,0,0,1,1.32-1.18,3.93,3.93,0,0,1,2.18-1,6.81,6.81,0,0,1,1.78-.23,8.61,8.61,0,0,1,2.37.21c.09,0,.5.19.59.44a5.78,5.78,0,0,1,0,.63c0,.17-.08,1.07-.08,1.28v.14c0,.23.13,1.26.13,1.49,0,1-.46,1.09-.82,1.09l-.75-.06c-.09,0-.55.06-.67.06l-.36,0h-.17a1.84,1.84,0,0,0-1,.31,1.43,1.43,0,0,0-.65,1.28,1.3,1.3,0,0,0,.08.46,3.08,3.08,0,0,0,.36.77,2.42,2.42,0,0,0,1.55.55c.25,0,.88-.16,1.24-.17h.13c.88,0,1.15.32,1.15,1.3,0,.16,0,.88,0,1.05,0,.34,0,.67,0,1a4.27,4.27,0,0,1,0,.61.9.9,0,0,1-.15.59,1.59,1.59,0,0,1-.92.59c-.13,0-.76,0-.92.05a6.38,6.38,0,0,1-1,.06,7,7,0,0,1-1.05-.15c-.36-.08-.77-.08-1.15-.16a5.42,5.42,0,0,1-.92-.27,3.69,3.69,0,0,1-1.74-1.28l-.46-.59a3.65,3.65,0,0,0-.33-.42,4.42,4.42,0,0,1-.92-2.57" transform="translate(-305.55 -172.55)"/><path class="cls-2" d="M407.06,351.38a14.86,14.86,0,0,0,.5-1.87,3.18,3.18,0,0,1,.17-.59c.12-.38.27-.73.36-1.11.13-.54.19-1.11.34-1.64s.31-.84.46-1.26c0-.13.1-.29.13-.44s.09-.46.15-.69.57-1.53.61-1.64.11-.44.17-.67.15-.44.23-.67a1.52,1.52,0,0,1,.52-.82,1.67,1.67,0,0,1,1.05-.27l1.38,0,1.22,0,.53,0c.17,0,1.05.08,1.24.08l.63,0a2.79,2.79,0,0,1,1,.18,2.21,2.21,0,0,1,.54.57,6.67,6.67,0,0,1,.34,1.09,2.5,2.5,0,0,0,.1.36c.06.23.1.46.15.67s.25.84.4,1.24a4.28,4.28,0,0,1,.33,1.32,7.77,7.77,0,0,0,.36,1.53c.08.31.15.63.25.94s.11.4.17.57a3,3,0,0,1,.19.52c.06.19.15.46.21.65s.1.44.15.67.11.36.15.54l.15.4s.21.8.21.82a1.36,1.36,0,0,1,0,.29,1,1,0,0,1-.9,1.13c-.19,0-.25,0-.86,0l-1.21.06-.42,0-.44,0-.4,0c-.67,0-.75-.13-1-.67-.36-.79-.52-1-1-1-.09,0-.59.08-.71.08a1.6,1.6,0,0,1-.3,0c-.19,0-1.07-.08-1.28-.08a1.07,1.07,0,0,0-.86.36c-.06.09-.29.63-.34.75a.8.8,0,0,1-.78.48l-1,0-1,0-.55,0-.67,0c-.13,0-1,0-1-.8a2.34,2.34,0,0,1,.27-1Zm6.63-6.59a4,4,0,0,0-.25.9,11.8,11.8,0,0,0-.29,1.16.43.43,0,0,0,.34.46,3.55,3.55,0,0,0,.63,0l.46,0c.36,0,.52-.13.52-.4a.91.91,0,0,0,0-.23c0-.17-.08-.34-.11-.5l-.11-.61c0-.13-.1-.25-.13-.38s-.11-.4-.19-.61-.09-.32-.36-.32-.31.09-.46.5" transform="translate(-305.55 -172.55)"/><path class="cls-2" d="M433.82,339.74a6.83,6.83,0,0,1,.69-.06,2.59,2.59,0,0,1,.65.09,1.71,1.71,0,0,1,.36.29,2.48,2.48,0,0,1,.21,1.13c0,.17,0,.34,0,.54s0,.36,0,.44,0,.57,0,.67-.06.42-.08.63-.1.9-.1,1,0,.25,0,.59,0,.59,0,.9c0,.46,0,.92,0,1.4,0,.07,0,.48,0,.57a7,7,0,0,1-.25,1.78l-.17.44a3.07,3.07,0,0,1-.13.44c-.1.2-.23.39-.34.57a5.23,5.23,0,0,1-.31.58,2.73,2.73,0,0,1-.78.8,3.12,3.12,0,0,1-.27.17L433,353a4.93,4.93,0,0,1-2,.52l-.65,0a1.6,1.6,0,0,0-.31,0l-.46.05h-.23l-.61,0-.63,0-.61,0-.42,0a6,6,0,0,1-1.53-.38,2.11,2.11,0,0,1-.54-.34l-.9-.54a3.55,3.55,0,0,1-1.13-1.18c-.06-.1-.09-.19-.15-.29s-.21-.32-.29-.48-.29-.84-.31-1a1.5,1.5,0,0,1,0-.36c0-.14,0-.84,0-1s0-1,0-1.16,0-.84,0-1,0-.32,0-.48,0-.34,0-.42,0-.88,0-1.05-.06-1.26-.06-1.51.06-1,.06-1.16,0-.48,0-.55a1.5,1.5,0,0,1,.15-.57c.19-.32.54-.32.84-.32l.73,0,1.43,0,.58,0h.42c.46,0,1.18,0,1.18,1.09,0,.07-.08.52-.08.61a1.41,1.41,0,0,0,0,.29c0,.17.08,1,.08,1.13s-.06.54-.06.65,0,.65,0,.79a2.15,2.15,0,0,1,0,.34c0,.34-.11.69-.11,1,0,0,0,.46,0,.48,0,.17,0,1,0,1.15a1.23,1.23,0,0,0,.17.73,2,2,0,0,0,.27.36,2.7,2.7,0,0,0,.65.29c.13,0,.27,0,.4,0l.36,0a.73.73,0,0,0,.29,0c.19,0,.21-.05.5-.29s.46-.34.46-.9c0-.11,0-.65,0-.77s.08-.65.08-.78-.06-.4-.06-.61.06-.48.06-.55-.13-1.09-.13-1.3c0-.4.08-.82.08-1.22,0-.08,0-.5,0-.59s0-.42,0-.5-.08-.57-.08-.69a.65.65,0,0,1,.4-.67,2.46,2.46,0,0,1,.63-.11c.17,0,.34,0,.52,0h.61c.06,0,.1,0,.13,0h1.18" transform="translate(-305.55 -172.55)"/><path class="cls-2" d="M436.85,346.49c0-.27.08-.54.12-.8s0-.55.06-.82.1-.52.15-.77a3.8,3.8,0,0,1,.94-1.81c.17-.2.36-.37.53-.55s.31-.35.48-.52a3.15,3.15,0,0,1,1.11-.75,12.21,12.21,0,0,1,2.27-.67,18.69,18.69,0,0,1,2.22-.15l1.22,0h1.32c1.19,0,1.51.23,1.72.59s.15.33.15,1.26c0,.12,0,.61,0,.73s.06,1,.06,1.18,0,1-1,1c-.23,0-.67,0-.88,0s-.55-.06-.82-.06l-.82,0-1.07-.05a2,2,0,0,0-1.19.38,2,2,0,0,0-1.18,2,1.88,1.88,0,0,0,.52,1.3,2,2,0,0,0,1.76.79c.29,0,.67-.1.67-.42a.31.31,0,0,0-.35-.29l-.36,0c-.08,0-.61,0-.61-.52,0-.12.06-.65.06-.77s0-.65,0-.76c0-.84.57-.84.78-.84s1,.07,1.17.07l.34,0,.38,0,.59,0,1.11,0c.71,0,.82.13,1,.32a1.36,1.36,0,0,1,.36,1.15c0,.21-.06,1.22-.06,1.45s0,1.51,0,1.78,0,.94,0,1.11v.63a2.22,2.22,0,0,1-.19,1,1,1,0,0,1-1,.52l-.61,0-.63,0-1.15.05-.54,0c-.21,0-.44,0-.53,0a2.66,2.66,0,0,0-.34,0l-.34,0a.72.72,0,0,1-.17,0h-.71a9,9,0,0,1-1.86-.29,4.3,4.3,0,0,1-1.74-.9l-.82-.61a8.64,8.64,0,0,1-1.3-1.78c-.06-.13-.12-.29-.17-.44s-.17-.32-.25-.5a5.44,5.44,0,0,1-.34-2v-.21" transform="translate(-305.55 -172.55)"/><path class="cls-2" d="M451.65,348.44c0-.12,0-.67,0-.78a1.89,1.89,0,0,1,0-.31,10.12,10.12,0,0,0,.06-1.05c0-.07,0-.67,0-.72v-.9c0-.07,0-.38,0-.46s0-.54,0-.63,0-.73,0-.86a8.11,8.11,0,0,0,0-.86c0-.27-.08-.55-.08-.82,0-.07,0-.65.06-.69a.77.77,0,0,1,.71-.65,1.68,1.68,0,0,1,.32,0l.42,0a3.44,3.44,0,0,0,.63,0,1.42,1.42,0,0,1,.3,0l.63,0,.69,0,.34,0,.36,0a.83.83,0,0,1,.82.48,1.29,1.29,0,0,1,.07.55c0,.11-.11.67-.11.8s.06.63.06.76,0,.54,0,.63a.75.75,0,0,0,.55.75c.1,0,1.22.09,1.28.09a2.69,2.69,0,0,0,.73-.15.76.76,0,0,0,.52-.79c0-.13,0-.86,0-1s0-.52,0-.61,0-.42,0-.5a1.08,1.08,0,0,1,.25-.75c.19-.21.34-.23.8-.23l.59.06.55,0,.5,0,.65.06.8-.06c.92,0,1,.46,1,.86,0,.11-.08.73-.08.86s0,.29,0,.34a2.51,2.51,0,0,1,0,.38v.52a5.67,5.67,0,0,0,0,.57c0,.31.06.59.06.88a3.94,3.94,0,0,1,0,.44,15.81,15.81,0,0,0-.08,1.63c0,.25,0,1.43,0,1.7v.75c0,.17.06,1,.06,1.22s-.08,1-.08,1.2.1.86.1,1c0,.84-.5,1.16-1,1.16l-.32,0a2.36,2.36,0,0,0-.33,0,2.29,2.29,0,0,0-.36,0l-.37,0-.46,0-.48,0-1,0c-.88,0-1-.46-1-1.07,0-.21,0-.4,0-.61s-.08-.59-.08-.71,0-.54,0-.73a1.09,1.09,0,0,0,0-.29.78.78,0,0,0-.46-.69,6.15,6.15,0,0,0-.86-.06,3.41,3.41,0,0,0-.71.08c-.08,0-.44,0-.52.05-.38.09-.42.54-.42.63s0,1,0,1.18,0,.54,0,.65.06.44.06.54a.88.88,0,0,1-.94,1l-.5,0-.52,0-.54,0-.67,0-1.07,0c-.69,0-1-.19-1.09-.65,0-.13,0-.82,0-1v-.27a2.84,2.84,0,0,1,0-.36,4.58,4.58,0,0,0,0-.46c0-.25-.06-1.39-.06-1.64,0-.05,0-.34,0-.4v0" transform="translate(-305.55 -172.55)"/><path class="cls-2" d="M465.81,342.42c0-.1,0-.55,0-.65s-.07-.92-.07-1.09A1,1,0,0,1,466,340c.15-.21.3-.3.76-.3l.54,0,.8.05c.21,0,.63,0,.73,0s.44,0,.67,0c.59,0,.65,0,.84,0,.36,0,.75,0,1.13,0s1.38,0,1.82,0h.19c.29,0,.57,0,.86-.06s.36,0,.54,0c.76,0,1.55,0,1.55,1.09,0,.11,0,.23,0,.34s0,.3-.06.46V342c0,.06,0,.5,0,.73s0,.52,0,.61c0,.55-.23.82-.73.82-.11,0-.63-.06-.76-.06-1.17,0-1.3.63-1.3,1.28V346c0,.08,0,.4,0,.48,0,.33,0,.65,0,1,0,.11-.06.69-.06.82s0,.5,0,.57v2a4.9,4.9,0,0,0,0,.55,6.76,6.76,0,0,1,.11.82,1,1,0,0,1-.34.79c-.17.15-.32.27-1.57.27l-.65,0-.67,0-1,0a1.53,1.53,0,0,1-1-.42,1.58,1.58,0,0,1-.15-.69s0-.42.05-.63,0-.44,0-.65-.06-1.47-.06-1.76.1-1.43.1-1.72,0-1.21,0-1.43,0-.67,0-.79c0-.35-.05-.94-.55-1a2.4,2.4,0,0,0-.37,0l-.4-.07a5.67,5.67,0,0,1-.59,0c-.65-.14-.73-.59-.71-1.05v-.55" transform="translate(-305.55 -172.55)"/></svg>