<svg id="Layer_1" data-name="Layer 1" xmlns="http://www.w3.org/2000/svg" viewBox="0 0 51.33 44.92"><defs><style>.cls-1{fill:#fff;}</style></defs><title>crh_twitter</title><path class="cls-1" d="M346.33,223.4a19.54,19.54,0,0,1-6.06,1.79,11.27,11.27,0,0,0,4.65-6.26,21.15,21.15,0,0,1-6.7,2.76,10.15,10.15,0,0,0-7.68-3.59c-5.82,0-10.53,5.07-10.53,11.34a12.44,12.44,0,0,0,.26,2.57,29.24,29.24,0,0,1-21.71-11.83,12,12,0,0,0-1.42,5.7,11.51,11.51,0,0,0,4.69,9.42,9.94,9.94,0,0,1-4.77-1.41V234a11.19,11.19,0,0,0,8.45,11.12,9.93,9.93,0,0,1-2.78.38,8.36,8.36,0,0,1-2-.2,10.61,10.61,0,0,0,9.83,7.87A20.11,20.11,0,0,1,297.51,258a19.3,19.3,0,0,1-2.51-.16A28.17,28.17,0,0,0,311.15,263c19.37,0,30-17.28,30-32.26,0-.48,0-1,0-1.45a22.94,22.94,0,0,0,5.26-5.89" transform="translate(-295 -218.08)"/></svg>