<svg id="Layer_1" data-name="Layer 1" xmlns="http://www.w3.org/2000/svg" viewBox="0 0 470.2 30.36"><defs><style>.cls-1{fill:#ed3024;}</style></defs><title>CRH_Type_1-line_CMYK_export-as</title><path class="cls-1" d="M614.81,301.74c.38,0,1,.13,1.37.17a4,4,0,0,1,3.08,1.41,3.19,3.19,0,0,1,.67,2.08,3.42,3.42,0,0,1-.92,2.74,3.71,3.71,0,0,1-.79.62,9.58,9.58,0,0,1-2.16.5l-1.29.25a1.4,1.4,0,0,1-1.17-.71,3.64,3.64,0,0,1-.17-1.21c0-.21,0-1.16,0-1.37s-.12-1.46-.12-1.71a5.15,5.15,0,0,1,.42-2.25,1.5,1.5,0,0,1,1-.54m-12.6-2.16c0,.33,0,.46-.08,1.54,0,.58-.08,1.5-.08,2.87s0,2.66.17,4c0,.71.12,1.46.12,2.08,0,.38,0,2,0,2.29,0,.62.08,1.29.08,1.91a12.54,12.54,0,0,1-.12,1.62,8.12,8.12,0,0,0-.12,1.46c0,1,0,1.33.38,1.87a3.17,3.17,0,0,0,2.83,1.12c.62,0,3.24-.21,3.79-.21.71,0,3.78.17,4.41.17a26.08,26.08,0,0,0,4.12-.42,14,14,0,0,0,3.78-.83,18.8,18.8,0,0,0,1.83-.92c.42-.17,2.2-1,2.54-1.21a6.84,6.84,0,0,0,1.37-1.08,12,12,0,0,0,.91-1.12,7.4,7.4,0,0,0,2.12-3.7,15.9,15.9,0,0,0,.67-2.16,28,28,0,0,0,.33-4c0-1.16-.29-4.2-1.66-6-.33-.41-.67-.75-1-1.16-.17-.25-.29-.5-.46-.75a8.28,8.28,0,0,0-3.41-3c-.42-.21-.83-.37-1.25-.62s-.83-.54-1.29-.75c-.12-.08-1.83-.83-2-.87a17.46,17.46,0,0,0-4.57-.75h-2.12c-1.16,0-2.33-.12-3.49-.12a15.12,15.12,0,0,0-1.83.08,7.06,7.06,0,0,1-1.33.13c-.33,0-1.91-.12-2.25-.12-2.29,0-2.58,1.71-2.58,3,0,.58.13,3.08.13,3.58,0,.33,0,1.87,0,2.16m-9.92,2.12-1,0c-.25,0-1.29.13-1.54.13-2.08,0-2.91,0-2.91-1.21,0-1,.91-1,1.58-1,.21,0,1.17.08,1.37.08s1.5-.12,1.79-.12,1.71.17,2,.17l1.58,0,1.12,0a1.1,1.1,0,0,0,1.17-.71,3,3,0,0,0,.33-1.54c0-.37-.17-2-.17-2.33,0-.5,0-1,0-1.54s0-2-1-2.5a3.33,3.33,0,0,0-1.16-.12l-.87,0h-1l-1.08,0c-.08,0-2,.13-2.12.17a4.65,4.65,0,0,1-.58,0c-.08,0-.29,0-.5,0a2.63,2.63,0,0,0-.5,0h-.46a2.26,2.26,0,0,1-.46,0c-.08,0-.33,0-.58,0a3.63,3.63,0,0,0-.58,0h-.25a.93.93,0,0,1-.29,0,1.8,1.8,0,0,1-.46-.08,5.79,5.79,0,0,0-.83,0c-.37,0-2,.08-2.37.08-.71,0-1.83,0-2.54,0-.25,0-1.46-.12-1.7-.12-1.41,0-2.66.5-2.66,2.79,0,.42,0,.83.08,1.25,0,.67.08,1.37.08,2a11.45,11.45,0,0,1,0,1.21c0,.87-.17,1.71-.17,2.54,0,.42.13,2.25.13,2.62a5.31,5.31,0,0,0,0,1s0,.91,0,.91a12.13,12.13,0,0,0,.08,2,18.68,18.68,0,0,1,.13,2.16c0,.42-.12,2.2-.17,2.58,0,.71-.08,4-.12,4.66,0,.29-.12,1.54-.12,1.83,0,.87,0,2,2,2,.25,0,.71,0,1.41-.08a12,12,0,0,1,2.7,0c.58,0,1.16,0,1.33,0a31.78,31.78,0,0,1,5.24,0c.71,0,1.41.08,1.66.08.58,0,1.5,0,2.25-.12s1.33-.12,1.58-.12c.42,0,2.29.13,2.66.13,1.75,0,2.16-.71,2.16-3,0-.37-.08-2-.08-2.29s0-1.16,0-1.37a2.76,2.76,0,0,0-.75-2.12c-.21-.25-.46-.5-1.5-.5a13.92,13.92,0,0,1-1.87,0l-1.54,0a9.91,9.91,0,0,0-1.79.08c-.79.08-1.17.13-1.41.13-1,0-2.54,0-2.54-1.29,0-.92,1.25-.92,1.62-.92s1.58.08,1.87.08l4-.08a3.69,3.69,0,0,1,.67-.08,7.91,7.91,0,0,0,1,0c.58-.08,1.25-.25,1.25-1.75,0-.41-.17-2.24-.17-2.62,0-.21,0-1.12,0-1.29-.17-1.62-.67-1.83-2.25-1.83-.33,0-1.79.13-2.08.13Zm-35.51,0c.38,0,1,.13,1.37.17a4,4,0,0,1,3.08,1.41,3.19,3.19,0,0,1,.67,2.08,3.42,3.42,0,0,1-.92,2.74,3.71,3.71,0,0,1-.79.62,9.58,9.58,0,0,1-2.16.5l-1.29.25a1.4,1.4,0,0,1-1.17-.71,3.64,3.64,0,0,1-.17-1.21c0-.21,0-1.16,0-1.37s-.12-1.46-.12-1.71a5.15,5.15,0,0,1,.42-2.25,1.5,1.5,0,0,1,1-.54m-12.6-2.16c0,.33,0,.46-.08,1.54,0,.58-.08,1.5-.08,2.87s0,2.66.17,4c0,.71.12,1.46.12,2.08,0,.38,0,2,0,2.29,0,.62.08,1.29.08,1.91a12.54,12.54,0,0,1-.12,1.62,8.12,8.12,0,0,0-.12,1.46c0,1,0,1.33.38,1.87a3.17,3.17,0,0,0,2.83,1.12c.62,0,3.24-.21,3.78-.21.71,0,3.79.17,4.41.17a26.08,26.08,0,0,0,4.12-.42,14,14,0,0,0,3.78-.83,18.8,18.8,0,0,0,1.83-.92c.42-.17,2.2-1,2.54-1.21a6.84,6.84,0,0,0,1.37-1.08,12,12,0,0,0,.92-1.12,7.4,7.4,0,0,0,2.12-3.7,15.9,15.9,0,0,0,.67-2.16,28,28,0,0,0,.33-4c0-1.16-.29-4.2-1.66-6-.33-.41-.67-.75-1-1.16-.17-.25-.29-.5-.46-.75a8.28,8.28,0,0,0-3.41-3c-.42-.21-.83-.37-1.25-.62s-.83-.54-1.29-.75c-.12-.08-1.83-.83-2-.87a17.46,17.46,0,0,0-4.57-.75H555.5c-1.16,0-2.33-.12-3.49-.12a15.1,15.1,0,0,0-1.83.08,7.06,7.06,0,0,1-1.33.13c-.33,0-1.91-.12-2.25-.12-2.29,0-2.58,1.71-2.58,3,0,.58.13,3.08.13,3.58,0,.33,0,1.87,0,2.16m-15.45-2c0,.29.08,1.75.08,1.79a.63.63,0,0,1-.58.71c-.54,0-.71-.25-1.33-1.08a5.37,5.37,0,0,0-.42-.62,3.11,3.11,0,0,0-.46-.58,5.4,5.4,0,0,1-.58-1.08,6.28,6.28,0,0,0-1-1.46,8.72,8.72,0,0,1-.67-1,27.3,27.3,0,0,0-1.5-2.41,2.73,2.73,0,0,0-2.58-1.12c-.5,0-1,0-1.58.08-.71,0-2.58,0-3.37,0h-.33c-.12,0-.29,0-.46,0h-.79c-1.21,0-1.71,0-2.12.62a4.51,4.51,0,0,0-.46,1.87,11.46,11.46,0,0,0,.13,1.58,11.85,11.85,0,0,1,.29,2.66c0,.87-.08,1.75-.12,2.62-.08,1.25-.21,5.2-.21,6,0,.5,0,2.7,0,3.12s.08,2.79.08,3.24a8.47,8.47,0,0,1,0,1c0,.71-.17,1.37-.21,2.08,0,.5,0,1,0,1.46a10.35,10.35,0,0,0-.08,1.12,1.89,1.89,0,0,0,1.91,2.08c.38,0,2-.12,2.37-.12s2.12.08,2.45.08,1.62-.08,1.87-.08,1.25.13,1.46.13a1.58,1.58,0,0,0,1.58-1,6.66,6.66,0,0,0,.08-.75c0-.25-.17-1.33-.17-1.54v-.42c0-.5,0-2.7,0-3.16,0-.25,0-1.25,0-1.41,0-.54,0-1.42.75-1.42a1,1,0,0,1,.71.5,6.6,6.6,0,0,1,.46.71c.17.21.38.46.54.71s.21.37.33.54c.25.42,1.54,2,1.79,2.29.42.58.75,1.21,1.17,1.79a12.69,12.69,0,0,0,1.58,1.83c.17.21.42.42.58.62.5.58.71.83,3,.83a4.6,4.6,0,0,0,.87-.08c.87-.08,2.08-.12,2.29-.12s1.62.17,1.91.17c1.16,0,2.16-.54,2.16-1.91,0-.5-.12-1-.17-1.41a10.79,10.79,0,0,1,0-1.16c0-.91,0-5.07,0-5.9,0-.67-.25-3.62-.25-4.2,0-.42,0-.54.12-2,.08-.87.08-1.7.08-2.75,0-.5-.08-2.74-.08-3.2s.17-2.08.21-2.45c0-.17,0-1.79,0-1.79a2.52,2.52,0,0,0-1.25-2.45,7.31,7.31,0,0,0-2.12-.33c-.83,0-1.71.12-2.54.12l-1.29-.08-1.75,0c-1,0-1.54.12-2,.75a1.8,1.8,0,0,0-.54,1.33c0,.25.08,1.25.08,1.46,0,.5,0,1,0,1.41Zm-36,3.24c.58,0,.71.42.79.71.17.46.25.87.42,1.33.08.29.21.54.29.83.08.46.17.87.25,1.33s.17.71.25,1.08a2.07,2.07,0,0,1,.08.5c0,.58-.33.87-1.12.87l-1,0a7.77,7.77,0,0,1-1.37,0,.93.93,0,0,1-.75-1,25.12,25.12,0,0,1,.62-2.54,8.8,8.8,0,0,1,.54-2c.33-.87.58-1.08,1-1.08m-16,17.68c0,1.7,1.79,1.75,2.08,1.75s1.25-.08,1.46-.08l1.21,0,2.12,0c.33,0,1.83.08,2.16.08a1.76,1.76,0,0,0,1.7-1c.13-.25.62-1.41.75-1.62a2.3,2.3,0,0,1,1.87-.79c.46,0,2.37.17,2.79.17a3.54,3.54,0,0,0,.66,0c.25,0,1.33-.17,1.54-.17,1.12,0,1.46.37,2.25,2.08.54,1.16.71,1.46,2.16,1.46l.87,0c.17,0,.54,0,1,0s.79.08.92.08c.42,0,2.25-.12,2.62-.12a16.17,16.17,0,0,0,1.87,0,2.22,2.22,0,0,0,2-2.45,3.18,3.18,0,0,0-.08-.62s-.46-1.7-.46-1.79-.29-.75-.33-.87c-.08-.37-.25-.79-.33-1.16s-.21-1-.33-1.46-.33-1-.46-1.41a6.18,6.18,0,0,0-.42-1.12q-.19-.56-.37-1.25c-.21-.67-.37-1.37-.54-2a17,17,0,0,1-.79-3.33,9.37,9.37,0,0,0-.71-2.87c-.33-.87-.71-2.12-.87-2.7s-.21-1-.33-1.45a5.39,5.39,0,0,1-.21-.79,14.62,14.62,0,0,0-.75-2.37,4.82,4.82,0,0,0-1.17-1.25,6.18,6.18,0,0,0-2.08-.37L497,291c-.42,0-2.33-.17-2.7-.17l-1.16.08c-.54,0-2.08.08-2.66.08s-2.58-.08-3-.08a3.61,3.61,0,0,0-2.29.58,3.3,3.3,0,0,0-1.12,1.79c-.17.5-.33,1-.5,1.46a15,15,0,0,1-.37,1.46c-.08.25-1.21,3.16-1.33,3.58s-.25,1-.33,1.5c-.08.33-.21.67-.29,1-.33.91-.71,1.83-1,2.74-.33,1.16-.46,2.41-.75,3.58-.21.83-.54,1.58-.79,2.41a6.6,6.6,0,0,0-.37,1.29,33.2,33.2,0,0,1-1.08,4.08,5.09,5.09,0,0,0-.58,2.25M445.57,310c0,.13,0,.75,0,.87,0,.54.13,3,.13,3.58a9,9,0,0,1,0,1,6.5,6.5,0,0,0-.08.79v.58c0,.33,0,1.83,0,2.12.17,1,.87,1.41,2.37,1.41.37,0,2-.08,2.33-.08l1.45,0,1.17,0,1.12.08c.46,0,.91.08,1.08.08a1.92,1.92,0,0,0,2-2.25c0-.21-.12-1-.12-1.16s.08-1.21.08-1.41c0-.42-.08-2.2-.08-2.58,0-.21.08-1.16.92-1.37.17,0,1-.08,1.12-.12a7.63,7.63,0,0,1,1.54-.17,13.73,13.73,0,0,1,1.87.12,1.72,1.72,0,0,1,1,1.5,2.43,2.43,0,0,1,.08.62c0,.41,0,1.12,0,1.58,0,.25.17,1.33.17,1.54,0,.46-.08.87-.08,1.33,0,1.33.17,2.33,2.08,2.33.33,0,1.83-.08,2.12-.08s.62,0,1,0,.87.08,1,.08.5,0,.79,0a5,5,0,0,1,.79,0,5.07,5.07,0,0,1,.71,0c.29,0,.62,0,.71,0,1,0,2.12-.71,2.12-2.54,0-.37-.21-2-.21-2.25s.17-2.24.17-2.62-.12-2.29-.12-2.66v-1.62c0-.58-.08-3.16-.08-3.7a35.07,35.07,0,0,1,.17-3.53,8.89,8.89,0,0,0,0-1c0-.62-.08-1.25-.12-1.91,0-.42,0-.83,0-1.25v-1.12a5.7,5.7,0,0,0,.08-.83c0-.12,0-.62,0-.75,0-.29.17-1.62.17-1.87,0-.87-.25-1.87-2.25-1.87-.29,0-1.5.13-1.75.13s-1.21-.12-1.41-.12-.92.08-1.08.08l-1.21,0c-.21,0-1.12-.12-1.29-.12-1,0-1.33,0-1.75.5a2.35,2.35,0,0,0-.54,1.62c0,.17,0,1,0,1.08s0,1.16,0,1.33c0,.38.08,2,.08,2.25a1.65,1.65,0,0,1-1.12,1.7,6,6,0,0,1-1.58.33c-.12,0-2.58-.17-2.79-.21a1.63,1.63,0,0,1-1.21-1.62c0-.21,0-1.16,0-1.37s-.12-1.41-.12-1.66.25-1.5.25-1.75a2.72,2.72,0,0,0-.17-1.21,1.8,1.8,0,0,0-1.79-1c-.12,0-.46,0-.79,0s-.62.08-.75.08l-1.5-.08-1.37-.08a2.88,2.88,0,0,0-.67.08,7.63,7.63,0,0,1-1.37.08c-.54,0-.83,0-.92,0a4.58,4.58,0,0,0-.71-.08,1.68,1.68,0,0,0-1.54,1.41c0,.08-.12,1.33-.12,1.5,0,.58.12,1.21.17,1.79a17.25,17.25,0,0,1,.08,1.87c0,.29-.08,1.62-.08,1.87s0,1.17,0,1.37,0,.83,0,1v2c0,.12,0,1.41,0,1.58a21.7,21.7,0,0,1-.12,2.29,4,4,0,0,0,0,.67c0,.25,0,1.45,0,1.7Zm-28.66-8.23c.37,0,1,.13,1.37.17a4,4,0,0,1,3.08,1.41,3.2,3.2,0,0,1,.67,2.08,3.42,3.42,0,0,1-.92,2.74,3.69,3.69,0,0,1-.79.62,9.58,9.58,0,0,1-2.16.5l-1.29.25a1.4,1.4,0,0,1-1.17-.71,3.64,3.64,0,0,1-.17-1.21c0-.21,0-1.16,0-1.37s-.12-1.46-.12-1.71a5.15,5.15,0,0,1,.42-2.25,1.5,1.5,0,0,1,1-.54m-12.6-2.16c0,.33,0,.46-.08,1.54,0,.58-.08,1.5-.08,2.87s0,2.66.17,4c0,.71.12,1.46.12,2.08,0,.38,0,2,0,2.29,0,.62.08,1.29.08,1.91a12.54,12.54,0,0,1-.12,1.62,8.19,8.19,0,0,0-.12,1.46c0,1,0,1.33.37,1.87a3.17,3.17,0,0,0,2.83,1.12c.62,0,3.24-.21,3.79-.21.71,0,3.78.17,4.41.17a26.09,26.09,0,0,0,4.12-.42,14,14,0,0,0,3.78-.83,18.81,18.81,0,0,0,1.83-.92c.42-.17,2.2-1,2.54-1.21a6.84,6.84,0,0,0,1.37-1.08,11.88,11.88,0,0,0,.92-1.12,7.39,7.39,0,0,0,2.12-3.7,15.9,15.9,0,0,0,.66-2.16,28,28,0,0,0,.33-4c0-1.16-.29-4.2-1.66-6-.33-.41-.67-.75-1-1.16-.17-.25-.29-.5-.46-.75a8.28,8.28,0,0,0-3.41-3c-.42-.21-.83-.37-1.25-.62s-.83-.54-1.29-.75c-.12-.08-1.83-.83-2-.87a17.45,17.45,0,0,0-4.57-.75h-2.12c-1.16,0-2.33-.12-3.49-.12a15.13,15.13,0,0,0-1.83.08A7.06,7.06,0,0,1,409,291c-.33,0-1.91-.12-2.25-.12-2.29,0-2.58,1.71-2.58,3,0,.58.13,3.08.13,3.58,0,.33,0,1.87,0,2.16m-9.92,2.12-1,0c-.25,0-1.29.13-1.54.13-2.08,0-2.91,0-2.91-1.21,0-1,.91-1,1.58-1,.21,0,1.16.08,1.37.08s1.5-.12,1.79-.12,1.71.17,2,.17l1.58,0,1.12,0a1.1,1.1,0,0,0,1.16-.71,3,3,0,0,0,.33-1.54c0-.37-.17-2-.17-2.33,0-.5,0-1,0-1.54s0-2-1-2.5a3.33,3.33,0,0,0-1.16-.12l-.87,0h-1l-1.08,0c-.08,0-2,.13-2.12.17a4.66,4.66,0,0,1-.58,0c-.08,0-.29,0-.5,0a2.63,2.63,0,0,0-.5,0h-.46a2.28,2.28,0,0,1-.46,0c-.08,0-.33,0-.58,0a3.63,3.63,0,0,0-.58,0h-.25a.93.93,0,0,1-.29,0,1.81,1.81,0,0,1-.46-.08,5.79,5.79,0,0,0-.83,0c-.37,0-2,.08-2.37.08-.71,0-1.83,0-2.54,0-.25,0-1.46-.12-1.71-.12-1.41,0-2.66.5-2.66,2.79,0,.42,0,.83.08,1.25,0,.67.08,1.37.08,2a11.45,11.45,0,0,1,0,1.21c0,.87-.17,1.71-.17,2.54,0,.42.12,2.25.12,2.62a5.32,5.32,0,0,0,0,1s0,.91,0,.91a12,12,0,0,0,.08,2,18.9,18.9,0,0,1,.12,2.16c0,.42-.12,2.2-.17,2.58,0,.71-.08,4-.12,4.66,0,.29-.12,1.54-.12,1.83,0,.87,0,2,2,2,.25,0,.71,0,1.41-.08a12,12,0,0,1,2.7,0c.58,0,1.16,0,1.33,0a31.78,31.78,0,0,1,5.24,0c.71,0,1.41.08,1.66.08.58,0,1.5,0,2.25-.12s1.33-.12,1.58-.12c.42,0,2.29.13,2.66.13,1.75,0,2.16-.71,2.16-3,0-.37-.08-2-.08-2.29s0-1.16,0-1.37a2.76,2.76,0,0,0-.75-2.12c-.21-.25-.46-.5-1.5-.5a13.92,13.92,0,0,1-1.87,0l-1.54,0a9.92,9.92,0,0,0-1.79.08c-.79.08-1.16.13-1.41.13-1,0-2.54,0-2.54-1.29,0-.92,1.25-.92,1.62-.92s1.58.08,1.87.08l4-.08a3.69,3.69,0,0,1,.67-.08,7.91,7.91,0,0,0,1,0c.58-.08,1.25-.25,1.25-1.75,0-.41-.17-2.24-.17-2.62,0-.21,0-1.12,0-1.29-.17-1.62-.67-1.83-2.25-1.83-.33,0-1.79.13-2.08.13Zm-35-1.41a6.23,6.23,0,0,1,.79.17,2.35,2.35,0,0,0,.54,0,2.66,2.66,0,0,1,1.54.37,1.74,1.74,0,0,1,1,1.83,1.38,1.38,0,0,1-.54,1.21,2.74,2.74,0,0,1-1.62.91,6.73,6.73,0,0,1-1.91.37c-.62,0-1.29-.21-1.29-1.37,0-.12,0-.67,0-.79s-.08-.71-.08-.83c0-1.21,0-1.91,1.58-1.91m-13-2.66c0,.42.21,2.29.21,2.66v.79c0,.17,0,.71,0,.79v4.37c0,.37-.17,1.91-.17,2.25s0,1.12,0,1.33c0,.54-.17,1.12-.17,1.7,0,0,.13,1.25.17,1.37,0,.5,0,2.2,0,2.74a14.48,14.48,0,0,1-.17,2,5.08,5.08,0,0,0-.08.83,1.75,1.75,0,0,0,2,1.91c.37,0,1.83-.17,2.12-.17s1.33.17,1.58.17a4.73,4.73,0,0,0,.79,0c.33,0,1.91-.08,2.25-.08s1.29.08,1.54.08a1.55,1.55,0,0,0,1.71-1.75,1.3,1.3,0,0,0,0-.42,6,6,0,0,0-.21-.67,9.41,9.41,0,0,1-.08-1.12c0-.54.29-1.16.87-1.16a5.44,5.44,0,0,1,.87.21l2,1.54c.37.29.79.54,1.16.79a17,17,0,0,0,4.12,2.37,16.55,16.55,0,0,0,2.87.21c.58,0,1.21,0,1.83,0l.91,0c.83,0,2-.25,2-2.5,0-.79-.12-1.58-.12-2.33,0-.37.17-2,.17-2.37,0-2.2-1.5-2.2-2.12-2.2-.21,0-1,.13-1.16.13s-1,.08-1.08.08a5.66,5.66,0,0,1-1.21-.25.75.75,0,0,1-.58-.62c0-.5.42-.67.71-.79a6.32,6.32,0,0,0,3.87-3.49,8.93,8.93,0,0,0,1-3.37,6.54,6.54,0,0,0,.21-1.41,10,10,0,0,0-.75-3.28,10.25,10.25,0,0,0-.62-1.17c-.12-.21-.29-.42-.42-.62s-.29-.58-.46-.83a5.9,5.9,0,0,0-.46-.62,3.58,3.58,0,0,0-1-1.12,7.68,7.68,0,0,0-2.16-1.46,8,8,0,0,0-2.21-.71,15.56,15.56,0,0,0-3.58-.5l-2,0c-.87,0-1.75-.21-2.62-.21-.17,0-2.74.17-3.24.17l-1,0c-.25,0-1.21-.08-1.41-.08s-1.58,0-1.87,0a6.49,6.49,0,0,1-1.08.08,2.79,2.79,0,0,0-2.66,1.41,3.44,3.44,0,0,0-.29,1.5c0,.29,0,1.5,0,1.79Zm-34.81.37c0,1,.12,2,1.54,2.29a12.77,12.77,0,0,0,1.29.08c.29,0,.58.13.87.17a5.25,5.25,0,0,1,.79,0c1.08.13,1.21,1.41,1.21,2.16,0,.25,0,1.46,0,1.71,0,.5.08,2.7.08,3.12,0,.62-.21,3.2-.21,3.74s.13,3.29.13,3.83,0,1,0,1.41l-.12,1.37a3.44,3.44,0,0,0,.33,1.5,3.26,3.26,0,0,0,2.12.91c.38,0,1.91-.08,2.25-.08s.83,0,1.46,0l1.41.08c2.7,0,3-.25,3.41-.58a2.12,2.12,0,0,0,.75-1.71,14,14,0,0,0-.25-1.79,11.13,11.13,0,0,1-.08-1.21v-4.24c0-.17,0-1,0-1.25s.12-1.54.12-1.79c0-.71.08-1.41.08-2.12,0-.17-.08-.87-.08-1v-1.5c0-1.41.29-2.79,2.83-2.79.29,0,1.42.13,1.66.13,1.08,0,1.58-.58,1.58-1.79,0-.21-.08-1.12-.08-1.33,0-.5,0-1.45,0-1.58V295l.13-1c0-.25,0-.5,0-.75,0-2.37-1.7-2.37-3.37-2.37a10.78,10.78,0,0,0-1.16,0c-.62,0-1.25.13-1.87.13h-.42c-1,0-3.08,0-4,0s-1.66-.08-2.45-.08c-.41,0-.54,0-1.83.08-.5,0-1,0-1.45,0-.21,0-1.12,0-1.58,0-1-.08-1.08-.08-1.75-.12-.37,0-.79,0-1.16,0-1,0-1.33.21-1.66.67a2.15,2.15,0,0,0-.5,1.5c0,.38.17,2,.17,2.37s-.08,1.21-.08,1.41Zm-31.14,12c0,.13,0,.75,0,.87,0,.54.12,3,.12,3.58a9.22,9.22,0,0,1,0,1,6.3,6.3,0,0,0-.08.79v.58c0,.33,0,1.83,0,2.12.17,1,.87,1.41,2.37,1.41.38,0,2-.08,2.33-.08l1.46,0,1.17,0,1.12.08c.46,0,.92.08,1.08.08a1.92,1.92,0,0,0,2-2.25c0-.21-.12-1-.12-1.16s.08-1.21.08-1.41c0-.42-.08-2.2-.08-2.58,0-.21.08-1.16.92-1.37.17,0,1-.08,1.12-.12a7.62,7.62,0,0,1,1.54-.17,13.71,13.71,0,0,1,1.87.12,1.71,1.71,0,0,1,1,1.5,2.4,2.4,0,0,1,.08.62c0,.41,0,1.12,0,1.58,0,.25.17,1.33.17,1.54,0,.46-.08.87-.08,1.33,0,1.33.17,2.33,2.08,2.33.33,0,1.83-.08,2.12-.08s.62,0,1,0,.87.08,1,.08.5,0,.79,0a5,5,0,0,1,.79,0,5.05,5.05,0,0,1,.71,0c.29,0,.62,0,.71,0,1,0,2.12-.71,2.12-2.54,0-.37-.21-2-.21-2.25s.17-2.24.17-2.62-.12-2.29-.12-2.66v-1.62c0-.58-.08-3.16-.08-3.7a35.06,35.06,0,0,1,.17-3.53,8.68,8.68,0,0,0,0-1c0-.62-.08-1.25-.12-1.91a12.39,12.39,0,0,1,0-1.25v-1.12a5.57,5.57,0,0,0,.08-.83c0-.12,0-.62,0-.75,0-.29.17-1.62.17-1.87,0-.87-.25-1.87-2.25-1.87-.29,0-1.5.13-1.75.13s-1.21-.12-1.41-.12-.91.08-1.08.08l-1.21,0c-.21,0-1.12-.12-1.29-.12-1,0-1.33,0-1.75.5a2.35,2.35,0,0,0-.54,1.62c0,.17,0,1,0,1.08s0,1.16,0,1.33c0,.38.08,2,.08,2.25a1.65,1.65,0,0,1-1.12,1.7,6,6,0,0,1-1.58.33c-.12,0-2.58-.17-2.79-.21a1.63,1.63,0,0,1-1.21-1.62c0-.21,0-1.16,0-1.37s-.12-1.41-.12-1.66.25-1.5.25-1.75a2.73,2.73,0,0,0-.17-1.21,1.8,1.8,0,0,0-1.79-1c-.12,0-.46,0-.79,0s-.62.08-.75.08l-1.5-.08-1.37-.08a2.89,2.89,0,0,0-.67.08,7.62,7.62,0,0,1-1.37.08c-.54,0-.83,0-.92,0a4.59,4.59,0,0,0-.71-.08,1.68,1.68,0,0,0-1.54,1.41c0,.08-.12,1.33-.12,1.5,0,.58.13,1.21.17,1.79a17,17,0,0,1,.08,1.87c0,.29-.08,1.62-.08,1.87s0,1.17,0,1.37,0,.83,0,1v2c0,.12,0,1.41,0,1.58a21.7,21.7,0,0,1-.12,2.29,4.12,4.12,0,0,0,0,.67c0,.25,0,1.45,0,1.7Zm-31.58-3.87a11.86,11.86,0,0,0,.75,4.41c.17.37.37.75.54,1.08s.25.67.37,1a19,19,0,0,0,2.83,3.87c.21.17,1.5,1.12,1.79,1.33a9.42,9.42,0,0,0,3.79,2,19.38,19.38,0,0,0,4,.62h1.54a1.59,1.59,0,0,0,.37,0c.13,0,.46,0,.75,0a6.07,6.07,0,0,1,.75,0c.21,0,.71,0,1.16,0s1,0,1.17,0c.42,0,2.12-.12,2.49-.12.21,0,.79,0,1.37,0s1.16.08,1.33.08a2.28,2.28,0,0,0,2.25-1.12,4.88,4.88,0,0,0,.42-2.25v-1.37c0-.37,0-2,0-2.41,0-.58-.08-3.33-.08-3.87s.12-2.7.12-3.16a3,3,0,0,0-.79-2.5c-.42-.42-.67-.71-2.2-.71-.37,0-2.08.08-2.41.08l-1.29,0-.83-.08c-.25,0-.5,0-.75,0s-2.16-.17-2.54-.17-1.71,0-1.71,1.83c0,.25,0,1.41,0,1.66S264,307.73,264,308c0,1,1.16,1.12,1.33,1.12l.79,0a.67.67,0,0,1,.75.62c0,.71-.83.91-1.46.91a4.34,4.34,0,0,1-3.83-1.7,4.1,4.1,0,0,1-1.12-2.83,4.37,4.37,0,0,1,2.58-4.41,4.25,4.25,0,0,1,2.58-.83c.37,0,2,.13,2.33.13l1.79,0c.58,0,1.16.08,1.79.12.46,0,1.41,0,1.91,0,2.16,0,2.16-1.46,2.16-2.08,0-.41-.12-2.2-.12-2.58s.08-1.33.08-1.58c0-2,0-2.16-.33-2.74-.46-.79-1.17-1.29-3.74-1.29h-2.87l-2.66,0a39.76,39.76,0,0,0-4.82.33,26.11,26.11,0,0,0-4.95,1.46,6.87,6.87,0,0,0-2.41,1.62c-.37.37-.71.75-1,1.12s-.79.79-1.17,1.21a8.32,8.32,0,0,0-2,4c-.12.54-.25,1.08-.33,1.66s-.08,1.16-.12,1.79-.21,1.16-.25,1.75ZM240.15,291h-.21c-.08,0-.17,0-.29,0h-1.33c-.37,0-.75-.08-1.12-.08a5.42,5.42,0,0,0-1.37.25,1.41,1.41,0,0,0-.87,1.46c0,.25.17,1.29.17,1.5s0,.91,0,1.08,0,1.12,0,1.29c0,.87-.17,1.79-.17,2.66,0,.46.29,2.41.29,2.83,0,.17-.12,1-.12,1.21,0,.46.13.92.13,1.33s-.17,1.45-.17,1.7,0,1.41,0,1.66c0,1.21-.17,1.37-1,2-.62.5-.67.54-1.08.62a1.62,1.62,0,0,1-.62.08c-.12,0-.71-.08-.79-.08-.29,0-.58,0-.87,0a5.71,5.71,0,0,1-1.41-.62,4.33,4.33,0,0,1-.58-.79,2.66,2.66,0,0,1-.37-1.58c0-.42,0-2.12,0-2.49,0,0-.08-1-.08-1,0-.75.21-1.5.25-2.25a4.48,4.48,0,0,0,0-.75c0-.29,0-1.5,0-1.7s.13-1.21.13-1.41c0-.37-.17-2.08-.17-2.45a3.19,3.19,0,0,1,0-.62c0-.21.17-1.16.17-1.33,0-2.29-1.58-2.37-2.58-2.37h-.92l-1.25,0c-.5,0-2.66.08-3.12.08-.25,0-1.33-.08-1.58-.08-.67,0-1.41,0-1.83.71a3.27,3.27,0,0,0-.33,1.25c0,.17.08,1,.08,1.21,0,.38-.12,2.16-.12,2.54,0,.54.13,2.83.13,3.29s-.08,2-.08,2.29,0,.79,0,.91c0,.33,0,.71,0,1s.08,1.87.08,2.16-.08,2.16-.08,2.54,0,1.87,0,2.16a3.18,3.18,0,0,0,0,.79c0,.25.62,2,.67,2.08.17.33.41.67.62,1,.13.21.21.42.33.62a7.72,7.72,0,0,0,2.45,2.58c.29.17,1.7,1,2,1.17a4.62,4.62,0,0,0,1.16.75,13.29,13.29,0,0,0,3.33.83c.17,0,.79.08.92.08s1.12-.08,1.33-.08.79,0,1.37.08,1.16.08,1.33.08h.5l1-.12a3.54,3.54,0,0,1,.66,0l1.41,0a10.82,10.82,0,0,0,4.45-1.12c.25-.17.5-.37.75-.54s.42-.25.58-.37a5.92,5.92,0,0,0,1.71-1.75,11.93,11.93,0,0,0,.67-1.25c.25-.42.54-.83.75-1.25a6.49,6.49,0,0,0,.29-1c.13-.33.25-.62.37-1a15.11,15.11,0,0,0,.54-3.87c0-.21,0-1.08,0-1.25,0-1,.08-2,.08-3,0-.67,0-1.29-.08-2s-.08-1-.08-1.29.21-2,.21-2.2c0-.46.13-.91.17-1.37,0-.21,0-1.25,0-1.46s0-.83,0-1c0-.42,0-.79,0-1.16a5.37,5.37,0,0,0-.46-2.45,3.67,3.67,0,0,0-.79-.62,5.42,5.42,0,0,0-1.41-.21c-.5,0-1,.08-1.5.13Zm-40.47,9.9c.58,0,.71.42.79.71.17.46.25.87.42,1.33.08.29.21.54.29.83.08.46.17.87.25,1.33s.17.71.25,1.08a2.07,2.07,0,0,1,.08.5c0,.58-.33.87-1.12.87l-1,0a7.76,7.76,0,0,1-1.37,0,.93.93,0,0,1-.75-1,25.12,25.12,0,0,1,.62-2.54,8.8,8.8,0,0,1,.54-2c.33-.87.58-1.08,1-1.08m-16,17.68c0,1.7,1.79,1.75,2.08,1.75s1.25-.08,1.46-.08l1.21,0,2.12,0c.33,0,1.83.08,2.16.08a1.76,1.76,0,0,0,1.7-1c.13-.25.62-1.41.75-1.62a2.3,2.3,0,0,1,1.87-.79c.46,0,2.37.17,2.79.17a3.54,3.54,0,0,0,.66,0c.25,0,1.33-.17,1.54-.17,1.12,0,1.46.37,2.25,2.08.54,1.16.71,1.46,2.16,1.46l.87,0c.17,0,.54,0,1,0s.79.08.91.08c.42,0,2.25-.12,2.62-.12a16.18,16.18,0,0,0,1.87,0,2.22,2.22,0,0,0,2-2.45,3.26,3.26,0,0,0-.08-.62s-.46-1.7-.46-1.79-.29-.75-.33-.87c-.08-.37-.25-.79-.33-1.16s-.21-1-.33-1.46-.33-1-.46-1.41a6.18,6.18,0,0,0-.42-1.12q-.19-.56-.37-1.25c-.21-.67-.37-1.37-.54-2a16.89,16.89,0,0,1-.79-3.33,9.37,9.37,0,0,0-.71-2.87c-.33-.87-.71-2.12-.87-2.7s-.21-1-.33-1.45a5.39,5.39,0,0,1-.21-.79,14.62,14.62,0,0,0-.75-2.37,4.83,4.83,0,0,0-1.16-1.25,6.18,6.18,0,0,0-2.08-.37L204,291c-.42,0-2.33-.17-2.7-.17l-1.16.08c-.54,0-2.08.08-2.66.08s-2.58-.08-3-.08a3.61,3.61,0,0,0-2.29.58,3.29,3.29,0,0,0-1.12,1.79c-.17.5-.33,1-.5,1.46a15,15,0,0,1-.37,1.46c-.08.25-1.21,3.16-1.33,3.58s-.25,1-.33,1.5c-.08.33-.21.67-.29,1-.33.91-.71,1.83-1,2.74-.33,1.16-.46,2.41-.75,3.58-.21.83-.54,1.58-.79,2.41a6.61,6.61,0,0,0-.37,1.29,33.09,33.09,0,0,1-1.08,4.08,5.09,5.09,0,0,0-.58,2.25m-20.25-4.28a7.58,7.58,0,0,1,.71.92c.33.42.66.87,1,1.29a8,8,0,0,0,3.78,2.79,12.12,12.12,0,0,0,2,.58c.83.17,1.7.17,2.5.33a14.7,14.7,0,0,0,2.29.33,14.22,14.22,0,0,0,2.2-.12c.33,0,1.71-.08,2-.12a3.38,3.38,0,0,0,2-1.29,2,2,0,0,0,.33-1.29,9.22,9.22,0,0,0-.08-1.33c0-.75-.08-1.45-.08-2.2,0-.37,0-2,0-2.29,0-2.12-.58-2.83-2.49-2.83h-.29c-.79,0-2.16.37-2.7.37s-2.58-.21-3.37-1.21a6.76,6.76,0,0,1-.79-1.66,2.79,2.79,0,0,1-.17-1,3.13,3.13,0,0,1,1.41-2.79,4,4,0,0,1,2.2-.67h.37l.79,0c.25,0,1.25-.12,1.45-.12s1.41.13,1.62.13c.79,0,1.79-.12,1.79-2.37,0-.5-.25-2.75-.29-3.24v-.29c0-.46.17-2.41.17-2.79a12,12,0,0,0,0-1.37c-.21-.54-1.08-.87-1.29-1a18.8,18.8,0,0,0-5.16-.46,14.7,14.7,0,0,0-3.87.5c-2.83.67-3,.75-4.74,2.12a10.13,10.13,0,0,0-2.87,2.58,7.43,7.43,0,0,0-.87,1.45c-.29.58-.46,1.21-.71,1.79s-.62,1.29-.83,2a23.43,23.43,0,0,0-.42,3.87,18.91,18.91,0,0,0,.25,2.33c.08.46.13,1,.17,1.41.37,3.49,1.41,4.82,2,5.57" transform="translate(-161 -290.64)"/></svg>